<?xml version="1.0" encoding="UTF-8" standalone="no"?>
<!-- Created with Inkscape (http://www.inkscape.org/) -->

<svg
   xmlns:dc="http://purl.org/dc/elements/1.1/"
   xmlns:cc="http://creativecommons.org/ns#"
   xmlns:rdf="http://www.w3.org/1999/02/22-rdf-syntax-ns#"
   xmlns:svg="http://www.w3.org/2000/svg"
   xmlns="http://www.w3.org/2000/svg"
   xmlns:sodipodi="http://sodipodi.sourceforge.net/DTD/sodipodi-0.dtd"
   xmlns:inkscape="http://www.inkscape.org/namespaces/inkscape"
   width="150mm"
   height="100mm"
   viewBox="0 0 531.49606 354.33071"
   id="svg2"
   version="1.1"
   inkscape:version="0.91 r13725"
   sodipodi:docname="ET_1_setup.svg">
  <defs
     id="defs4" />
  <sodipodi:namedview
     id="base"
     pagecolor="#ffffff"
     bordercolor="#666666"
     borderopacity="1.0"
     inkscape:pageopacity="0.0"
     inkscape:pageshadow="2"
     inkscape:zoom="1.4"
     inkscape:cx="203.82406"
     inkscape:cy="153.40136"
     inkscape:document-units="px"
     inkscape:current-layer="layer1"
     showgrid="false"
     inkscape:snap-intersection-paths="false"
     inkscape:object-paths="true"
     inkscape:object-nodes="false"
     inkscape:snap-smooth-nodes="false"
     inkscape:window-width="1536"
     inkscape:window-height="801"
     inkscape:window-x="-8"
     inkscape:window-y="-8"
     inkscape:window-maximized="1" />
  <metadata
     id="metadata7">
    <rdf:RDF>
      <cc:Work
         rdf:about="">
        <dc:format>image/svg+xml</dc:format>
        <dc:type
           rdf:resource="http://purl.org/dc/dcmitype/StillImage" />
        <dc:title />
      </cc:Work>
    </rdf:RDF>
  </metadata>
  <g
     inkscape:label="Layer 1"
     inkscape:groupmode="layer"
     id="layer1"
     transform="translate(0,-698.0315)">
    <path
       style="fill:none;fill-opacity:1;stroke:#000000;stroke-width:1.29392731;stroke-miterlimit:4;stroke-dasharray:none;stroke-dashoffset:0;stroke-opacity:1"
       d="m 18.00411,816.08063 327.5632,0 0,209.70607 -327.5632,0 z"
       id="rect4140" />
    <g
       id="g4158"
       transform="translate(2.0047518,34.897547)">
      <g
         id="g4142">
        <path
           style="fill:#f2f2f2;fill-opacity:1;stroke:#000000;stroke-width:1;stroke-miterlimit:4;stroke-dasharray:none;stroke-dashoffset:0;stroke-opacity:1"
           d="m 478.57141,809.50507 a 35,34.285713 0 0 1 -35,34.28571 35,34.285713 0 0 1 -35,-34.28571 35,34.285713 0 0 1 35,-34.28572 35,34.285713 0 0 1 35,34.28572 z"
           id="path4136" />
        <path
           style="fill:#000000;fill-opacity:1;stroke:#000000;stroke-width:1;stroke-miterlimit:4;stroke-dasharray:none;stroke-dashoffset:0;stroke-opacity:1"
           d="m 448.57142,814.14795 a 14.642858,13.928572 0 0 1 -14.64286,13.92857 14.642858,13.928572 0 0 1 -14.64286,-13.92857 14.642858,13.928572 0 0 1 14.64286,-13.92857 14.642858,13.928572 0 0 1 14.64286,13.92857 z"
           id="path4138" />
      </g>
      <path
         inkscape:connector-curvature="0"
         id="path4146"
         d="m 402.85714,787.36222 c 40.47512,-7.67635 64.10248,3.38819 87.85715,27.14286"
         style="fill:none;fill-rule:evenodd;stroke:#000000;stroke-width:1px;stroke-linecap:butt;stroke-linejoin:miter;stroke-opacity:1" />
      <path
         inkscape:connector-curvature="0"
         id="path4148"
         d="m 404.28571,828.79079 c 24.50353,14.70592 53.43191,7.14286 80.71429,7.14286"
         style="fill:none;fill-rule:evenodd;stroke:#000000;stroke-width:1px;stroke-linecap:butt;stroke-linejoin:miter;stroke-opacity:1" />
      <path
         inkscape:connector-curvature="0"
         id="path4152"
         d="m 403.57143,788.0765 c -5.42423,11.48912 -9.76853,22.3038 -22.14286,26.42858"
         style="fill:none;fill-rule:evenodd;stroke:#000000;stroke-width:1px;stroke-linecap:butt;stroke-linejoin:miter;stroke-opacity:1" />
      <path
         inkscape:connector-curvature="0"
         id="path4156"
         d="m 381.42857,814.50508 c 11.77396,0.28165 18.3614,11.58826 22.85714,14.28571"
         style="fill:none;fill-rule:evenodd;stroke:#000000;stroke-width:1px;stroke-linecap:butt;stroke-linejoin:miter;stroke-opacity:1" />
    </g>
    <path
       style="fill:none;fill-rule:evenodd;stroke:#00ff00;stroke-width:2.4000001;stroke-linecap:butt;stroke-linejoin:miter;stroke-miterlimit:4;stroke-dasharray:4.8, 4.8;stroke-dashoffset:5.27999973;stroke-opacity:1"
       d="M 436.6476,847.97407 149.52088,893.90644"
       id="path4150"
       inkscape:connector-curvature="0" />
    <path
       style="fill:none;fill-rule:evenodd;stroke:#000000;stroke-width:1;stroke-linecap:butt;stroke-linejoin:miter;stroke-opacity:1;stroke-miterlimit:4;stroke-dasharray:1,2;stroke-dashoffset:0"
       d="m 149.89467,815.98523 0,77.86141 -131.985933,0"
       id="path4167"
       inkscape:connector-curvature="0" />
    <g
       transform="translate(10.714286,719.46007)"
       style="font-style:normal;font-weight:normal;font-size:20px;line-height:125%;font-family:sans-serif;letter-spacing:0px;word-spacing:0px;fill:#000000;fill-opacity:1;stroke:none;stroke-width:1px;stroke-linecap:butt;stroke-linejoin:miter;stroke-opacity:1"
       id="flowRoot4169">
      <path
         d="m 144.82227,89.298184 -2.31446,0 -3.0957,-4.189453 -3.11524,4.189453 -2.13867,0 4.25782,-5.439453 -4.21875,-5.46875 2.31445,0 3.07617,4.121094 3.08594,-4.121094 2.14844,0 -4.28711,5.371094 4.28711,5.537109 z"
         style=""
         id="path6729" />
    </g>
    <g
       transform="translate(0,698.0315)"
       style="font-style:normal;font-weight:normal;font-size:20px;line-height:125%;font-family:sans-serif;letter-spacing:0px;word-spacing:0px;fill:#000000;fill-opacity:1;stroke:none;stroke-width:1px;stroke-linecap:butt;stroke-linejoin:miter;stroke-opacity:1"
       id="flowRoot4177">
      <path
         d="m 12.667969,191.24545 -6.3671878,14.93164 -1.9628906,0 2.03125,-4.55078 -4.3457031,-10.38086 1.9921875,0 3.3496094,8.08594 3.3789066,-8.08594 1.923828,0 z"
         style=""
         id="path6732" />
    </g>
    <g
       transform="translate(67.42536,719.46007)"
       style="font-style:normal;font-weight:normal;font-size:20px;line-height:125%;font-family:sans-serif;letter-spacing:0px;word-spacing:0px;fill:#000000;fill-opacity:1;stroke:none;stroke-width:1px;stroke-linecap:butt;stroke-linejoin:miter;stroke-opacity:1"
       id="flowRoot6709">
      <path
         d="m 92.519531,55.147793 q 0,0.84961 -0.40039,1.679688 -0.390625,0.830078 -1.103516,1.40625 -0.78125,0.625 -1.826172,0.976562 -1.035156,0.351563 -2.5,0.351563 -1.572266,0 -2.832031,-0.292969 -1.25,-0.292969 -2.548828,-0.869141 l 0,-2.421875 0.136718,0 q 1.103516,0.917969 2.548829,1.416016 1.445312,0.498047 2.714843,0.498047 1.796875,0 2.792969,-0.673828 1.005859,-0.673828 1.005859,-1.796875 0,-0.966797 -0.478515,-1.425781 -0.46875,-0.458985 -1.435547,-0.712891 -0.732422,-0.195313 -1.591797,-0.322266 -0.849609,-0.126953 -1.806641,-0.322265 -1.933593,-0.410157 -2.871093,-1.396485 -0.927735,-0.996093 -0.927735,-2.58789 0,-1.826172 1.542969,-2.988282 1.542969,-1.171875 3.916016,-1.171875 1.533203,0 2.8125,0.292969 1.279297,0.292969 2.265625,0.722656 l 0,2.285157 -0.136719,0 q -0.830078,-0.703125 -2.1875,-1.16211 -1.347656,-0.46875 -2.763672,-0.46875 -1.552734,0 -2.5,0.644532 -0.9375,0.644531 -0.9375,1.660156 0,0.908203 0.46875,1.425781 0.46875,0.517578 1.650391,0.791016 0.625,0.136718 1.777343,0.332031 1.152344,0.195312 1.953125,0.400391 1.621094,0.429687 2.441407,1.298828 0.820312,0.86914 0.820312,2.43164 z"
         style=""
         id="path6735" />
      <path
         d="m 103.54492,58.61459 q -0.91797,0.439453 -1.74804,0.683594 -0.82032,0.244141 -1.74805,0.244141 -1.181643,0 -2.167971,-0.341797 -0.986328,-0.351563 -1.689453,-1.054688 -0.71289,-0.703125 -1.103515,-1.777344 -0.390625,-1.074218 -0.390625,-2.509765 0,-2.675781 1.464843,-4.199219 1.47461,-1.523437 3.886721,-1.523437 0.9375,0 1.83594,0.263671 0.9082,0.263672 1.66015,0.644532 l 0,2.041015 -0.0977,0 q -0.83985,-0.654297 -1.73829,-1.005859 -0.88867,-0.351563 -1.738277,-0.351563 -1.5625,0 -2.470703,1.054688 -0.898438,1.044922 -0.898438,3.076172 0,1.972656 0.878907,3.037109 0.888672,1.054688 2.490234,1.054688 0.556637,0 1.132817,-0.146485 0.57617,-0.146484 1.03515,-0.380859 0.40039,-0.205078 0.75196,-0.429688 0.35156,-0.234375 0.55664,-0.40039 l 0.0977,0 0,2.021484 z"
         style=""
         id="path6737" />
      <path
         d="m 112.71484,50.391934 -0.0977,0 q -0.41016,-0.09766 -0.80078,-0.136719 -0.38086,-0.04883 -0.90821,-0.04883 -0.84961,0 -1.64062,0.380859 -0.79102,0.371094 -1.52344,0.966797 l 0,7.744141 -1.83594,0 0,-10.908203 1.83594,0 0,1.611328 q 1.09375,-0.878906 1.92383,-1.240234 0.83984,-0.371094 1.70898,-0.371094 0.47852,0 0.69336,0.0293 0.21485,0.01953 0.64453,0.08789 l 0,1.884766 z"
         style=""
         id="path6739" />
      <path
         d="m 123.59375,54.034512 -8.03711,0 q 0,1.005859 0.30274,1.757813 0.30273,0.742187 0.83007,1.220703 0.50782,0.46875 1.20118,0.703125 0.70312,0.234375 1.54296,0.234375 1.11329,0 2.23633,-0.439453 1.13281,-0.449219 1.61133,-0.878907 l 0.0977,0 0,2.001953 q -0.92774,0.390625 -1.89453,0.654297 -0.9668,0.263672 -2.03125,0.263672 -2.71485,0 -4.23829,-1.464844 -1.52343,-1.474609 -1.52343,-4.179687 0,-2.675781 1.45507,-4.248047 1.46485,-1.572266 3.84766,-1.572266 2.20703,0 3.39844,1.289063 1.20117,1.289062 1.20117,3.662109 l 0,0.996094 z m -1.78711,-1.40625 q -0.01,-1.445312 -0.73242,-2.236328 -0.71289,-0.791016 -2.17774,-0.791016 -1.4746,0 -2.35351,0.869141 -0.86914,0.869141 -0.98633,2.158203 l 6.25,0 z"
         style=""
         id="path6741" />
      <path
         d="m 135.50781,54.034512 -8.03711,0 q 0,1.005859 0.30274,1.757813 0.30273,0.742187 0.83008,1.220703 0.50781,0.46875 1.20117,0.703125 0.70312,0.234375 1.54297,0.234375 1.11328,0 2.23632,-0.439453 1.13282,-0.449219 1.61133,-0.878907 l 0.0977,0 0,2.001953 q -0.92774,0.390625 -1.89453,0.654297 -0.9668,0.263672 -2.03125,0.263672 -2.71485,0 -4.23828,-1.464844 -1.52344,-1.474609 -1.52344,-4.179687 0,-2.675781 1.45508,-4.248047 1.46484,-1.572266 3.84765,-1.572266 2.20703,0 3.39844,1.289063 1.20117,1.289062 1.20117,3.662109 l 0,0.996094 z m -1.78711,-1.40625 q -0.01,-1.445312 -0.73242,-2.236328 -0.71289,-0.791016 -2.17773,-0.791016 -1.47461,0 -2.35352,0.869141 -0.86914,0.869141 -0.98633,2.158203 l 6.25,0 z"
         style=""
         id="path6743" />
      <path
         d="m 147.41211,59.298184 -1.83594,0 0,-6.210938 q 0,-0.751953 -0.0879,-1.40625 -0.0879,-0.664062 -0.32226,-1.035156 -0.24415,-0.410156 -0.70313,-0.605469 -0.45898,-0.205078 -1.19141,-0.205078 -0.75195,0 -1.57226,0.371094 -0.82031,0.371094 -1.57227,0.947266 l 0,8.144531 -1.83593,0 0,-10.908203 1.83593,0 0,1.210937 q 0.85938,-0.71289 1.77735,-1.113281 0.91797,-0.400391 1.88476,-0.400391 1.76758,0 2.69531,1.064454 0.92774,1.064453 0.92774,3.066406 l 0,7.080078 z"
         style=""
         id="path6745" />
    </g>
    <g
       transform="translate(76.428571,723.74579)"
       style="font-style:normal;font-weight:normal;font-size:20px;line-height:125%;font-family:sans-serif;letter-spacing:0px;word-spacing:0px;fill:#000000;fill-opacity:1;stroke:none;stroke-width:1px;stroke-linecap:butt;stroke-linejoin:miter;stroke-opacity:1"
       id="flowRoot6717">
      <path
         d="m 362.96094,57.153653 -9.58008,0 0,-14.541016 9.58008,0 0,1.71875 -7.64649,0 0,3.984375 7.64649,0 0,1.71875 -7.64649,0 0,5.400391 7.64649,0 0,1.71875 z"
         style=""
         id="path6748" />
      <path
         d="m 375.32422,46.24545 -6.36719,14.93164 -1.96289,0 2.03125,-4.550781 -4.3457,-10.380859 1.99218,0 3.34961,8.085937 3.37891,-8.085937 1.92383,0 z"
         style=""
         id="path6750" />
      <path
         d="m 386.70117,51.889981 -8.03711,0 q 0,1.005859 0.30274,1.757812 0.30273,0.742188 0.83007,1.220703 0.50782,0.46875 1.20118,0.703125 0.70312,0.234375 1.54297,0.234375 1.11328,0 2.23632,-0.439453 1.13282,-0.449218 1.61133,-0.878906 l 0.0977,0 0,2.001953 q -0.92774,0.390625 -1.89453,0.654297 -0.9668,0.263672 -2.03125,0.263672 -2.71485,0 -4.23828,-1.464844 -1.52344,-1.474609 -1.52344,-4.179687 0,-2.675782 1.45508,-4.248047 1.46484,-1.572266 3.84765,-1.572266 2.20703,0 3.39844,1.289063 1.20117,1.289062 1.20117,3.662109 l 0,0.996094 z m -1.78711,-1.40625 q -0.01,-1.445313 -0.73242,-2.236328 -0.71289,-0.791016 -2.17773,-0.791016 -1.47461,0 -2.35352,0.869141 -0.86914,0.86914 -0.98633,2.158203 l 6.25,0 z"
         style=""
         id="path6752" />
    </g>
  </g>
</svg>
