<?xml version="1.0" encoding="UTF-8" standalone="no"?>
<!-- Created with Inkscape (http://www.inkscape.org/) -->

<svg
   xmlns:dc="http://purl.org/dc/elements/1.1/"
   xmlns:cc="http://creativecommons.org/ns#"
   xmlns:rdf="http://www.w3.org/1999/02/22-rdf-syntax-ns#"
   xmlns:svg="http://www.w3.org/2000/svg"
   xmlns="http://www.w3.org/2000/svg"
   xmlns:sodipodi="http://sodipodi.sourceforge.net/DTD/sodipodi-0.dtd"
   xmlns:inkscape="http://www.inkscape.org/namespaces/inkscape"
   width="150mm"
   height="100mm"
   viewBox="0 0 531.49606 354.33071"
   id="svg2"
   version="1.1"
   inkscape:version="0.91 r13725"
   sodipodi:docname="ET_2_step_coordinates.svg">
  <defs
     id="defs4" />
  <sodipodi:namedview
     id="base"
     pagecolor="#ffffff"
     bordercolor="#666666"
     borderopacity="1.0"
     inkscape:pageopacity="0.0"
     inkscape:pageshadow="2"
     inkscape:zoom="1.4"
     inkscape:cx="261.40224"
     inkscape:cy="184.7963"
     inkscape:document-units="px"
     inkscape:current-layer="layer1"
     showgrid="false"
     inkscape:snap-intersection-paths="false"
     inkscape:object-paths="false"
     inkscape:object-nodes="false"
     inkscape:snap-smooth-nodes="false"
     inkscape:window-width="1536"
     inkscape:window-height="801"
     inkscape:window-x="-8"
     inkscape:window-y="-8"
     inkscape:window-maximized="1"
     inkscape:snap-nodes="false" />
  <metadata
     id="metadata7">
    <rdf:RDF>
      <cc:Work
         rdf:about="">
        <dc:format>image/svg+xml</dc:format>
        <dc:type
           rdf:resource="http://purl.org/dc/dcmitype/StillImage" />
        <dc:title></dc:title>
      </cc:Work>
    </rdf:RDF>
  </metadata>
  <g
     inkscape:label="Layer 1"
     inkscape:groupmode="layer"
     id="layer1"
     transform="translate(0,-698.0315)">
    <path
       style="fill:none;fill-opacity:1;stroke:#000000;stroke-width:1.29392731;stroke-miterlimit:4;stroke-dasharray:none;stroke-dashoffset:0;stroke-opacity:1"
       d="m 18.00411,816.08063 327.5632,0 0,209.70607 -327.5632,0 z"
       id="rect4140" />
    <g
       id="g4158"
       transform="translate(2.0047518,34.897547)"
       style="fill:none">
      <g
         id="g4142"
         style="fill:none">
        <path
           style="fill:none;fill-opacity:1;stroke:#000000;stroke-width:1;stroke-miterlimit:4;stroke-dasharray:none;stroke-dashoffset:0;stroke-opacity:1"
           d="m 478.57141,809.50507 a 35,34.285713 0 0 1 -35,34.28571 35,34.285713 0 0 1 -35,-34.28571 35,34.285713 0 0 1 35,-34.28572 35,34.285713 0 0 1 35,34.28572 z"
           id="path4136" />
        <path
           style="fill:none;fill-opacity:1;stroke:#000000;stroke-width:1;stroke-miterlimit:4;stroke-dasharray:none;stroke-dashoffset:0;stroke-opacity:1"
           d="m 448.57142,814.14795 a 14.642858,13.928572 0 0 1 -14.64286,13.92857 14.642858,13.928572 0 0 1 -14.64286,-13.92857 14.642858,13.928572 0 0 1 14.64286,-13.92857 14.642858,13.928572 0 0 1 14.64286,13.92857 z"
           id="path4138" />
      </g>
      <path
         inkscape:connector-curvature="0"
         id="path4146"
         d="m 402.85714,787.36222 c 40.47512,-7.67635 64.10248,3.38819 87.85715,27.14286"
         style="fill:none;fill-rule:evenodd;stroke:#000000;stroke-width:1px;stroke-linecap:butt;stroke-linejoin:miter;stroke-opacity:1" />
      <path
         inkscape:connector-curvature="0"
         id="path4148"
         d="m 404.28571,828.79079 c 24.50353,14.70592 53.43191,7.14286 80.71429,7.14286"
         style="fill:none;fill-rule:evenodd;stroke:#000000;stroke-width:1px;stroke-linecap:butt;stroke-linejoin:miter;stroke-opacity:1" />
      <path
         inkscape:connector-curvature="0"
         id="path4152"
         d="m 403.57143,788.0765 c -5.42423,11.48912 -9.76853,22.3038 -22.14286,26.42858"
         style="fill:none;fill-rule:evenodd;stroke:#000000;stroke-width:1px;stroke-linecap:butt;stroke-linejoin:miter;stroke-opacity:1" />
      <path
         inkscape:connector-curvature="0"
         id="path4156"
         d="m 381.42857,814.50508 c 11.77396,0.28165 18.3614,11.58826 22.85714,14.28571"
         style="fill:none;fill-rule:evenodd;stroke:#000000;stroke-width:1px;stroke-linecap:butt;stroke-linejoin:miter;stroke-opacity:1" />
    </g>
    <path
       style="fill:none;fill-rule:evenodd;stroke:#00ff00;stroke-width:2.59738183;stroke-linecap:butt;stroke-linejoin:miter;stroke-miterlimit:4;stroke-dasharray:5.19476351, 5.19476351;stroke-dashoffset:5.27999973;stroke-opacity:1"
       d="M 459.86511,844.03193 149.53688,893.80796"
       id="path4150"
       inkscape:connector-curvature="0" />
    <path
       style="fill:none;fill-rule:evenodd;stroke:#000000;stroke-width:1;stroke-linecap:butt;stroke-linejoin:miter;stroke-opacity:1;stroke-miterlimit:4;stroke-dasharray:1,2;stroke-dashoffset:0"
       d="m 149.89467,815.98523 0,77.86141 -131.985933,0"
       id="path4167"
       inkscape:connector-curvature="0" />
    <g
       transform="translate(10.714286,719.46007)"
       style="font-style:normal;font-weight:normal;font-size:20px;line-height:125%;font-family:sans-serif;letter-spacing:0px;word-spacing:0px;fill:#000000;fill-opacity:1;stroke:none;stroke-width:1px;stroke-linecap:butt;stroke-linejoin:miter;stroke-opacity:1"
       id="flowRoot4169">
      <path
         d="m 144.82227,89.298184 -2.31446,0 -3.0957,-4.189453 -3.11524,4.189453 -2.13867,0 4.25782,-5.439453 -4.21875,-5.46875 2.31445,0 3.07617,4.121094 3.08594,-4.121094 2.14844,0 -4.28711,5.371094 4.28711,5.537109 z"
         style=""
         id="path4231" />
    </g>
    <g
       transform="translate(0,698.0315)"
       style="font-style:normal;font-weight:normal;font-size:20px;line-height:125%;font-family:sans-serif;letter-spacing:0px;word-spacing:0px;fill:#000000;fill-opacity:1;stroke:none;stroke-width:1px;stroke-linecap:butt;stroke-linejoin:miter;stroke-opacity:1"
       id="flowRoot4177">
      <path
         d="m 12.667969,191.24545 -6.3671878,14.93164 -1.9628906,0 2.03125,-4.55078 -4.3457031,-10.38086 1.9921875,0 3.3496094,8.08594 3.3789066,-8.08594 1.923828,0 z"
         style=""
         id="path4234" />
    </g>
    <path
       style="fill:none;fill-rule:evenodd;stroke:#00ff00;stroke-width:0;stroke-linecap:butt;stroke-linejoin:miter;stroke-opacity:1;stroke-miterlimit:4;stroke-dasharray:none"
       d="m 453.92857,843.43365 19.15076,-71.47161"
       id="path4193"
       inkscape:connector-curvature="0" />
    <path
       style="fill:none;fill-rule:evenodd;stroke:#000000;stroke-width:1.13868797;stroke-linecap:butt;stroke-linejoin:miter;stroke-miterlimit:4;stroke-dasharray:2.27737585, 2.27737585;stroke-dashoffset:0;stroke-opacity:1"
       d="m 453.57142,843.79079 0,-109.28571"
       id="path4195"
       inkscape:connector-curvature="0" />
    <path
       style="fill:none;fill-rule:evenodd;stroke:#000000;stroke-width:1;stroke-linecap:butt;stroke-linejoin:miter;stroke-opacity:1;stroke-miterlimit:4;stroke-dasharray:2,2;stroke-dashoffset:0"
       d="m 431.42857,848.0765 0,-90"
       id="path4197"
       inkscape:connector-curvature="0" />
    <g
       transform="translate(-15.714285,710.17436)"
       style="font-style:normal;font-weight:normal;font-size:20px;line-height:125%;font-family:sans-serif;letter-spacing:0px;word-spacing:0px;fill:#000000;fill-opacity:1;stroke:none;stroke-width:1px;stroke-linecap:butt;stroke-linejoin:miter;stroke-opacity:1"
       id="flowRoot4199">
      <path
         d="m 440.60254,20.479497 q -0.40283,0.175782 -0.73242,0.32959 -0.32227,0.153809 -0.84961,0.322266 -0.44678,0.13916 -0.97412,0.234375 -0.52002,0.102539 -1.14991,0.102539 -1.18652,0 -2.16064,-0.32959 -0.9668,-0.336914 -1.68457,-1.047363 -0.70313,-0.695801 -1.09863,-1.765137 -0.39551,-1.07666 -0.39551,-2.497559 0,-1.347656 0.38086,-2.409668 0.38086,-1.062011 1.09863,-1.794433 0.6958,-0.710449 1.67725,-1.083985 0.98877,-0.373535 2.18994,-0.373535 0.8789,0 1.75049,0.212403 0.8789,0.212402 1.94824,0.74707 l 0,1.721191 -0.10986,0 q -0.90088,-0.754394 -1.78711,-1.098632 -0.88623,-0.344239 -1.89698,-0.344239 -0.82763,0 -1.49414,0.270996 -0.65918,0.263672 -1.1792,0.827637 -0.50537,0.549316 -0.79101,1.391602 -0.27832,0.834961 -0.27832,1.933593 0,1.149903 0.30762,1.977539 0.31494,0.827637 0.80566,1.347657 0.51269,0.541992 1.19385,0.805664 0.68847,0.256347 1.45019,0.256347 1.04737,0 1.96289,-0.358886 0.91553,-0.358887 1.71387,-1.07666 l 0.10254,0 0,1.699218 z"
         style="font-size:15px"
         id="path4237" />
      <path
         d="m 449.40625,17.322759 -6.02783,0 q 0,0.754395 0.22705,1.318359 0.22705,0.556641 0.62256,0.915528 0.38086,0.351562 0.90088,0.527343 0.52734,0.175782 1.15722,0.175782 0.83496,0 1.67725,-0.32959 0.84961,-0.336914 1.20849,-0.65918 l 0.0732,0 0,1.501465 q -0.6958,0.292969 -1.4209,0.490723 -0.7251,0.197754 -1.52344,0.197754 -2.03613,0 -3.17871,-1.098633 -1.14258,-1.105957 -1.14258,-3.134766 0,-2.006836 1.09131,-3.186035 1.09863,-1.179199 2.88574,-1.179199 1.65528,0 2.54883,0.966797 0.90088,0.966797 0.90088,2.746582 l 0,0.74707 z m -1.34033,-1.054687 q -0.007,-1.083985 -0.54932,-1.677247 -0.53467,-0.593261 -1.6333,-0.593261 -1.10596,0 -1.76514,0.651855 -0.65185,0.651856 -0.73974,1.618653 l 4.6875,0 z"
         style="font-size:15px"
         id="path4239" />
      <path
         d="m 458.33447,21.270513 -1.37695,0 0,-4.658203 q 0,-0.563965 -0.0659,-1.054688 -0.0659,-0.498047 -0.2417,-0.776367 -0.1831,-0.307617 -0.52734,-0.454101 -0.34424,-0.153809 -0.89356,-0.153809 -0.56396,0 -1.1792,0.27832 -0.61523,0.278321 -1.17919,0.710449 l 0,6.108399 -1.37696,0 0,-8.181152 1.37696,0 0,0.908203 q 0.64453,-0.534668 1.333,-0.834961 0.68848,-0.300293 1.41358,-0.300293 1.32568,0 2.02148,0.79834 0.6958,0.798339 0.6958,2.299804 l 0,5.310059 z"
         style="font-size:15px"
         id="path4241" />
      <path
         d="m 465.23389,21.197271 q -0.38819,0.102539 -0.84961,0.168457 -0.4541,0.06592 -0.81299,0.06592 -1.25244,0 -1.9043,-0.673828 -0.65185,-0.673829 -0.65185,-2.160645 l 0,-4.350586 -0.93018,0 0,-1.157226 0.93018,0 0,-2.351075 1.37695,0 0,2.351075 2.8418,0 0,1.157226 -2.8418,0 0,3.728027 q 0,0.644532 0.0293,1.010743 0.0293,0.358886 0.20507,0.673828 0.16114,0.292969 0.43946,0.432129 0.28564,0.131836 0.86426,0.131836 0.33691,0 0.70312,-0.09521 0.36621,-0.102539 0.52734,-0.168457 l 0.0732,0 0,1.237793 z"
         style="font-size:15px"
         id="path4243" />
      <path
         d="m 473.75195,17.322759 -6.02783,0 q 0,0.754395 0.22705,1.318359 0.22705,0.556641 0.62256,0.915528 0.38086,0.351562 0.90088,0.527343 0.52734,0.175782 1.15723,0.175782 0.83496,0 1.67724,-0.32959 0.84961,-0.336914 1.2085,-0.65918 l 0.0732,0 0,1.501465 q -0.6958,0.292969 -1.4209,0.490723 -0.7251,0.197754 -1.52344,0.197754 -2.03613,0 -3.17871,-1.098633 -1.14257,-1.105957 -1.14257,-3.134766 0,-2.006836 1.0913,-3.186035 1.09864,-1.179199 2.88575,-1.179199 1.65527,0 2.54882,0.966797 0.90088,0.966797 0.90088,2.746582 l 0,0.74707 z m -1.34033,-1.054687 q -0.007,-1.083985 -0.54932,-1.677247 -0.53466,-0.593261 -1.6333,-0.593261 -1.10595,0 -1.76513,0.651855 -0.65186,0.651856 -0.73975,1.618653 l 4.6875,0 z"
         style="font-size:15px"
         id="path4245" />
      <path
         d="m 480.94434,14.590825 -0.0733,0 q -0.30761,-0.07324 -0.60058,-0.102539 -0.28565,-0.03662 -0.68115,-0.03662 -0.63721,0 -1.23047,0.285645 -0.59327,0.27832 -1.14258,0.725097 l 0,5.808106 -1.37695,0 0,-8.181152 1.37695,0 0,1.208496 q 0.82031,-0.65918 1.44287,-0.930176 0.62988,-0.27832 1.28174,-0.27832 0.35888,0 0.52002,0.02197 0.16113,0.01465 0.4834,0.06592 l 0,1.413574 z"
         style="font-size:15px"
         id="path4247" />
      <path
         d="m 494.50146,17.183599 q 0,1.999512 -1.02539,3.156738 -1.02539,1.157227 -2.74658,1.157227 -1.73584,0 -2.76123,-1.157227 -1.01806,-1.157226 -1.01806,-3.156738 0,-1.999512 1.01806,-3.156738 1.02539,-1.164551 2.76123,-1.164551 1.72119,0 2.74658,1.164551 1.02539,1.157226 1.02539,3.156738 z m -1.42089,0 q 0,-1.589356 -0.62256,-2.358399 -0.62256,-0.776367 -1.72852,-0.776367 -1.1206,0 -1.74316,0.776367 -0.61524,0.769043 -0.61524,2.358399 0,1.538086 0.62256,2.336426 0.62256,0.791015 1.73584,0.791015 1.09863,0 1.72119,-0.783691 0.62989,-0.791016 0.62989,-2.34375 z"
         style="font-size:15px"
         id="path4249" />
      <path
         d="m 501.04199,11.207036 -0.0732,0 q -0.22705,-0.06592 -0.59326,-0.131836 -0.36621,-0.07324 -0.64453,-0.07324 -0.88623,0 -1.28907,0.395508 -0.3955,0.388184 -0.3955,1.413574 l 0,0.278321 2.48291,0 0,1.157226 -2.43897,0 0,7.023926 -1.37695,0 0,-7.023926 -0.93018,0 0,-1.157226 0.93018,0 0,-0.270997 q 0,-1.457519 0.7251,-2.233886 0.72509,-0.7836916 2.09472,-0.7836916 0.46143,0 0.82764,0.043945 0.37353,0.043945 0.68115,0.102539 l 0,1.2597653 z"
         style="font-size:15px"
         id="path4251" />
      <path
         d="m 514.03516,17.322759 -6.02784,0 q 0,0.754395 0.22705,1.318359 0.22706,0.556641 0.62256,0.915528 0.38086,0.351562 0.90088,0.527343 0.52735,0.175782 1.15723,0.175782 0.83496,0 1.67725,-0.32959 0.8496,-0.336914 1.20849,-0.65918 l 0.0732,0 0,1.501465 q -0.6958,0.292969 -1.4209,0.490723 -0.72509,0.197754 -1.52343,0.197754 -2.03614,0 -3.17871,-1.098633 -1.14258,-1.105957 -1.14258,-3.134766 0,-2.006836 1.09131,-3.186035 1.09863,-1.179199 2.88574,-1.179199 1.65527,0 2.54883,0.966797 0.90088,0.966797 0.90088,2.746582 l 0,0.74707 z m -1.34034,-1.054687 q -0.007,-1.083985 -0.54931,-1.677247 -0.53467,-0.593261 -1.6333,-0.593261 -1.10596,0 -1.76514,0.651855 -0.65186,0.651856 -0.73975,1.618653 l 4.6875,0 z"
         style="font-size:15px"
         id="path4253" />
      <path
         d="m 523.19775,13.089361 -4.77539,11.19873 -1.47216,0 1.52343,-3.413086 -3.25927,-7.785644 1.49414,0 2.5122,6.064453 2.53418,-6.064453 1.44287,0 z"
         style="font-size:15px"
         id="path4255" />
      <path
         d="m 531.73047,17.322759 -6.02783,0 q 0,0.754395 0.22705,1.318359 0.22705,0.556641 0.62256,0.915528 0.38086,0.351562 0.90087,0.527343 0.52735,0.175782 1.15723,0.175782 0.83496,0 1.67725,-0.32959 0.84961,-0.336914 1.20849,-0.65918 l 0.0733,0 0,1.501465 q -0.6958,0.292969 -1.4209,0.490723 -0.7251,0.197754 -1.52344,0.197754 -2.03613,0 -3.17871,-1.098633 -1.14258,-1.105957 -1.14258,-3.134766 0,-2.006836 1.09131,-3.186035 1.09863,-1.179199 2.88574,-1.179199 1.65528,0 2.54883,0.966797 0.90088,0.966797 0.90088,2.746582 l 0,0.74707 z m -1.34033,-1.054687 q -0.007,-1.083985 -0.54932,-1.677247 -0.53467,-0.593261 -1.6333,-0.593261 -1.10596,0 -1.76514,0.651855 -0.65185,0.651856 -0.73974,1.618653 l 4.6875,0 z"
         style="font-size:15px"
         id="path4257" />
    </g>
    <g
       transform="translate(34.285714,705.17436)"
       style="font-style:normal;font-weight:normal;font-size:20px;line-height:125%;font-family:sans-serif;letter-spacing:0px;word-spacing:0px;fill:#000000;fill-opacity:1;stroke:none;stroke-width:1px;stroke-linecap:butt;stroke-linejoin:miter;stroke-opacity:1"
       id="flowRoot4207">
      <path
         d="m 312.74512,46.907232 q -0.40283,0.175781 -0.73242,0.32959 -0.32227,0.153808 -0.84961,0.322265 -0.44678,0.13916 -0.97413,0.234375 -0.52001,0.102539 -1.1499,0.102539 -1.18652,0 -2.16064,-0.32959 -0.9668,-0.336914 -1.68457,-1.047363 -0.70313,-0.695801 -1.09864,-1.765137 -0.3955,-1.07666 -0.3955,-2.497558 0,-1.347656 0.38086,-2.409668 0.38086,-1.062012 1.09863,-1.794434 0.6958,-0.710449 1.67725,-1.083984 0.98876,-0.373535 2.18994,-0.373535 0.8789,0 1.75048,0.212402 0.87891,0.212402 1.94825,0.74707 l 0,1.721192 -0.10987,0 q -0.90088,-0.754395 -1.78711,-1.098633 -0.88623,-0.344238 -1.89697,-0.344238 -0.82763,0 -1.49414,0.270996 -0.65918,0.263672 -1.1792,0.827636 -0.50537,0.549317 -0.79101,1.391602 -0.27832,0.834961 -0.27832,1.933594 0,1.149902 0.30761,1.977539 0.31494,0.827637 0.80567,1.347656 0.51269,0.541992 1.19384,0.805664 0.68848,0.256348 1.4502,0.256348 1.04736,0 1.96289,-0.358887 0.91553,-0.358887 1.71387,-1.07666 l 0.10254,0 0,1.699219 z"
         style="font-size:15px"
         id="path4260" />
      <path
         d="m 321.54883,43.750493 -6.02783,0 q 0,0.754395 0.22705,1.31836 0.22705,0.55664 0.62256,0.915527 0.38085,0.351563 0.90087,0.527344 0.52735,0.175781 1.15723,0.175781 0.83496,0 1.67725,-0.32959 0.84961,-0.336914 1.20849,-0.659179 l 0.0732,0 0,1.501464 q -0.69581,0.292969 -1.4209,0.490723 -0.7251,0.197754 -1.52344,0.197754 -2.03613,0 -3.17871,-1.098633 -1.14258,-1.105957 -1.14258,-3.134765 0,-2.006836 1.09131,-3.186036 1.09863,-1.179199 2.88574,-1.179199 1.65527,0 2.54883,0.966797 0.90088,0.966797 0.90088,2.746582 l 0,0.74707 z m -1.34033,-1.054687 q -0.007,-1.083984 -0.54932,-1.677246 -0.53467,-0.593262 -1.6333,-0.593262 -1.10596,0 -1.76514,0.651856 -0.65185,0.651855 -0.73974,1.618652 l 4.6875,0 z"
         style="font-size:15px"
         id="path4262" />
      <path
         d="m 330.47705,47.698247 -1.37695,0 0,-4.658203 q 0,-0.563965 -0.0659,-1.054687 -0.0659,-0.498047 -0.2417,-0.776368 -0.18311,-0.307617 -0.52734,-0.454101 -0.34424,-0.153809 -0.89356,-0.153809 -0.56396,0 -1.1792,0.278321 -0.61523,0.27832 -1.1792,0.710449 l 0,6.108398 -1.37695,0 0,-8.181152 1.37695,0 0,0.908203 q 0.64453,-0.534668 1.33301,-0.834961 0.68848,-0.300293 1.41358,-0.300293 1.32568,0 2.02148,0.79834 0.6958,0.79834 0.6958,2.299805 l 0,5.310058 z"
         style="font-size:15px"
         id="path4264" />
      <path
         d="m 337.37646,47.625005 q -0.38818,0.102539 -0.8496,0.168457 -0.45411,0.06592 -0.81299,0.06592 -1.25244,0 -1.9043,-0.673828 -0.65186,-0.673828 -0.65186,-2.160645 l 0,-4.350585 -0.93017,0 0,-1.157227 0.93017,0 0,-2.351074 1.37696,0 0,2.351074 2.84179,0 0,1.157227 -2.84179,0 0,3.728027 q 0,0.644531 0.0293,1.010742 0.0293,0.358887 0.20508,0.673828 0.16114,0.292969 0.43946,0.432129 0.28564,0.131836 0.86425,0.131836 0.33692,0 0.70313,-0.09521 0.36621,-0.102539 0.52734,-0.168457 l 0.0732,0 0,1.237793 z"
         style="font-size:15px"
         id="path4266" />
      <path
         d="m 345.89453,43.750493 -6.02783,0 q 0,0.754395 0.22705,1.31836 0.22705,0.55664 0.62256,0.915527 0.38086,0.351563 0.90088,0.527344 0.52734,0.175781 1.15722,0.175781 0.83496,0 1.67725,-0.32959 0.84961,-0.336914 1.2085,-0.659179 l 0.0732,0 0,1.501464 q -0.6958,0.292969 -1.4209,0.490723 -0.7251,0.197754 -1.52344,0.197754 -2.03613,0 -3.17871,-1.098633 -1.14258,-1.105957 -1.14258,-3.134765 0,-2.006836 1.09131,-3.186036 1.09863,-1.179199 2.88574,-1.179199 1.65528,0 2.54883,0.966797 0.90088,0.966797 0.90088,2.746582 l 0,0.74707 z m -1.34033,-1.054687 q -0.007,-1.083984 -0.54932,-1.677246 -0.53467,-0.593262 -1.6333,-0.593262 -1.10596,0 -1.76513,0.651856 -0.65186,0.651855 -0.73975,1.618652 l 4.6875,0 z"
         style="font-size:15px"
         id="path4268" />
      <path
         d="m 353.08691,41.01856 -0.0732,0 q -0.30762,-0.07324 -0.60058,-0.102539 -0.28565,-0.03662 -0.68116,-0.03662 -0.6372,0 -1.23047,0.285644 -0.59326,0.27832 -1.14257,0.725098 l 0,5.808105 -1.37696,0 0,-8.181152 1.37696,0 0,1.208496 q 0.82031,-0.65918 1.44287,-0.930176 0.62988,-0.27832 1.28174,-0.27832 0.35888,0 0.52002,0.02197 0.16113,0.01465 0.48339,0.06592 l 0,1.413574 z"
         style="font-size:15px"
         id="path4270" />
      <path
         d="m 366.64404,43.611333 q 0,1.999512 -1.02539,3.156739 -1.02539,1.157226 -2.74658,1.157226 -1.73584,0 -2.76123,-1.157226 -1.01807,-1.157227 -1.01807,-3.156739 0,-1.999511 1.01807,-3.156738 1.02539,-1.164551 2.76123,-1.164551 1.72119,0 2.74658,1.164551 1.02539,1.157227 1.02539,3.156738 z m -1.4209,0 q 0,-1.589355 -0.62255,-2.358398 -0.62256,-0.776367 -1.72852,-0.776367 -1.12061,0 -1.74316,0.776367 -0.61524,0.769043 -0.61524,2.358398 0,1.538086 0.62256,2.336426 0.62256,0.791016 1.73584,0.791016 1.09863,0 1.72119,-0.783692 0.62988,-0.791015 0.62988,-2.34375 z"
         style="font-size:15px"
         id="path4272" />
      <path
         d="m 373.18457,37.634771 -0.0732,0 q -0.22705,-0.06592 -0.59326,-0.131836 -0.36621,-0.07324 -0.64453,-0.07324 -0.88624,0 -1.28907,0.395507 -0.39551,0.388184 -0.39551,1.413575 l 0,0.27832 2.48291,0 0,1.157227 -2.43896,0 0,7.023925 -1.37695,0 0,-7.023925 -0.93018,0 0,-1.157227 0.93018,0 0,-0.270996 q 0,-1.45752 0.72509,-2.233887 0.7251,-0.783691 2.09473,-0.783691 0.46143,0 0.82764,0.04395 0.37353,0.04395 0.68115,0.102539 l 0,1.259766 z"
         style="font-size:15px"
         id="path4274" />
      <path
         d="m 386.5293,43.508794 q 0,0.996094 -0.28565,1.823731 -0.28564,0.820312 -0.80566,1.391601 -0.4834,0.541992 -1.14258,0.842285 -0.65186,0.292969 -1.38428,0.292969 -0.6372,0 -1.15722,-0.13916 -0.5127,-0.13916 -1.04737,-0.432129 l 0,3.427734 -1.37695,0 0,-11.19873 1.37695,0 0,0.856934 q 0.54932,-0.461426 1.23047,-0.769043 0.68848,-0.314942 1.46485,-0.314942 1.47949,0 2.2998,1.120606 0.82764,1.113281 0.82764,3.098144 z m -1.4209,0.03662 q 0,-1.479492 -0.50537,-2.211914 -0.50537,-0.732422 -1.55274,-0.732422 -0.59326,0 -1.19384,0.256348 -0.60059,0.256348 -1.14991,0.673828 l 0,4.636231 q 0.58594,0.263671 1.00342,0.358886 0.42481,0.09521 0.95947,0.09521 1.14991,0 1.79444,-0.776367 0.64453,-0.776367 0.64453,-2.299805 z"
         style="font-size:15px"
         id="path4276" />
      <path
         d="m 395.45752,47.698247 -1.37695,0 0,-0.908203 q -0.6958,0.549317 -1.33301,0.842285 -0.63721,0.292969 -1.40625,0.292969 -1.28906,0 -2.00684,-0.783691 -0.71777,-0.791016 -0.71777,-2.314453 l 0,-5.310059 1.37695,0 0,4.658203 q 0,0.622559 0.0586,1.069336 0.0586,0.439453 0.24902,0.754395 0.19775,0.322265 0.51269,0.46875 0.31495,0.146484 0.91553,0.146484 0.53467,0 1.16455,-0.27832 0.63721,-0.278321 1.18653,-0.71045 l 0,-6.108398 1.37695,0 0,8.181152 z"
         style="font-size:15px"
         id="path4278" />
      <path
         d="m 405.36719,43.508794 q 0,0.996094 -0.28565,1.823731 -0.28564,0.820312 -0.80566,1.391601 -0.4834,0.541992 -1.14258,0.842285 -0.65185,0.292969 -1.38428,0.292969 -0.6372,0 -1.15722,-0.13916 -0.5127,-0.13916 -1.04737,-0.432129 l 0,3.427734 -1.37695,0 0,-11.19873 1.37695,0 0,0.856934 q 0.54932,-0.461426 1.23047,-0.769043 0.68848,-0.314942 1.46485,-0.314942 1.47949,0 2.2998,1.120606 0.82764,1.113281 0.82764,3.098144 z m -1.4209,0.03662 q 0,-1.479492 -0.50537,-2.211914 -0.50537,-0.732422 -1.55274,-0.732422 -0.59326,0 -1.19384,0.256348 -0.60059,0.256348 -1.14991,0.673828 l 0,4.636231 q 0.58594,0.263671 1.00342,0.358886 0.42481,0.09521 0.95947,0.09521 1.14991,0 1.79444,-0.776367 0.64453,-0.776367 0.64453,-2.299805 z"
         style="font-size:15px"
         id="path4280" />
      <path
         d="m 408.99268,38.147466 -1.55274,0 0,-1.428223 1.55274,0 0,1.428223 z m -0.0879,9.550781 -1.37696,0 0,-8.181152 1.37696,0 0,8.181152 z"
         style="font-size:15px"
         id="path4282" />
      <path
         d="m 412.97705,47.698247 -1.37695,0 0,-11.396484 1.37695,0 0,11.396484 z"
         style="font-size:15px"
         id="path4284" />
    </g>
    <g
       style="font-style:normal;font-weight:normal;font-size:20px;line-height:125%;font-family:sans-serif;letter-spacing:0px;word-spacing:0px;fill:#000000;fill-opacity:1;stroke:none;stroke-width:1px;stroke-linecap:butt;stroke-linejoin:miter;stroke-opacity:1"
       id="flowRoot4215" />
  </g>
</svg>
