<?xml version="1.0" encoding="UTF-8" standalone="no"?>
<!-- Created with Inkscape (http://www.inkscape.org/) -->

<svg
   xmlns:dc="http://purl.org/dc/elements/1.1/"
   xmlns:cc="http://creativecommons.org/ns#"
   xmlns:rdf="http://www.w3.org/1999/02/22-rdf-syntax-ns#"
   xmlns:svg="http://www.w3.org/2000/svg"
   xmlns="http://www.w3.org/2000/svg"
   xmlns:sodipodi="http://sodipodi.sourceforge.net/DTD/sodipodi-0.dtd"
   xmlns:inkscape="http://www.inkscape.org/namespaces/inkscape"
   width="92.969994mm"
   height="21.942709mm"
   viewBox="0 0 329.42123 77.749756"
   id="svg5124"
   version="1.1"
   inkscape:version="0.91 r13725"
   sodipodi:docname="ET_4_pupil_detection.svg">
  <defs
     id="defs5126" />
  <sodipodi:namedview
     id="base"
     pagecolor="#ffffff"
     bordercolor="#666666"
     borderopacity="1.0"
     inkscape:pageopacity="0.0"
     inkscape:pageshadow="2"
     inkscape:zoom="1.979899"
     inkscape:cx="60.153273"
     inkscape:cy="22.810967"
     inkscape:document-units="px"
     inkscape:current-layer="layer1"
     showgrid="false"
     fit-margin-top="0"
     fit-margin-left="0"
     fit-margin-right="0"
     fit-margin-bottom="0"
     inkscape:window-width="1536"
     inkscape:window-height="801"
     inkscape:window-x="-8"
     inkscape:window-y="-8"
     inkscape:window-maximized="1" />
  <metadata
     id="metadata5129">
    <rdf:RDF>
      <cc:Work
         rdf:about="">
        <dc:format>image/svg+xml</dc:format>
        <dc:type
           rdf:resource="http://purl.org/dc/dcmitype/StillImage" />
        <dc:title></dc:title>
      </cc:Work>
    </rdf:RDF>
  </metadata>
  <g
     inkscape:label="Layer 1"
     inkscape:groupmode="layer"
     id="layer1"
     transform="translate(-390.18675,-63.082152)">
    <g
       id="g4983"
       transform="translate(292.11533,-905.95891)">
      <path
         id="path4902"
         d="m 190.33175,994.99188 -28.89453,1.43164 -15.49805,3.4961 a 31.785715,30.714285 0 0 0 -7.00976,19.22848 31.785715,30.714285 0 0 0 6.59179,18.6954 l 52.86914,-3.625 a 31.785715,30.714285 0 0 0 4.10938,-15.0704 31.785715,30.714285 0 0 0 -12.16797,-24.15622 z"
         style="fill:#ececec;fill-opacity:1;stroke:#000000;stroke-width:1;stroke-miterlimit:4;stroke-dasharray:none;stroke-dashoffset:0;stroke-opacity:1"
         inkscape:connector-curvature="0" />
      <path
         inkscape:connector-curvature="0"
         style="fill:#000000;fill-opacity:1;stroke:#ff0000;stroke-width:2.5999999;stroke-miterlimit:4;stroke-dasharray:2.6, 2.6;stroke-dashoffset:0;stroke-opacity:1"
         d="m 186.63004,1018.1241 a 15.657365,11.237947 0 0 1 -15.65737,11.2379 15.657365,11.237947 0 0 1 -15.65736,-11.2379 15.657365,11.237947 0 0 1 15.65736,-11.238 15.657365,11.237947 0 0 1 15.65737,11.238 z"
         id="path4904" />
      <path
         inkscape:connector-curvature="0"
         id="path4908"
         d="m 134.35464,1004.3607 c 24.91124,-11.83891 62.68664,-12.27108 88.89342,-3.5355"
         style="fill:none;fill-rule:evenodd;stroke:#000000;stroke-width:1px;stroke-linecap:butt;stroke-linejoin:miter;stroke-opacity:1" />
      <path
         inkscape:connector-curvature="0"
         id="path4957"
         d="m 198.70532,1033.6665 c 7.26495,0.6516 33.08513,-24.4114 29.50897,-28.09 -1.59696,-1.6427 -3.31082,-3.1675 -4.96623,-4.7513"
         style="fill:none;fill-rule:evenodd;stroke:#000000;stroke-width:1px;stroke-linecap:butt;stroke-linejoin:miter;stroke-opacity:1" />
      <path
         inkscape:connector-curvature="0"
         id="path4961"
         d="m 145.21777,1037.456 c -13.06543,0.9107 -17.20996,-10.8817 -23.99946,-17.6712"
         style="fill:none;fill-rule:evenodd;stroke:#000000;stroke-width:1px;stroke-linecap:butt;stroke-linejoin:miter;stroke-opacity:1" />
      <path
         inkscape:connector-curvature="0"
         id="path4963"
         d="m 134.35464,1004.3607 c -4.85968,1.788 -13.13635,10.0495 -13.13633,15.4241"
         style="fill:none;fill-rule:evenodd;stroke:#000000;stroke-width:1px;stroke-linecap:butt;stroke-linejoin:miter;stroke-opacity:1" />
      <path
         inkscape:connector-curvature="0"
         id="path4969"
         d="m 121.29858,1018.8283 c 2.45503,-51.18127 88.40532,-40.34072 101.94948,-18.0031"
         style="fill:none;fill-rule:evenodd;stroke:#000000;stroke-width:1px;stroke-linecap:butt;stroke-linejoin:miter;stroke-opacity:1" />
      <path
         inkscape:connector-curvature="0"
         id="path4971"
         d="m 122.04665,1016.4454 c 3.46192,2.2755 2.1643,4.5124 2.08968,6.6755"
         style="fill:none;fill-rule:evenodd;stroke:#000000;stroke-width:1px;stroke-linecap:butt;stroke-linejoin:miter;stroke-opacity:1" />
      <path
         inkscape:connector-curvature="0"
         id="path4973"
         d="m 125.54045,1024.938 c 7.8685,19.329 61.74696,22.0338 78.56669,14.3885"
         style="fill:none;fill-rule:evenodd;stroke:#000000;stroke-width:1px;stroke-linecap:butt;stroke-linejoin:miter;stroke-opacity:1" />
      <path
         inkscape:connector-curvature="0"
         style="fill:none;fill-opacity:1;stroke:#000000;stroke-width:0.85623515;stroke-miterlimit:4;stroke-dasharray:none;stroke-dashoffset:0;stroke-opacity:1"
         d="m 98.499542,969.46918 154.429488,0 0,76.89352 -154.429488,0 z"
         id="rect4981" />
    </g>
    <g
       transform="translate(270.32962,-199.35598)"
       style="font-style:normal;font-weight:normal;font-size:20px;line-height:125%;font-family:sans-serif;letter-spacing:0px;word-spacing:0px;fill:#000000;fill-opacity:1;stroke:none;stroke-width:1px;stroke-linecap:butt;stroke-linejoin:miter;stroke-opacity:1"
       id="flowRoot5007">
      <path
         inkscape:connector-curvature="0"
         d="m 292.9209,296.07764 -3.96973,10.90576 -1.93359,0 -3.96973,-10.90576 1.55274,0 3.42041,9.59473 3.42041,-9.59473 1.47949,0 z"
         style="font-size:15px"
         id="path5049" />
      <path
         inkscape:connector-curvature="0"
         d="m 295.9458,297.43262 -1.55273,0 0,-1.42822 1.55273,0 0,1.42822 z m -0.0879,9.55078 -1.37695,0 0,-8.18115 1.37695,0 0,8.18115 z"
         style="font-size:15px"
         id="path5051" />
      <path
         inkscape:connector-curvature="0"
         d="m 305.38672,303.03565 -6.02783,0 q 0,0.75439 0.22705,1.31836 0.22705,0.55664 0.62256,0.91553 0.38086,0.35156 0.90087,0.52734 0.52735,0.17578 1.15723,0.17578 0.83496,0 1.67725,-0.32959 0.84961,-0.33691 1.20849,-0.65918 l 0.0733,0 0,1.50147 q -0.6958,0.29297 -1.4209,0.49072 -0.7251,0.19775 -1.52344,0.19775 -2.03613,0 -3.17871,-1.09863 -1.14258,-1.10596 -1.14258,-3.13477 0,-2.00683 1.09131,-3.18603 1.09863,-1.1792 2.88574,-1.1792 1.65528,0 2.54883,0.9668 0.90088,0.96679 0.90088,2.74658 l 0,0.74707 z m -1.34033,-1.05469 q -0.007,-1.08398 -0.54932,-1.67724 -0.53467,-0.59327 -1.6333,-0.59327 -1.10596,0 -1.76514,0.65186 -0.65185,0.65186 -0.73974,1.61865 l 4.6875,0 z"
         style="font-size:15px"
         id="path5053" />
      <path
         inkscape:connector-curvature="0"
         d="m 317.76465,298.80225 -2.13135,8.18115 -1.27441,0 -2.10205,-6.30615 -2.08741,6.30615 -1.26709,0 -2.15332,-8.18115 1.43555,0 1.50147,6.33545 2.04345,-6.33545 1.13526,0 2.09472,6.33545 1.4209,-6.33545 1.38428,0 z"
         style="font-size:15px"
         id="path5055" />
      <path
         inkscape:connector-curvature="0"
         d="m 329.4248,296.91993 -0.0732,0 q -0.22705,-0.0659 -0.59326,-0.13184 -0.36621,-0.0732 -0.64453,-0.0732 -0.88623,0 -1.28906,0.39551 -0.39551,0.38818 -0.39551,1.41357 l 0,0.27832 2.48291,0 0,1.15723 -2.43897,0 0,7.02392 -1.37695,0 0,-7.02392 -0.93017,0 0,-1.15723 0.93017,0 0,-0.27099 q 0,-1.45752 0.7251,-2.23389 0.7251,-0.78369 2.09473,-0.78369 0.46142,0 0.82763,0.0439 0.37354,0.0439 0.68115,0.10254 l 0,1.25977 z"
         style="font-size:15px"
         id="path5057" />
      <path
         inkscape:connector-curvature="0"
         d="m 335.40137,300.30372 -0.0732,0 q -0.30761,-0.0732 -0.60058,-0.10254 -0.28565,-0.0366 -0.68115,-0.0366 -0.63721,0 -1.23047,0.28564 -0.59326,0.27832 -1.14258,0.7251 l 0,5.8081 -1.37695,0 0,-8.18115 1.37695,0 0,1.2085 q 0.82031,-0.65918 1.44287,-0.93018 0.62988,-0.27832 1.28174,-0.27832 0.35889,0 0.52002,0.022 0.16113,0.0146 0.4834,0.0659 l 0,1.41358 z"
         style="font-size:15px"
         id="path5059" />
      <path
         inkscape:connector-curvature="0"
         d="m 343.68506,302.89649 q 0,1.99951 -1.02539,3.15674 -1.02539,1.15722 -2.74658,1.15722 -1.73584,0 -2.76123,-1.15722 -1.01807,-1.15723 -1.01807,-3.15674 0,-1.99951 1.01807,-3.15674 1.02539,-1.16455 2.76123,-1.16455 1.72119,0 2.74658,1.16455 1.02539,1.15723 1.02539,3.15674 z m -1.4209,0 q 0,-1.58936 -0.62256,-2.3584 -0.62256,-0.77637 -1.72851,-0.77637 -1.12061,0 -1.74317,0.77637 -0.61523,0.76904 -0.61523,2.3584 0,1.53809 0.62256,2.33643 0.62255,0.79101 1.73584,0.79101 1.09863,0 1.72119,-0.78369 0.62988,-0.79102 0.62988,-2.34375 z"
         style="font-size:15px"
         id="path5061" />
      <path
         inkscape:connector-curvature="0"
         d="m 357.76221,306.9834 -1.37696,0 0,-4.6582 q 0,-0.52734 -0.0513,-1.01807 -0.0439,-0.49072 -0.19775,-0.78369 -0.16846,-0.31494 -0.4834,-0.47607 -0.31494,-0.16113 -0.9082,-0.16113 -0.57861,0 -1.15723,0.29296 -0.57861,0.28565 -1.15722,0.73243 0.022,0.16845 0.0366,0.3955 0.0147,0.21973 0.0147,0.43946 l 0,5.23681 -1.37696,0 0,-4.6582 q 0,-0.54199 -0.0513,-1.02539 -0.0439,-0.49072 -0.19775,-0.78369 -0.16846,-0.31494 -0.4834,-0.46875 -0.31494,-0.16113 -0.9082,-0.16113 -0.56397,0 -1.13526,0.27832 -0.56396,0.27832 -1.12793,0.71045 l 0,6.10839 -1.37695,0 0,-8.18115 1.37695,0 0,0.9082 q 0.64453,-0.53466 1.28174,-0.83496 0.64453,-0.30029 1.36963,-0.30029 0.83496,0 1.41357,0.35156 0.58594,0.35157 0.87159,0.97412 0.83496,-0.70312 1.52343,-1.01074 0.68848,-0.31494 1.47217,-0.31494 1.34766,0 1.98487,0.82031 0.64453,0.81299 0.64453,2.27783 l 0,5.31006 z"
         style="font-size:15px"
         id="path5063" />
      <path
         inkscape:connector-curvature="0"
         d="m 372.53516,303.03565 -6.02784,0 q 0,0.75439 0.22705,1.31836 0.22706,0.55664 0.62256,0.91553 0.38086,0.35156 0.90088,0.52734 0.52735,0.17578 1.15723,0.17578 0.83496,0 1.67725,-0.32959 0.8496,-0.33691 1.20849,-0.65918 l 0.0732,0 0,1.50147 q -0.6958,0.29297 -1.4209,0.49072 -0.72509,0.19775 -1.52343,0.19775 -2.03614,0 -3.17871,-1.09863 -1.14258,-1.10596 -1.14258,-3.13477 0,-2.00683 1.09131,-3.18603 1.09863,-1.1792 2.88574,-1.1792 1.65527,0 2.54883,0.9668 0.90088,0.96679 0.90088,2.74658 l 0,0.74707 z m -1.34034,-1.05469 q -0.007,-1.08398 -0.54931,-1.67724 -0.53467,-0.59327 -1.6333,-0.59327 -1.10596,0 -1.76514,0.65186 -0.65186,0.65186 -0.73975,1.61865 l 4.6875,0 z"
         style="font-size:15px"
         id="path5065" />
      <path
         inkscape:connector-curvature="0"
         d="m 381.69775,298.80225 -4.77539,11.19873 -1.47216,0 1.52343,-3.41308 -3.25927,-7.78565 1.49414,0 2.5122,6.06445 2.53418,-6.06445 1.44287,0 z"
         style="font-size:15px"
         id="path5067" />
      <path
         inkscape:connector-curvature="0"
         d="m 390.23047,303.03565 -6.02783,0 q 0,0.75439 0.22705,1.31836 0.22705,0.55664 0.62256,0.91553 0.38086,0.35156 0.90087,0.52734 0.52735,0.17578 1.15723,0.17578 0.83496,0 1.67725,-0.32959 0.84961,-0.33691 1.20849,-0.65918 l 0.0733,0 0,1.50147 q -0.6958,0.29297 -1.4209,0.49072 -0.7251,0.19775 -1.52344,0.19775 -2.03613,0 -3.17871,-1.09863 -1.14258,-1.10596 -1.14258,-3.13477 0,-2.00683 1.09131,-3.18603 1.09863,-1.1792 2.88574,-1.1792 1.65528,0 2.54883,0.9668 0.90088,0.96679 0.90088,2.74658 l 0,0.74707 z m -1.34033,-1.05469 q -0.007,-1.08398 -0.54932,-1.67724 -0.53467,-0.59327 -1.6333,-0.59327 -1.10596,0 -1.76514,0.65186 -0.65185,0.65186 -0.73974,1.61865 l 4.6875,0 z"
         style="font-size:15px"
         id="path5069" />
      <path
         inkscape:connector-curvature="0"
         d="m 401.83936,306.91016 q -0.38819,0.10254 -0.84961,0.16846 -0.45411,0.0659 -0.81299,0.0659 -1.25244,0 -1.9043,-0.67383 -0.65185,-0.67383 -0.65185,-2.16065 l 0,-4.35058 -0.93018,0 0,-1.15723 0.93018,0 0,-2.35107 1.37695,0 0,2.35107 2.8418,0 0,1.15723 -2.8418,0 0,3.72803 q 0,0.64453 0.0293,1.01074 0.0293,0.35888 0.20507,0.67383 0.16114,0.29296 0.43946,0.43212 0.28564,0.13184 0.86425,0.13184 0.33692,0 0.70313,-0.0952 0.36621,-0.10254 0.52734,-0.16846 l 0.0732,0 0,1.23779 z"
         style="font-size:15px"
         id="path5071" />
      <path
         inkscape:connector-curvature="0"
         d="m 408.61426,300.30372 -0.0732,0 q -0.30762,-0.0732 -0.60059,-0.10254 -0.28564,-0.0366 -0.68115,-0.0366 -0.63721,0 -1.23047,0.28564 -0.59326,0.27832 -1.14258,0.7251 l 0,5.8081 -1.37695,0 0,-8.18115 1.37695,0 0,1.2085 q 0.82031,-0.65918 1.44287,-0.93018 0.62988,-0.27832 1.28174,-0.27832 0.35889,0 0.52002,0.022 0.16113,0.0146 0.4834,0.0659 l 0,1.41358 z"
         style="font-size:15px"
         id="path5073" />
      <path
         inkscape:connector-curvature="0"
         d="m 416.01904,306.9834 -1.36963,0 0,-0.87158 q -0.1831,0.12451 -0.49804,0.35156 -0.30762,0.21973 -0.60059,0.35157 -0.34424,0.16845 -0.79101,0.27832 -0.44678,0.11718 -1.04737,0.11718 -1.10595,0 -1.875,-0.73242 -0.76904,-0.73242 -0.76904,-1.86767 0,-0.93018 0.39551,-1.50147 0.40283,-0.57861 1.14258,-0.9082 0.74707,-0.32959 1.79443,-0.44678 1.04736,-0.11719 2.24853,-0.17578 l 0,-0.2124 q 0,-0.46875 -0.16845,-0.77637 -0.16114,-0.30762 -0.46875,-0.4834 -0.29297,-0.16845 -0.70313,-0.22705 -0.41015,-0.0586 -0.85693,-0.0586 -0.54199,0 -1.2085,0.14648 -0.6665,0.13916 -1.37695,0.41016 l -0.0732,0 0,-1.39893 q 0.40283,-0.10986 1.16455,-0.2417 0.76172,-0.13183 1.50146,-0.13183 0.86426,0 1.50147,0.14648 0.64453,0.13916 1.11328,0.4834 0.46142,0.33691 0.70312,0.87158 0.2417,0.53467 0.2417,1.32569 l 0,5.55175 z m -1.36963,-2.01416 0,-2.27783 q -0.62988,0.0366 -1.48681,0.10986 -0.84961,0.0733 -1.34766,0.21241 -0.59326,0.16845 -0.95947,0.52734 -0.36621,0.35156 -0.36621,0.97412 0,0.70313 0.4248,1.06201 0.42481,0.35157 1.29639,0.35157 0.7251,0 1.32568,-0.27832 0.60059,-0.28565 1.11328,-0.68116 z"
         style="font-size:15px"
         id="path5075" />
      <path
         inkscape:connector-curvature="0"
         d="m 424.73486,306.47071 q -0.68847,0.32959 -1.31103,0.51269 -0.61524,0.18311 -1.31104,0.18311 -0.88623,0 -1.62597,-0.25635 -0.73975,-0.26367 -1.26709,-0.79101 -0.53467,-0.52735 -0.82764,-1.33301 -0.29297,-0.80567 -0.29297,-1.88233 0,-2.00683 1.09863,-3.14941 1.10596,-1.14258 2.91504,-1.14258 0.70313,0 1.37696,0.19776 0.68115,0.19775 1.24511,0.48339 l 0,1.53077 -0.0732,0 q -0.62988,-0.49073 -1.30371,-0.7544 -0.6665,-0.26367 -1.30371,-0.26367 -1.17188,0 -1.85303,0.79101 -0.67383,0.7837 -0.67383,2.30713 0,1.4795 0.65918,2.27784 0.66651,0.79101 1.86768,0.79101 0.41748,0 0.84961,-0.10986 0.43213,-0.10987 0.77637,-0.28565 0.30029,-0.15381 0.56396,-0.32226 0.26367,-0.17578 0.41748,-0.3003 l 0.0732,0 0,1.51612 z"
         style="font-size:15px"
         id="path5077" />
      <path
         inkscape:connector-curvature="0"
         d="m 433.93408,306.9834 -1.8164,0 -3.28125,-3.58154 -0.89356,0.84961 0,2.73193 -1.37695,0 0,-11.39648 1.37695,0 0,7.30957 3.97705,-4.09424 1.73584,0 -3.80127,3.7793 4.07959,4.40185 z"
         style="font-size:15px"
         id="path5079" />
      <path
         inkscape:connector-curvature="0"
         d="m 442.08594,303.03565 -6.02783,0 q 0,0.75439 0.22705,1.31836 0.22705,0.55664 0.62255,0.91553 0.38086,0.35156 0.90088,0.52734 0.52735,0.17578 1.15723,0.17578 0.83496,0 1.67725,-0.32959 0.84961,-0.33691 1.20849,-0.65918 l 0.0732,0 0,1.50147 q -0.6958,0.29297 -1.42089,0.49072 -0.7251,0.19775 -1.52344,0.19775 -2.03613,0 -3.17871,-1.09863 -1.14258,-1.10596 -1.14258,-3.13477 0,-2.00683 1.09131,-3.18603 1.09863,-1.1792 2.88574,-1.1792 1.65527,0 2.54883,0.9668 0.90088,0.96679 0.90088,2.74658 l 0,0.74707 z m -1.34033,-1.05469 q -0.007,-1.08398 -0.54932,-1.67724 -0.53467,-0.59327 -1.6333,-0.59327 -1.10596,0 -1.76514,0.65186 -0.65185,0.65186 -0.73974,1.61865 l 4.6875,0 z"
         style="font-size:15px"
         id="path5081" />
      <path
         inkscape:connector-curvature="0"
         d="m 449.27832,300.30372 -0.0732,0 q -0.30762,-0.0732 -0.60059,-0.10254 -0.28564,-0.0366 -0.68115,-0.0366 -0.63721,0 -1.23047,0.28564 -0.59326,0.27832 -1.14258,0.7251 l 0,5.8081 -1.37695,0 0,-8.18115 1.37695,0 0,1.2085 q 0.82032,-0.65918 1.44287,-0.93018 0.62989,-0.27832 1.28174,-0.27832 0.35889,0 0.52002,0.022 0.16113,0.0146 0.4834,0.0659 l 0,1.41358 z"
         style="font-size:15px"
         id="path5083" />
    </g>
    <circle
       style="fill:#ff0000;fill-opacity:1;stroke:#ff0000;stroke-width:2.5999999;stroke-miterlimit:4;stroke-dasharray:none;stroke-dashoffset:0;stroke-opacity:1"
       id="path5738"
       cx="463.01324"
       cy="112.94412"
       r="2.3214285" />
  </g>
</svg>
