<?xml version="1.0" encoding="UTF-8" standalone="no"?>
<!-- Created with Inkscape (http://www.inkscape.org/) -->

<svg
   xmlns:dc="http://purl.org/dc/elements/1.1/"
   xmlns:cc="http://creativecommons.org/ns#"
   xmlns:rdf="http://www.w3.org/1999/02/22-rdf-syntax-ns#"
   xmlns:svg="http://www.w3.org/2000/svg"
   xmlns="http://www.w3.org/2000/svg"
   xmlns:sodipodi="http://sodipodi.sourceforge.net/DTD/sodipodi-0.dtd"
   xmlns:inkscape="http://www.inkscape.org/namespaces/inkscape"
   width="125.62714mm"
   height="107.86629mm"
   viewBox="0 0 445.13554 382.20339"
   id="svg5124"
   version="1.1"
   inkscape:version="0.91 r13725"
   sodipodi:docname="ET_5_glint.svg">
  <defs
     id="defs5126" />
  <sodipodi:namedview
     id="base"
     pagecolor="#ffffff"
     bordercolor="#666666"
     borderopacity="1.0"
     inkscape:pageopacity="0.0"
     inkscape:pageshadow="2"
     inkscape:zoom="0.98994949"
     inkscape:cx="91.735851"
     inkscape:cy="179.13088"
     inkscape:document-units="px"
     inkscape:current-layer="layer1"
     showgrid="false"
     fit-margin-top="0"
     fit-margin-left="0"
     fit-margin-right="0"
     fit-margin-bottom="0"
     inkscape:window-width="1536"
     inkscape:window-height="801"
     inkscape:window-x="-8"
     inkscape:window-y="-8"
     inkscape:window-maximized="1" />
  <metadata
     id="metadata5129">
    <rdf:RDF>
      <cc:Work
         rdf:about="">
        <dc:format>image/svg+xml</dc:format>
        <dc:type
           rdf:resource="http://purl.org/dc/dcmitype/StillImage" />
        <dc:title></dc:title>
      </cc:Work>
    </rdf:RDF>
  </metadata>
  <g
     inkscape:label="Layer 1"
     inkscape:groupmode="layer"
     id="layer1"
     transform="translate(-274.47246,-63.082159)">
    <path
       inkscape:connector-curvature="0"
       style="fill:#ececec;fill-opacity:1;stroke:#000000;stroke-width:1.35126543;stroke-miterlimit:4;stroke-dasharray:none;stroke-dashoffset:0;stroke-opacity:1"
       d="m 399.14065,98.148601 -39.04418,1.934529 -20.94198,4.72416 a 42.950937,41.503151 0 0 0 -9.47205,25.98278 42.950937,41.503151 0 0 0 8.90726,25.26244 l 71.44024,-4.89833 a 42.950937,41.503151 0 0 0 5.55287,-20.36411 42.950937,41.503151 0 0 0 -16.44216,-32.641469 z"
       id="path4902" />
    <path
       id="path4904"
       d="m 394.13866,129.40637 a 21.157256,15.185449 0 0 1 -21.15727,15.18538 21.157256,15.185449 0 0 1 -21.15725,-15.18538 21.157256,15.185449 0 0 1 21.15725,-15.18552 21.157256,15.185449 0 0 1 21.15727,15.18552 z"
       style="fill:#000000;fill-opacity:1;stroke:#000000;stroke-width:3.51328993;stroke-miterlimit:4;stroke-dasharray:none;stroke-dashoffset:0;stroke-opacity:1"
       inkscape:connector-curvature="0" />
    <path
       style="fill:none;fill-rule:evenodd;stroke:#000000;stroke-width:1.35126543px;stroke-linecap:butt;stroke-linejoin:miter;stroke-opacity:1"
       d="m 323.50072,110.80836 c 33.66169,-15.997506 84.70628,-16.581483 120.1186,-4.7774"
       id="path4908"
       inkscape:connector-curvature="0" />
    <path
       style="fill:none;fill-rule:evenodd;stroke:#000000;stroke-width:1.35126543px;stroke-linecap:butt;stroke-linejoin:miter;stroke-opacity:1"
       d="m 410.45556,150.40828 c 9.81688,0.88048 44.7068,-32.98628 39.87445,-37.95705 -2.15791,-2.21972 -4.47379,-4.28013 -6.71069,-6.42027"
       id="path4957"
       inkscape:connector-curvature="0" />
    <path
       style="fill:none;fill-rule:evenodd;stroke:#000000;stroke-width:1.35126543px;stroke-linecap:butt;stroke-linejoin:miter;stroke-opacity:1"
       d="m 338.17969,155.5289 c -17.65487,1.23059 -23.25523,-14.70407 -32.42964,-23.87848"
       id="path4961"
       inkscape:connector-curvature="0" />
    <path
       style="fill:none;fill-rule:evenodd;stroke:#000000;stroke-width:1.35126543px;stroke-linecap:butt;stroke-linejoin:miter;stroke-opacity:1"
       d="m 323.50072,110.80836 c -6.56672,2.41607 -17.7507,13.57954 -17.75067,20.84206"
       id="path4963"
       inkscape:connector-curvature="0" />
    <path
       style="fill:none;fill-rule:evenodd;stroke:#000000;stroke-width:1.35126543px;stroke-linecap:butt;stroke-linejoin:miter;stroke-opacity:1"
       d="m 305.85851,130.35793 c 3.3174,-69.159479 119.45905,-54.511019 137.76081,-24.32697"
       id="path4969"
       inkscape:connector-curvature="0" />
    <path
       style="fill:none;fill-rule:evenodd;stroke:#000000;stroke-width:1.35126543px;stroke-linecap:butt;stroke-linejoin:miter;stroke-opacity:1"
       d="m 306.86936,127.138 c 4.67797,3.0748 2.92454,6.09745 2.82371,9.02037"
       id="path4971"
       inkscape:connector-curvature="0" />
    <path
       style="fill:none;fill-rule:evenodd;stroke:#000000;stroke-width:1.35126543px;stroke-linecap:butt;stroke-linejoin:miter;stroke-opacity:1"
       d="m 311.59041,138.61376 c 10.63243,26.11861 83.43653,29.77351 106.16445,19.44268"
       id="path4973"
       inkscape:connector-curvature="0" />
    <path
       id="rect4981"
       d="m 275.05096,63.660659 208.67523,0 0,103.903551 -208.67523,0 z"
       style="fill:none;fill-opacity:1;stroke:#000000;stroke-width:1.1570009;stroke-miterlimit:4;stroke-dasharray:none;stroke-dashoffset:0;stroke-opacity:1"
       inkscape:connector-curvature="0" />
    <path
       style="fill:#ffffff;fill-opacity:1;stroke:#0000ff;stroke-width:1.02175808;stroke-miterlimit:4;stroke-dasharray:none;stroke-dashoffset:0;stroke-opacity:1"
       d="m 353.18911,115.26318 a 5.4186907,5.1606574 0 0 1 -5.41869,5.16066 5.4186907,5.1606574 0 0 1 -5.41869,-5.16066 5.4186907,5.1606574 0 0 1 5.41869,-5.16065 5.4186907,5.1606574 0 0 1 5.41869,5.16065 z"
       id="path5740" />
    <path
       inkscape:connector-curvature="0"
       id="path5742"
       d="M 344.69294,111.09429 302.23677,81.749414"
       style="fill:none;fill-rule:evenodd;stroke:#0000ff;stroke-width:0.92857784px;stroke-linecap:butt;stroke-linejoin:miter;stroke-opacity:1" />
    <g
       style="font-style:normal;font-weight:normal;font-size:19.99999809px;line-height:125%;font-family:sans-serif;letter-spacing:0px;word-spacing:0px;fill:#000000;fill-opacity:1;stroke:none;stroke-width:1px;stroke-linecap:butt;stroke-linejoin:miter;stroke-opacity:1"
       id="flowRoot5744">
      <path
         d="m 286.50439,78.678227 q 0,2.080078 -0.94482,3.054199 -0.94482,0.974121 -2.90771,0.974121 -0.65186,0 -1.27442,-0.09521 -0.61523,-0.08789 -1.21582,-0.256348 l 0,-1.40625 0.0732,0 q 0.33692,0.131836 1.06934,0.322266 0.73242,0.197754 1.46484,0.197754 0.70313,0 1.16455,-0.168457 0.46143,-0.168457 0.71778,-0.46875 0.25634,-0.285645 0.36621,-0.688477 0.10986,-0.402832 0.10986,-0.900878 l 0,-0.747071 q -0.62256,0.498047 -1.19385,0.747071 -0.56396,0.241699 -1.44287,0.241699 -1.46484,0 -2.3291,-1.054688 -0.85693,-1.062011 -0.85693,-2.988281 0,-1.054687 0.29297,-1.816406 0.30029,-0.769043 0.81298,-1.325683 0.47608,-0.52002 1.15723,-0.805664 0.68115,-0.292969 1.35498,-0.292969 0.71045,0 1.18652,0.146484 0.4834,0.13916 1.01807,0.432129 l 0.0879,-0.351562 1.28906,0 0,7.250976 z m -1.37695,-1.318359 0,-4.460449 q -0.54932,-0.249024 -1.02539,-0.351563 -0.46875,-0.109863 -0.9375,-0.109863 -1.13525,0 -1.78711,0.761719 -0.65185,0.761718 -0.65185,2.211913 0,1.376954 0.48339,2.087403 0.4834,0.710449 1.60401,0.710449 0.60058,0 1.20117,-0.227051 0.60791,-0.234375 1.11328,-0.622558 z"
         style="font-size:14.99999905px;fill:#0000ff"
         id="path5936" />
      <path
         d="m 290.60596,79.608403 -1.37696,0 0,-11.396484 1.37696,0 0,11.396484 z"
         style="font-size:14.99999905px;fill:#0000ff"
         id="path5938" />
      <path
         d="m 294.76611,70.057622 -1.55273,0 0,-1.428223 1.55273,0 0,1.428223 z m -0.0879,9.550781 -1.37695,0 0,-8.181152 1.37695,0 0,8.181152 z"
         style="font-size:14.99999905px;fill:#0000ff"
         id="path5940" />
      <path
         d="m 304.1997,79.608403 -1.37695,0 0,-4.658203 q 0,-0.563965 -0.0659,-1.054688 -0.0659,-0.498047 -0.2417,-0.776367 -0.1831,-0.307617 -0.52734,-0.454101 -0.34424,-0.153809 -0.89355,-0.153809 -0.56397,0 -1.1792,0.27832 -0.61524,0.278321 -1.1792,0.71045 l 0,6.108398 -1.37696,0 0,-8.181152 1.37696,0 0,0.908203 q 0.64453,-0.534668 1.33301,-0.834961 0.68847,-0.300293 1.41357,-0.300293 1.32568,0 2.02148,0.79834 0.6958,0.79834 0.6958,2.299804 l 0,5.310059 z"
         style="font-size:14.99999905px;fill:#0000ff"
         id="path5942" />
      <path
         d="m 311.09912,79.53516 q -0.38819,0.102539 -0.84961,0.168457 -0.4541,0.06592 -0.81299,0.06592 -1.25244,0 -1.9043,-0.673828 -0.65185,-0.673828 -0.65185,-2.160644 l 0,-4.350586 -0.93018,0 0,-1.157226 0.93018,0 0,-2.351074 1.37695,0 0,2.351074 2.8418,0 0,1.157226 -2.8418,0 0,3.728027 q 0,0.644532 0.0293,1.010742 0.0293,0.358887 0.20508,0.673829 0.16113,0.292968 0.43945,0.432128 0.28564,0.131836 0.86426,0.131836 0.33691,0 0.70312,-0.09521 0.36621,-0.102539 0.52734,-0.168457 l 0.0733,0 0,1.237793 z"
         style="font-size:14.99999905px;fill:#0000ff"
         id="path5944" />
    </g>
    <path
       id="path5752"
       d="m 428.78351,240.70267 -39.04418,1.93447 -20.94198,4.72416 a 42.950937,41.503151 0 0 0 -9.47205,25.98281 42.950937,41.503151 0 0 0 8.90726,25.26244 l 71.44024,-4.89833 a 42.950937,41.503151 0 0 0 5.55286,-20.36411 42.950937,41.503151 0 0 0 -16.44215,-32.64144 z"
       style="fill:#ececec;fill-opacity:1;stroke:#000000;stroke-width:1.35126543;stroke-miterlimit:4;stroke-dasharray:none;stroke-dashoffset:0;stroke-opacity:1"
       inkscape:connector-curvature="0" />
    <path
       inkscape:connector-curvature="0"
       style="fill:#000000;fill-opacity:1;stroke:#000000;stroke-width:3.51328993;stroke-miterlimit:4;stroke-dasharray:none;stroke-dashoffset:0;stroke-opacity:1"
       d="m 423.78151,271.96041 a 21.157256,15.185449 0 0 1 -21.15726,15.18539 21.157256,15.185449 0 0 1 -21.15725,-15.18539 21.157256,15.185449 0 0 1 21.15725,-15.18552 21.157256,15.185449 0 0 1 21.15726,15.18552 z"
       id="path5754" />
    <path
       inkscape:connector-curvature="0"
       id="path5756"
       d="m 353.14357,253.3624 c 33.6617,-15.99749 84.70629,-16.58151 120.11861,-4.7774"
       style="fill:none;fill-rule:evenodd;stroke:#000000;stroke-width:1.35126543px;stroke-linecap:butt;stroke-linejoin:miter;stroke-opacity:1" />
    <path
       inkscape:connector-curvature="0"
       id="path5758"
       d="m 440.09842,292.96232 c 9.81688,0.88048 44.70679,-32.98628 39.87445,-37.95705 -2.15792,-2.21972 -4.47379,-4.28013 -6.71069,-6.42027"
       style="fill:none;fill-rule:evenodd;stroke:#000000;stroke-width:1.35126543px;stroke-linecap:butt;stroke-linejoin:miter;stroke-opacity:1" />
    <path
       inkscape:connector-curvature="0"
       id="path5760"
       d="m 367.82255,298.08294 c -17.65487,1.23059 -23.25523,-14.70407 -32.42964,-23.87848"
       style="fill:none;fill-rule:evenodd;stroke:#000000;stroke-width:1.35126543px;stroke-linecap:butt;stroke-linejoin:miter;stroke-opacity:1" />
    <path
       inkscape:connector-curvature="0"
       id="path5762"
       d="m 353.14357,253.3624 c -6.56671,2.41607 -17.75069,13.57955 -17.75066,20.84206"
       style="fill:none;fill-rule:evenodd;stroke:#000000;stroke-width:1.35126543px;stroke-linecap:butt;stroke-linejoin:miter;stroke-opacity:1" />
    <path
       inkscape:connector-curvature="0"
       id="path5764"
       d="m 335.50137,272.91197 c 3.3174,-69.15952 119.45905,-54.51099 137.76081,-24.32697"
       style="fill:none;fill-rule:evenodd;stroke:#000000;stroke-width:1.35126543px;stroke-linecap:butt;stroke-linejoin:miter;stroke-opacity:1" />
    <path
       inkscape:connector-curvature="0"
       id="path5766"
       d="m 336.51221,269.69204 c 4.67798,3.0748 2.92455,6.09745 2.82372,9.02037"
       style="fill:none;fill-rule:evenodd;stroke:#000000;stroke-width:1.35126543px;stroke-linecap:butt;stroke-linejoin:miter;stroke-opacity:1" />
    <path
       inkscape:connector-curvature="0"
       id="path5768"
       d="m 341.23326,281.1678 c 10.63244,26.11861 83.43653,29.77351 106.16445,19.44268"
       style="fill:none;fill-rule:evenodd;stroke:#000000;stroke-width:1.35126543px;stroke-linecap:butt;stroke-linejoin:miter;stroke-opacity:1" />
    <path
       inkscape:connector-curvature="0"
       style="fill:none;fill-opacity:1;stroke:#000000;stroke-width:1.1570009;stroke-miterlimit:4;stroke-dasharray:none;stroke-dashoffset:0;stroke-opacity:1"
       d="m 275.05096,204.07189 208.67523,0 0,103.90353 -208.67523,0 z"
       id="path5770" />
    <path
       style="fill:#ffffff;fill-opacity:1;stroke:#0000ff;stroke-width:1.02175808;stroke-miterlimit:4;stroke-dasharray:none;stroke-dashoffset:0;stroke-opacity:1"
       d="m 382.83196,257.81723 a 5.4186907,5.1606574 0 0 1 -5.41869,5.16066 5.4186907,5.1606574 0 0 1 -5.41869,-5.16066 5.4186907,5.1606574 0 0 1 5.41869,-5.16066 5.4186907,5.1606574 0 0 1 5.41869,5.16066 z"
       id="ellipse5772" />
    <g
       id="g5913">
      <path
         style="fill:none;fill-rule:evenodd;stroke:#000000;stroke-width:2.99999952;stroke-linecap:butt;stroke-linejoin:miter;stroke-miterlimit:4;stroke-dasharray:none;stroke-opacity:1"
         d="m 301.97246,213.85694 62.14285,10.35718"
         id="path5828"
         inkscape:connector-curvature="0" />
      <path
         style="fill:none;fill-rule:evenodd;stroke:#000000;stroke-width:2.99999952;stroke-linecap:butt;stroke-linejoin:miter;stroke-miterlimit:4;stroke-dasharray:none;stroke-opacity:1"
         d="m 363.75817,223.32134 -13.03571,-7.50006"
         id="path5830"
         inkscape:connector-curvature="0" />
      <path
         style="fill:none;fill-rule:evenodd;stroke:#000000;stroke-width:2.99999952;stroke-linecap:butt;stroke-linejoin:miter;stroke-miterlimit:4;stroke-dasharray:none;stroke-opacity:1"
         d="m 363.75817,223.85698 -16.24999,4.28568"
         id="path5832"
         inkscape:connector-curvature="0" />
    </g>
    <path
       style="fill:#ff0000;fill-opacity:1;stroke:#ff0000;stroke-width:3.51328993;stroke-miterlimit:4;stroke-dasharray:none;stroke-dashoffset:0;stroke-opacity:1"
       d="m 405.40759,272.76038 a 3.1368661,3.1368661 0 0 1 -3.13687,3.13686 3.1368661,3.1368661 0 0 1 -3.13686,-3.13686 3.1368661,3.1368661 0 0 1 3.13686,-3.13687 3.1368661,3.1368661 0 0 1 3.13687,3.13687 z"
       id="circle5822" />
    <path
       inkscape:connector-curvature="0"
       id="path5834"
       d="m 378.02075,257.55538 24.4715,14.90581"
       style="fill:none;fill-rule:evenodd;stroke:#00ff00;stroke-width:2.4138;stroke-linecap:butt;stroke-linejoin:miter;stroke-miterlimit:4;stroke-dasharray:none;stroke-opacity:1" />
    <g
       transform="matrix(1.3512654,0,0,1.3512654,112.51367,-291.54142)"
       style="font-style:normal;font-weight:normal;font-size:20px;line-height:125%;font-family:sans-serif;letter-spacing:0px;word-spacing:0px;fill:#000000;fill-opacity:1;stroke:none;stroke-width:1px;stroke-linecap:butt;stroke-linejoin:miter;stroke-opacity:1"
       id="flowRoot5007">
      <path
         inkscape:connector-curvature="0"
         d="m 292.9209,296.07764 -3.96973,10.90576 -1.93359,0 -3.96973,-10.90576 1.55274,0 3.42041,9.59473 3.42041,-9.59473 1.47949,0 z"
         style="font-size:15px"
         id="path5049" />
      <path
         inkscape:connector-curvature="0"
         d="m 295.9458,297.43262 -1.55273,0 0,-1.42822 1.55273,0 0,1.42822 z m -0.0879,9.55078 -1.37695,0 0,-8.18115 1.37695,0 0,8.18115 z"
         style="font-size:15px"
         id="path5051" />
      <path
         inkscape:connector-curvature="0"
         d="m 305.38672,303.03565 -6.02783,0 q 0,0.75439 0.22705,1.31836 0.22705,0.55664 0.62256,0.91553 0.38086,0.35156 0.90087,0.52734 0.52735,0.17578 1.15723,0.17578 0.83496,0 1.67725,-0.32959 0.84961,-0.33691 1.20849,-0.65918 l 0.0733,0 0,1.50147 q -0.6958,0.29297 -1.4209,0.49072 -0.7251,0.19775 -1.52344,0.19775 -2.03613,0 -3.17871,-1.09863 -1.14258,-1.10596 -1.14258,-3.13477 0,-2.00683 1.09131,-3.18603 1.09863,-1.1792 2.88574,-1.1792 1.65528,0 2.54883,0.9668 0.90088,0.96679 0.90088,2.74658 l 0,0.74707 z m -1.34033,-1.05469 q -0.007,-1.08398 -0.54932,-1.67724 -0.53467,-0.59327 -1.6333,-0.59327 -1.10596,0 -1.76514,0.65186 -0.65185,0.65186 -0.73974,1.61865 l 4.6875,0 z"
         style="font-size:15px"
         id="path5053" />
      <path
         inkscape:connector-curvature="0"
         d="m 317.76465,298.80225 -2.13135,8.18115 -1.27441,0 -2.10205,-6.30615 -2.08741,6.30615 -1.26709,0 -2.15332,-8.18115 1.43555,0 1.50147,6.33545 2.04345,-6.33545 1.13526,0 2.09472,6.33545 1.4209,-6.33545 1.38428,0 z"
         style="font-size:15px"
         id="path5055" />
      <path
         inkscape:connector-curvature="0"
         d="m 329.4248,296.91993 -0.0732,0 q -0.22705,-0.0659 -0.59326,-0.13184 -0.36621,-0.0732 -0.64453,-0.0732 -0.88623,0 -1.28906,0.39551 -0.39551,0.38818 -0.39551,1.41357 l 0,0.27832 2.48291,0 0,1.15723 -2.43897,0 0,7.02392 -1.37695,0 0,-7.02392 -0.93017,0 0,-1.15723 0.93017,0 0,-0.27099 q 0,-1.45752 0.7251,-2.23389 0.7251,-0.78369 2.09473,-0.78369 0.46142,0 0.82763,0.0439 0.37354,0.0439 0.68115,0.10254 l 0,1.25977 z"
         style="font-size:15px"
         id="path5057" />
      <path
         inkscape:connector-curvature="0"
         d="m 335.40137,300.30372 -0.0732,0 q -0.30761,-0.0732 -0.60058,-0.10254 -0.28565,-0.0366 -0.68115,-0.0366 -0.63721,0 -1.23047,0.28564 -0.59326,0.27832 -1.14258,0.7251 l 0,5.8081 -1.37695,0 0,-8.18115 1.37695,0 0,1.2085 q 0.82031,-0.65918 1.44287,-0.93018 0.62988,-0.27832 1.28174,-0.27832 0.35889,0 0.52002,0.022 0.16113,0.0146 0.4834,0.0659 l 0,1.41358 z"
         style="font-size:15px"
         id="path5059" />
      <path
         inkscape:connector-curvature="0"
         d="m 343.68506,302.89649 q 0,1.99951 -1.02539,3.15674 -1.02539,1.15722 -2.74658,1.15722 -1.73584,0 -2.76123,-1.15722 -1.01807,-1.15723 -1.01807,-3.15674 0,-1.99951 1.01807,-3.15674 1.02539,-1.16455 2.76123,-1.16455 1.72119,0 2.74658,1.16455 1.02539,1.15723 1.02539,3.15674 z m -1.4209,0 q 0,-1.58936 -0.62256,-2.3584 -0.62256,-0.77637 -1.72851,-0.77637 -1.12061,0 -1.74317,0.77637 -0.61523,0.76904 -0.61523,2.3584 0,1.53809 0.62256,2.33643 0.62255,0.79101 1.73584,0.79101 1.09863,0 1.72119,-0.78369 0.62988,-0.79102 0.62988,-2.34375 z"
         style="font-size:15px"
         id="path5061" />
      <path
         inkscape:connector-curvature="0"
         d="m 357.76221,306.9834 -1.37696,0 0,-4.6582 q 0,-0.52734 -0.0513,-1.01807 -0.0439,-0.49072 -0.19775,-0.78369 -0.16846,-0.31494 -0.4834,-0.47607 -0.31494,-0.16113 -0.9082,-0.16113 -0.57861,0 -1.15723,0.29296 -0.57861,0.28565 -1.15722,0.73243 0.022,0.16845 0.0366,0.3955 0.0147,0.21973 0.0147,0.43946 l 0,5.23681 -1.37696,0 0,-4.6582 q 0,-0.54199 -0.0513,-1.02539 -0.0439,-0.49072 -0.19775,-0.78369 -0.16846,-0.31494 -0.4834,-0.46875 -0.31494,-0.16113 -0.9082,-0.16113 -0.56397,0 -1.13526,0.27832 -0.56396,0.27832 -1.12793,0.71045 l 0,6.10839 -1.37695,0 0,-8.18115 1.37695,0 0,0.9082 q 0.64453,-0.53466 1.28174,-0.83496 0.64453,-0.30029 1.36963,-0.30029 0.83496,0 1.41357,0.35156 0.58594,0.35157 0.87159,0.97412 0.83496,-0.70312 1.52343,-1.01074 0.68848,-0.31494 1.47217,-0.31494 1.34766,0 1.98487,0.82031 0.64453,0.81299 0.64453,2.27783 l 0,5.31006 z"
         style="font-size:15px"
         id="path5063" />
      <path
         inkscape:connector-curvature="0"
         d="m 372.53516,303.03565 -6.02784,0 q 0,0.75439 0.22705,1.31836 0.22706,0.55664 0.62256,0.91553 0.38086,0.35156 0.90088,0.52734 0.52735,0.17578 1.15723,0.17578 0.83496,0 1.67725,-0.32959 0.8496,-0.33691 1.20849,-0.65918 l 0.0732,0 0,1.50147 q -0.6958,0.29297 -1.4209,0.49072 -0.72509,0.19775 -1.52343,0.19775 -2.03614,0 -3.17871,-1.09863 -1.14258,-1.10596 -1.14258,-3.13477 0,-2.00683 1.09131,-3.18603 1.09863,-1.1792 2.88574,-1.1792 1.65527,0 2.54883,0.9668 0.90088,0.96679 0.90088,2.74658 l 0,0.74707 z m -1.34034,-1.05469 q -0.007,-1.08398 -0.54931,-1.67724 -0.53467,-0.59327 -1.6333,-0.59327 -1.10596,0 -1.76514,0.65186 -0.65186,0.65186 -0.73975,1.61865 l 4.6875,0 z"
         style="font-size:15px"
         id="path5065" />
      <path
         inkscape:connector-curvature="0"
         d="m 381.69775,298.80225 -4.77539,11.19873 -1.47216,0 1.52343,-3.41308 -3.25927,-7.78565 1.49414,0 2.5122,6.06445 2.53418,-6.06445 1.44287,0 z"
         style="font-size:15px"
         id="path5067" />
      <path
         inkscape:connector-curvature="0"
         d="m 390.23047,303.03565 -6.02783,0 q 0,0.75439 0.22705,1.31836 0.22705,0.55664 0.62256,0.91553 0.38086,0.35156 0.90087,0.52734 0.52735,0.17578 1.15723,0.17578 0.83496,0 1.67725,-0.32959 0.84961,-0.33691 1.20849,-0.65918 l 0.0733,0 0,1.50147 q -0.6958,0.29297 -1.4209,0.49072 -0.7251,0.19775 -1.52344,0.19775 -2.03613,0 -3.17871,-1.09863 -1.14258,-1.10596 -1.14258,-3.13477 0,-2.00683 1.09131,-3.18603 1.09863,-1.1792 2.88574,-1.1792 1.65528,0 2.54883,0.9668 0.90088,0.96679 0.90088,2.74658 l 0,0.74707 z m -1.34033,-1.05469 q -0.007,-1.08398 -0.54932,-1.67724 -0.53467,-0.59327 -1.6333,-0.59327 -1.10596,0 -1.76514,0.65186 -0.65185,0.65186 -0.73974,1.61865 l 4.6875,0 z"
         style="font-size:15px"
         id="path5069" />
      <path
         inkscape:connector-curvature="0"
         d="m 401.83936,306.91016 q -0.38819,0.10254 -0.84961,0.16846 -0.45411,0.0659 -0.81299,0.0659 -1.25244,0 -1.9043,-0.67383 -0.65185,-0.67383 -0.65185,-2.16065 l 0,-4.35058 -0.93018,0 0,-1.15723 0.93018,0 0,-2.35107 1.37695,0 0,2.35107 2.8418,0 0,1.15723 -2.8418,0 0,3.72803 q 0,0.64453 0.0293,1.01074 0.0293,0.35888 0.20507,0.67383 0.16114,0.29296 0.43946,0.43212 0.28564,0.13184 0.86425,0.13184 0.33692,0 0.70313,-0.0952 0.36621,-0.10254 0.52734,-0.16846 l 0.0732,0 0,1.23779 z"
         style="font-size:15px"
         id="path5071" />
      <path
         inkscape:connector-curvature="0"
         d="m 408.61426,300.30372 -0.0732,0 q -0.30762,-0.0732 -0.60059,-0.10254 -0.28564,-0.0366 -0.68115,-0.0366 -0.63721,0 -1.23047,0.28564 -0.59326,0.27832 -1.14258,0.7251 l 0,5.8081 -1.37695,0 0,-8.18115 1.37695,0 0,1.2085 q 0.82031,-0.65918 1.44287,-0.93018 0.62988,-0.27832 1.28174,-0.27832 0.35889,0 0.52002,0.022 0.16113,0.0146 0.4834,0.0659 l 0,1.41358 z"
         style="font-size:15px"
         id="path5073" />
      <path
         inkscape:connector-curvature="0"
         d="m 416.01904,306.9834 -1.36963,0 0,-0.87158 q -0.1831,0.12451 -0.49804,0.35156 -0.30762,0.21973 -0.60059,0.35157 -0.34424,0.16845 -0.79101,0.27832 -0.44678,0.11718 -1.04737,0.11718 -1.10595,0 -1.875,-0.73242 -0.76904,-0.73242 -0.76904,-1.86767 0,-0.93018 0.39551,-1.50147 0.40283,-0.57861 1.14258,-0.9082 0.74707,-0.32959 1.79443,-0.44678 1.04736,-0.11719 2.24853,-0.17578 l 0,-0.2124 q 0,-0.46875 -0.16845,-0.77637 -0.16114,-0.30762 -0.46875,-0.4834 -0.29297,-0.16845 -0.70313,-0.22705 -0.41015,-0.0586 -0.85693,-0.0586 -0.54199,0 -1.2085,0.14648 -0.6665,0.13916 -1.37695,0.41016 l -0.0732,0 0,-1.39893 q 0.40283,-0.10986 1.16455,-0.2417 0.76172,-0.13183 1.50146,-0.13183 0.86426,0 1.50147,0.14648 0.64453,0.13916 1.11328,0.4834 0.46142,0.33691 0.70312,0.87158 0.2417,0.53467 0.2417,1.32569 l 0,5.55175 z m -1.36963,-2.01416 0,-2.27783 q -0.62988,0.0366 -1.48681,0.10986 -0.84961,0.0733 -1.34766,0.21241 -0.59326,0.16845 -0.95947,0.52734 -0.36621,0.35156 -0.36621,0.97412 0,0.70313 0.4248,1.06201 0.42481,0.35157 1.29639,0.35157 0.7251,0 1.32568,-0.27832 0.60059,-0.28565 1.11328,-0.68116 z"
         style="font-size:15px"
         id="path5075" />
      <path
         inkscape:connector-curvature="0"
         d="m 424.73486,306.47071 q -0.68847,0.32959 -1.31103,0.51269 -0.61524,0.18311 -1.31104,0.18311 -0.88623,0 -1.62597,-0.25635 -0.73975,-0.26367 -1.26709,-0.79101 -0.53467,-0.52735 -0.82764,-1.33301 -0.29297,-0.80567 -0.29297,-1.88233 0,-2.00683 1.09863,-3.14941 1.10596,-1.14258 2.91504,-1.14258 0.70313,0 1.37696,0.19776 0.68115,0.19775 1.24511,0.48339 l 0,1.53077 -0.0732,0 q -0.62988,-0.49073 -1.30371,-0.7544 -0.6665,-0.26367 -1.30371,-0.26367 -1.17188,0 -1.85303,0.79101 -0.67383,0.7837 -0.67383,2.30713 0,1.4795 0.65918,2.27784 0.66651,0.79101 1.86768,0.79101 0.41748,0 0.84961,-0.10986 0.43213,-0.10987 0.77637,-0.28565 0.30029,-0.15381 0.56396,-0.32226 0.26367,-0.17578 0.41748,-0.3003 l 0.0732,0 0,1.51612 z"
         style="font-size:15px"
         id="path5077" />
      <path
         inkscape:connector-curvature="0"
         d="m 433.93408,306.9834 -1.8164,0 -3.28125,-3.58154 -0.89356,0.84961 0,2.73193 -1.37695,0 0,-11.39648 1.37695,0 0,7.30957 3.97705,-4.09424 1.73584,0 -3.80127,3.7793 4.07959,4.40185 z"
         style="font-size:15px"
         id="path5079" />
      <path
         inkscape:connector-curvature="0"
         d="m 442.08594,303.03565 -6.02783,0 q 0,0.75439 0.22705,1.31836 0.22705,0.55664 0.62255,0.91553 0.38086,0.35156 0.90088,0.52734 0.52735,0.17578 1.15723,0.17578 0.83496,0 1.67725,-0.32959 0.84961,-0.33691 1.20849,-0.65918 l 0.0732,0 0,1.50147 q -0.6958,0.29297 -1.42089,0.49072 -0.7251,0.19775 -1.52344,0.19775 -2.03613,0 -3.17871,-1.09863 -1.14258,-1.10596 -1.14258,-3.13477 0,-2.00683 1.09131,-3.18603 1.09863,-1.1792 2.88574,-1.1792 1.65527,0 2.54883,0.9668 0.90088,0.96679 0.90088,2.74658 l 0,0.74707 z m -1.34033,-1.05469 q -0.007,-1.08398 -0.54932,-1.67724 -0.53467,-0.59327 -1.6333,-0.59327 -1.10596,0 -1.76514,0.65186 -0.65185,0.65186 -0.73974,1.61865 l 4.6875,0 z"
         style="font-size:15px"
         id="path5081" />
      <path
         inkscape:connector-curvature="0"
         d="m 449.27832,300.30372 -0.0732,0 q -0.30762,-0.0732 -0.60059,-0.10254 -0.28564,-0.0366 -0.68115,-0.0366 -0.63721,0 -1.23047,0.28564 -0.59326,0.27832 -1.14258,0.7251 l 0,5.8081 -1.37695,0 0,-8.18115 1.37695,0 0,1.2085 q 0.82032,-0.65918 1.44287,-0.93018 0.62989,-0.27832 1.28174,-0.27832 0.35889,0 0.52002,0.022 0.16113,0.0146 0.4834,0.0659 l 0,1.41358 z"
         style="font-size:15px"
         id="path5083" />
    </g>
    <path
       style="fill:#ff0000;fill-opacity:1;stroke:#ff0000;stroke-width:3.51328993;stroke-miterlimit:4;stroke-dasharray:none;stroke-dashoffset:0;stroke-opacity:1"
       d="m 376.01727,130.45891 a 3.1368661,3.1368661 0 0 1 -3.13687,3.13686 3.1368661,3.1368661 0 0 1 -3.13686,-3.13686 3.1368661,3.1368661 0 0 1 3.13686,-3.13687 3.1368661,3.1368661 0 0 1 3.13687,3.13687 z"
       id="path5738" />
    <g
       transform="translate(264.47246,59.51073)"
       style="font-style:normal;font-weight:normal;font-size:20px;line-height:125%;font-family:sans-serif;letter-spacing:0px;word-spacing:0px;fill:#000000;fill-opacity:1;stroke:none;stroke-width:1px;stroke-linecap:butt;stroke-linejoin:miter;stroke-opacity:1"
       id="flowRoot5836">
      <path
         d="m 248.79102,165.0267 -1.9336,0 0,-7.11914 -7.25586,0 0,7.11914 -1.93359,0 0,-14.54102 1.93359,0 0,5.70313 7.25586,0 0,-5.70313 1.9336,0 0,14.54102 z"
         style=""
         id="path5950" />
      <path
         d="m 261.69141,159.76303 -8.03711,0 q 0,1.00586 0.30273,1.75781 0.30274,0.74219 0.83008,1.2207 0.50781,0.46875 1.20117,0.70313 0.70313,0.23437 1.54297,0.23437 1.11328,0 2.23633,-0.43945 1.13281,-0.44922 1.61133,-0.87891 l 0.0976,0 0,2.00196 q -0.92773,0.39062 -1.89453,0.65429 -0.9668,0.26368 -2.03125,0.26368 -2.71484,0 -4.23828,-1.46485 -1.52344,-1.47461 -1.52344,-4.17969 0,-2.67578 1.45508,-4.24804 1.46484,-1.57227 3.84766,-1.57227 2.20703,0 3.39843,1.28906 1.20118,1.28907 1.20118,3.66211 l 0,0.9961 z m -1.78711,-1.40625 q -0.01,-1.44531 -0.73243,-2.23633 -0.71289,-0.79102 -2.17773,-0.79102 -1.47461,0 -2.35352,0.86914 -0.86914,0.86915 -0.98632,2.15821 l 6.25,0 z"
         style=""
         id="path5952" />
      <path
         d="m 272.95117,165.0267 -1.82617,0 0,-1.16211 q -0.24414,0.16602 -0.66406,0.46875 -0.41016,0.29297 -0.80078,0.46875 -0.45899,0.22461 -1.05469,0.37109 -0.5957,0.15625 -1.39649,0.15625 -1.47461,0 -2.5,-0.97656 -1.02539,-0.97656 -1.02539,-2.49023 0,-1.24024 0.52735,-2.00196 0.53711,-0.77148 1.52343,-1.21093 0.9961,-0.43946 2.39258,-0.59571 1.39649,-0.15625 2.99805,-0.23437 l 0,-0.2832 q 0,-0.625 -0.22461,-1.03516 -0.21484,-0.41016 -0.625,-0.64453 -0.39062,-0.22461 -0.9375,-0.30274 -0.54687,-0.0781 -1.14258,-0.0781 -0.72265,0 -1.61133,0.19531 -0.88867,0.18555 -1.83593,0.54688 l -0.0977,0 0,-1.86524 q 0.53711,-0.14648 1.55273,-0.32226 1.01563,-0.17579 2.00196,-0.17579 1.15234,0 2.00195,0.19532 0.85938,0.18554 1.48438,0.64453 0.61523,0.44922 0.9375,1.16211 0.32226,0.71289 0.32226,1.76758 l 0,7.40234 z m -1.82617,-2.68555 0,-3.03711 q -0.83984,0.0488 -1.98242,0.14649 -1.13281,0.0977 -1.79688,0.2832 -0.79101,0.22461 -1.27929,0.70313 -0.48829,0.46875 -0.48829,1.29882 0,0.9375 0.56641,1.41602 0.56641,0.46875 1.72852,0.46875 0.96679,0 1.76757,-0.37109 0.80079,-0.38086 1.48438,-0.90821 z"
         style=""
         id="path5954" />
      <path
         d="m 285.35352,165.0267 -1.83594,0 0,-1.14258 q -0.79102,0.6836 -1.65039,1.06445 -0.85938,0.38086 -1.86524,0.38086 -1.95312,0 -3.10547,-1.5039 -1.14257,-1.50391 -1.14257,-4.16992 0,-1.38672 0.39062,-2.47071 0.40039,-1.08398 1.07422,-1.8457 0.66406,-0.74219 1.54297,-1.13281 0.88867,-0.39063 1.83594,-0.39063 0.85937,0 1.52343,0.18555 0.66407,0.17578 1.39649,0.55664 l 0,-4.72656 1.83594,0 0,15.19531 z m -1.83594,-2.68555 0,-6.25976 q -0.74219,-0.33203 -1.32813,-0.45899 -0.58593,-0.12695 -1.27929,-0.12695 -1.54297,0 -2.40235,1.07422 -0.85937,1.07422 -0.85937,3.04687 0,1.94336 0.66406,2.95899 0.66406,1.00586 2.12891,1.00586 0.78125,0 1.58203,-0.3418 0.80078,-0.35156 1.49414,-0.89844 z"
         style=""
         id="path5956" />
      <path
         d="m 311.91602,165.0267 -1.83594,0 0,-6.21094 q 0,-0.70312 -0.0684,-1.35742 -0.0586,-0.6543 -0.26367,-1.04492 -0.22461,-0.41992 -0.64453,-0.63477 -0.41993,-0.21484 -1.21094,-0.21484 -0.77149,0 -1.54297,0.39062 -0.77149,0.38086 -1.54297,0.97657 0.0293,0.22461 0.0488,0.52734 0.0195,0.29297 0.0195,0.58594 l 0,6.98242 -1.83594,0 0,-6.21094 q 0,-0.72265 -0.0684,-1.36719 -0.0586,-0.65429 -0.26367,-1.04492 -0.22461,-0.41992 -0.64453,-0.625 -0.41992,-0.21484 -1.21094,-0.21484 -0.75195,0 -1.51367,0.37109 -0.75195,0.3711 -1.50391,0.94727 l 0,8.14453 -1.83593,0 0,-10.9082 1.83593,0 0,1.21093 q 0.85938,-0.71289 1.70899,-1.11328 0.85937,-0.40039 1.82617,-0.40039 1.11328,0 1.88477,0.46875 0.78125,0.46875 1.16211,1.29883 1.11328,-0.9375 2.03125,-1.34766 0.91796,-0.41992 1.96289,-0.41992 1.79687,0 2.64648,1.09375 0.85938,1.08399 0.85938,3.03711 l 0,7.08008 z"
         style=""
         id="path5958" />
      <path
         d="m 324.74805,159.57748 q 0,2.66602 -1.36719,4.20899 -1.36719,1.54296 -3.66211,1.54296 -2.31445,0 -3.68164,-1.54296 -1.35742,-1.54297 -1.35742,-4.20899 0,-2.66601 1.35742,-4.20898 1.36719,-1.55274 3.68164,-1.55274 2.29492,0 3.66211,1.55274 1.36719,1.54297 1.36719,4.20898 z m -1.89453,0 q 0,-2.11914 -0.83008,-3.14453 -0.83008,-1.03516 -2.30469,-1.03516 -1.49414,0 -2.32422,1.03516 -0.82031,1.02539 -0.82031,3.14453 0,2.05078 0.83008,3.11524 0.83007,1.05468 2.31445,1.05468 1.46484,0 2.29492,-1.04492 0.83985,-1.05469 0.83985,-3.125 z"
         style=""
         id="path5960" />
      <path
         d="m 336.87695,154.1185 -4.41406,10.9082 -1.8457,0 -4.38477,-10.9082 1.99219,0 3.37891,8.68164 3.3496,-8.68164 1.92383,0 z"
         style=""
         id="path5962" />
      <path
         d="m 348.25391,159.76303 -8.03711,0 q 0,1.00586 0.30273,1.75781 0.30274,0.74219 0.83008,1.2207 0.50781,0.46875 1.20117,0.70313 0.70313,0.23437 1.54297,0.23437 1.11328,0 2.23633,-0.43945 1.13281,-0.44922 1.61133,-0.87891 l 0.0976,0 0,2.00196 q -0.92773,0.39062 -1.89453,0.65429 -0.9668,0.26368 -2.03125,0.26368 -2.71484,0 -4.23828,-1.46485 -1.52344,-1.47461 -1.52344,-4.17969 0,-2.67578 1.45508,-4.24804 1.46484,-1.57227 3.84766,-1.57227 2.20703,0 3.39843,1.28906 1.20118,1.28907 1.20118,3.66211 l 0,0.9961 z m -1.78711,-1.40625 q -0.01,-1.44531 -0.73243,-2.23633 -0.71289,-0.79102 -2.17773,-0.79102 -1.47461,0 -2.35352,0.86914 -0.86914,0.86915 -0.98632,2.15821 l 6.25,0 z"
         style=""
         id="path5964" />
      <path
         d="m 358.83008,161.88217 q 0,1.49414 -1.24024,2.45117 -1.23047,0.95703 -3.36914,0.95703 -1.21093,0 -2.22656,-0.2832 -1.00586,-0.29297 -1.68945,-0.63477 l 0,-2.06054 0.0976,0 q 0.86914,0.65429 1.9336,1.04492 1.06445,0.38086 2.04101,0.38086 1.21094,0 1.89453,-0.39063 0.6836,-0.39062 0.6836,-1.23047 0,-0.64453 -0.3711,-0.97656 -0.37109,-0.33203 -1.42578,-0.56641 -0.39062,-0.0879 -1.02539,-0.20507 -0.625,-0.11719 -1.14258,-0.25391 -1.43554,-0.38086 -2.04101,-1.11328 -0.5957,-0.74219 -0.5957,-1.81641 0,-0.67383 0.27343,-1.26953 0.28321,-0.5957 0.84961,-1.06445 0.54688,-0.45899 1.38672,-0.72266 0.84961,-0.27344 1.89453,-0.27344 0.97656,0 1.97266,0.24415 1.00586,0.23437 1.66992,0.57617 l 0,1.96289 -0.0977,0 q -0.70312,-0.51758 -1.70898,-0.86914 -1.00586,-0.36133 -1.97266,-0.36133 -1.00586,0 -1.69922,0.39062 -0.69335,0.38086 -0.69335,1.14258 0,0.67383 0.41992,1.01563 0.41015,0.34179 1.32812,0.55664 0.50781,0.11719 1.13281,0.23437 0.63477,0.11719 1.05469,0.21485 1.2793,0.29297 1.97266,1.00586 0.69336,0.72265 0.69336,1.91406 z"
         style=""
         id="path5966" />
      <path
         d="m 365.37305,156.9017 -2.33399,0 0,-2.7832 2.33399,0 0,2.7832 z m 0,8.125 -2.33399,0 0,-2.7832 2.33399,0 0,2.7832 z"
         style=""
         id="path5968" />
      <path
         d="m 246.36914,190.0267 -1.83594,0 0,-1.14258 q -0.79101,0.6836 -1.65039,1.06445 -0.85937,0.38086 -1.86523,0.38086 -1.95313,0 -3.10547,-1.5039 -1.14258,-1.50391 -1.14258,-4.16992 0,-1.38672 0.39063,-2.47071 0.40039,-1.08398 1.07421,-1.8457 0.66407,-0.74219 1.54297,-1.13281 0.88868,-0.39063 1.83594,-0.39063 0.85938,0 1.52344,0.18555 0.66406,0.17578 1.39648,0.55664 l 0,-4.72656 1.83594,0 0,15.19531 z m -1.83594,-2.68555 0,-6.25976 q -0.74218,-0.33203 -1.32812,-0.45899 -0.58594,-0.12695 -1.2793,-0.12695 -1.54297,0 -2.40234,1.07422 -0.85938,1.07422 -0.85938,3.04687 0,1.94336 0.66406,2.95899 0.66407,1.00586 2.12891,1.00586 0.78125,0 1.58203,-0.3418 0.80078,-0.35156 1.49414,-0.89844 z"
         style=""
         id="path5970" />
      <path
         d="m 251.95508,177.29232 -2.07031,0 0,-1.90429 2.07031,0 0,1.90429 z m -0.11719,12.73438 -1.83594,0 0,-10.9082 1.83594,0 0,10.9082 z"
         style=""
         id="path5972" />
      <path
         d="m 263.20508,186.88217 q 0,1.49414 -1.24024,2.45117 -1.23047,0.95703 -3.36914,0.95703 -1.21093,0 -2.22656,-0.2832 -1.00586,-0.29297 -1.68945,-0.63477 l 0,-2.06054 0.0977,0 q 0.86914,0.65429 1.9336,1.04492 1.06445,0.38086 2.04101,0.38086 1.21094,0 1.89453,-0.39063 0.6836,-0.39062 0.6836,-1.23047 0,-0.64453 -0.3711,-0.97656 -0.37109,-0.33203 -1.42578,-0.56641 -0.39062,-0.0879 -1.02539,-0.20507 -0.625,-0.11719 -1.14258,-0.25391 -1.43554,-0.38086 -2.04101,-1.11328 -0.5957,-0.74219 -0.5957,-1.81641 0,-0.67383 0.27343,-1.26953 0.28321,-0.5957 0.84961,-1.06445 0.54688,-0.45899 1.38672,-0.72266 0.84961,-0.27344 1.89453,-0.27344 0.97656,0 1.97266,0.24415 1.00586,0.23437 1.66992,0.57617 l 0,1.96289 -0.0977,0 q -0.70312,-0.51758 -1.70898,-0.86914 -1.00586,-0.36133 -1.97266,-0.36133 -1.00586,0 -1.69922,0.39062 -0.69335,0.38086 -0.69335,1.14258 0,0.67383 0.41992,1.01563 0.41015,0.34179 1.32812,0.55664 0.50781,0.11719 1.13281,0.23437 0.63477,0.11719 1.05469,0.21485 1.2793,0.29297 1.97266,1.00586 0.69336,0.72265 0.69336,1.91406 z"
         style=""
         id="path5974" />
      <path
         d="m 271.50586,189.92904 q -0.51758,0.13672 -1.13281,0.22461 -0.60547,0.0879 -1.08399,0.0879 -1.66992,0 -2.53906,-0.89843 -0.86914,-0.89844 -0.86914,-2.88086 l 0,-5.80078 -1.24024,0 0,-1.54297 1.24024,0 0,-3.13477 1.83594,0 0,3.13477 3.78906,0 0,1.54297 -3.78906,0 0,4.9707 q 0,0.85937 0.0391,1.34765 0.0391,0.47852 0.27344,0.89844 0.21484,0.39063 0.58593,0.57617 0.38086,0.17579 1.15235,0.17579 0.44922,0 0.9375,-0.12696 0.48828,-0.13672 0.70312,-0.22461 l 0.0977,0 0,1.65039 z"
         style=""
         id="path5976" />
      <path
         d="m 282.20898,190.0267 -1.82617,0 0,-1.16211 q -0.24414,0.16602 -0.66406,0.46875 -0.41016,0.29297 -0.80078,0.46875 -0.45899,0.22461 -1.05469,0.37109 -0.5957,0.15625 -1.39648,0.15625 -1.47461,0 -2.5,-0.97656 -1.02539,-0.97656 -1.02539,-2.49023 0,-1.24024 0.52734,-2.00196 0.53711,-0.77148 1.52344,-1.21093 0.99609,-0.43946 2.39258,-0.59571 1.39648,-0.15625 2.99804,-0.23437 l 0,-0.2832 q 0,-0.625 -0.22461,-1.03516 -0.21484,-0.41016 -0.625,-0.64453 -0.39062,-0.22461 -0.9375,-0.30274 -0.54687,-0.0781 -1.14258,-0.0781 -0.72265,0 -1.61132,0.19531 -0.88868,0.18555 -1.83594,0.54688 l -0.0977,0 0,-1.86524 q 0.53711,-0.14648 1.55274,-0.32226 1.01562,-0.17579 2.00195,-0.17579 1.15234,0 2.00195,0.19532 0.85938,0.18554 1.48438,0.64453 0.61523,0.44922 0.9375,1.16211 0.32226,0.71289 0.32226,1.76758 l 0,7.40234 z m -1.82617,-2.68555 0,-3.03711 q -0.83984,0.0488 -1.98242,0.14649 -1.13281,0.0977 -1.79687,0.2832 -0.79102,0.22461 -1.2793,0.70313 -0.48828,0.46875 -0.48828,1.29882 0,0.9375 0.5664,1.41602 0.56641,0.46875 1.72852,0.46875 0.9668,0 1.76758,-0.37109 0.80078,-0.38086 1.48437,-0.90821 z"
         style=""
         id="path5978" />
      <path
         d="m 294.88477,190.0267 -1.83594,0 0,-6.21094 q 0,-0.75195 -0.0879,-1.40625 -0.0879,-0.66406 -0.32227,-1.03515 -0.24414,-0.41016 -0.70312,-0.60547 -0.45899,-0.20508 -1.19141,-0.20508 -0.75195,0 -1.57227,0.37109 -0.82031,0.3711 -1.57226,0.94727 l 0,8.14453 -1.83594,0 0,-10.9082 1.83594,0 0,1.21093 q 0.85937,-0.71289 1.77734,-1.11328 0.91797,-0.40039 1.88477,-0.40039 1.76758,0 2.69531,1.06446 0.92774,1.06445 0.92774,3.0664 l 0,7.08008 z"
         style=""
         id="path5980" />
      <path
         d="m 306.48633,189.34311 q -0.91797,0.43945 -1.74805,0.68359 -0.82031,0.24414 -1.74805,0.24414 -1.18164,0 -2.16796,-0.3418 -0.98633,-0.35156 -1.68946,-1.05468 -0.71289,-0.70313 -1.10351,-1.77735 -0.39063,-1.07422 -0.39063,-2.50976 0,-2.67578 1.46485,-4.19922 1.4746,-1.52344 3.88671,-1.52344 0.9375,0 1.83594,0.26367 0.9082,0.26367 1.66016,0.64453 l 0,2.04102 -0.0977,0 q -0.83984,-0.6543 -1.73828,-1.00586 -0.88867,-0.35156 -1.73828,-0.35156 -1.5625,0 -2.4707,1.05468 -0.89844,1.04493 -0.89844,3.07618 0,1.97265 0.8789,3.03711 0.88868,1.05468 2.49024,1.05468 0.55664,0 1.13281,-0.14648 0.57617,-0.14649 1.03516,-0.38086 0.40039,-0.20508 0.75195,-0.42969 0.35156,-0.23437 0.55664,-0.40039 l 0.0977,0 0,2.02149 z"
         style=""
         id="path5982" />
      <path
         d="m 317.98047,184.76303 -8.03711,0 q 0,1.00586 0.30273,1.75781 0.30274,0.74219 0.83008,1.2207 0.50781,0.46875 1.20117,0.70313 0.70313,0.23437 1.54297,0.23437 1.11328,0 2.23633,-0.43945 1.13281,-0.44922 1.61133,-0.87891 l 0.0976,0 0,2.00196 q -0.92773,0.39062 -1.89453,0.65429 -0.96679,0.26368 -2.03125,0.26368 -2.71484,0 -4.23828,-1.46485 -1.52344,-1.47461 -1.52344,-4.17969 0,-2.67578 1.45508,-4.24804 1.46485,-1.57227 3.84766,-1.57227 2.20703,0 3.39844,1.28906 1.20117,1.28907 1.20117,3.66211 l 0,0.9961 z m -1.78711,-1.40625 q -0.01,-1.44531 -0.73242,-2.23633 -0.71289,-0.79102 -2.17774,-0.79102 -1.47461,0 -2.35351,0.86914 -0.86914,0.86915 -0.98633,2.15821 l 6.25,0 z"
         style=""
         id="path5984" />
      <path
         d="m 337.39453,184.48959 q 0,1.36719 -0.39062,2.46094 -0.38086,1.09375 -1.03516,1.83594 -0.69336,0.77148 -1.52344,1.1621 -0.83008,0.38086 -1.82617,0.38086 -0.92773,0 -1.62109,-0.22461 -0.69336,-0.21484 -1.36719,-0.58593 l -0.11719,0.50781 -1.71875,0 0,-15.19531 1.83594,0 0,5.42968 q 0.77148,-0.63476 1.64062,-1.03515 0.86914,-0.41016 1.95313,-0.41016 1.93359,0 3.04687,1.48438 1.12305,1.48437 1.12305,4.18945 z m -1.89453,0.0488 q 0,-1.95313 -0.64453,-2.95899 -0.64453,-1.01562 -2.08008,-1.01562 -0.80078,0 -1.62109,0.35156 -0.82032,0.3418 -1.52344,0.88867 l 0,6.25 q 0.78125,0.35157 1.33789,0.48828 0.56641,0.13672 1.2793,0.13672 1.52343,0 2.38281,-0.99609 0.86914,-1.00586 0.86914,-3.14453 z"
         style=""
         id="path5986" />
      <path
         d="m 349.38672,184.76303 -8.03711,0 q 0,1.00586 0.30273,1.75781 0.30274,0.74219 0.83008,1.2207 0.50781,0.46875 1.20117,0.70313 0.70313,0.23437 1.54297,0.23437 1.11328,0 2.23633,-0.43945 1.13281,-0.44922 1.61133,-0.87891 l 0.0976,0 0,2.00196 q -0.92773,0.39062 -1.89453,0.65429 -0.96679,0.26368 -2.03125,0.26368 -2.71484,0 -4.23828,-1.46485 -1.52344,-1.47461 -1.52344,-4.17969 0,-2.67578 1.45508,-4.24804 1.46485,-1.57227 3.84766,-1.57227 2.20703,0 3.39844,1.28906 1.20117,1.28907 1.20117,3.66211 l 0,0.9961 z m -1.78711,-1.40625 q -0.01,-1.44531 -0.73242,-2.23633 -0.71289,-0.79102 -2.17774,-0.79102 -1.47461,0 -2.35351,0.86914 -0.86914,0.86915 -0.98633,2.15821 l 6.25,0 z"
         style=""
         id="path5988" />
      <path
         d="m 357.83398,189.92904 q -0.51757,0.13672 -1.13281,0.22461 -0.60547,0.0879 -1.08398,0.0879 -1.66992,0 -2.53907,-0.89843 -0.86914,-0.89844 -0.86914,-2.88086 l 0,-5.80078 -1.24023,0 0,-1.54297 1.24023,0 0,-3.13477 1.83594,0 0,3.13477 3.78906,0 0,1.54297 -3.78906,0 0,4.9707 q 0,0.85937 0.0391,1.34765 0.0391,0.47852 0.27344,0.89844 0.21485,0.39063 0.58594,0.57617 0.38086,0.17579 1.15234,0.17579 0.44922,0 0.9375,-0.12696 0.48828,-0.13672 0.70313,-0.22461 l 0.0976,0 0,1.65039 z"
         style=""
         id="path5990" />
      <path
         d="m 373.78125,179.1185 -2.8418,10.9082 -1.69922,0 -2.80273,-8.4082 -2.7832,8.4082 -1.68946,0 -2.87109,-10.9082 1.91406,0 2.00196,8.44726 2.7246,-8.44726 1.51368,0 2.79297,8.44726 1.89453,-8.44726 1.8457,0 z"
         style=""
         id="path5992" />
      <path
         d="m 385.55859,184.76303 -8.03711,0 q 0,1.00586 0.30274,1.75781 0.30273,0.74219 0.83008,1.2207 0.50781,0.46875 1.20117,0.70313 0.70312,0.23437 1.54297,0.23437 1.11328,0 2.23633,-0.43945 1.13281,-0.44922 1.61132,-0.87891 l 0.0977,0 0,2.00196 q -0.92773,0.39062 -1.89453,0.65429 -0.9668,0.26368 -2.03125,0.26368 -2.71485,0 -4.23828,-1.46485 -1.52344,-1.47461 -1.52344,-4.17969 0,-2.67578 1.45508,-4.24804 1.46484,-1.57227 3.84765,-1.57227 2.20704,0 3.39844,1.28906 1.20117,1.28907 1.20117,3.66211 l 0,0.9961 z m -1.78711,-1.40625 q -0.01,-1.44531 -0.73242,-2.23633 -0.71289,-0.79102 -2.17773,-0.79102 -1.47461,0 -2.35352,0.86914 -0.86914,0.86915 -0.98633,2.15821 l 6.25,0 z"
         style=""
         id="path5994" />
      <path
         d="m 397.47266,184.76303 -8.03711,0 q 0,1.00586 0.30273,1.75781 0.30274,0.74219 0.83008,1.2207 0.50781,0.46875 1.20117,0.70313 0.70313,0.23437 1.54297,0.23437 1.11328,0 2.23633,-0.43945 1.13281,-0.44922 1.61133,-0.87891 l 0.0976,0 0,2.00196 q -0.92773,0.39062 -1.89453,0.65429 -0.9668,0.26368 -2.03125,0.26368 -2.71484,0 -4.23828,-1.46485 -1.52344,-1.47461 -1.52344,-4.17969 0,-2.67578 1.45508,-4.24804 1.46484,-1.57227 3.84766,-1.57227 2.20703,0 3.39843,1.28906 1.20118,1.28907 1.20118,3.66211 l 0,0.9961 z m -1.78711,-1.40625 q -0.01,-1.44531 -0.73243,-2.23633 -0.71289,-0.79102 -2.17773,-0.79102 -1.47461,0 -2.35352,0.86914 -0.86914,0.86915 -0.98632,2.15821 l 6.25,0 z"
         style=""
         id="path5996" />
      <path
         d="m 409.37695,190.0267 -1.83593,0 0,-6.21094 q 0,-0.75195 -0.0879,-1.40625 -0.0879,-0.66406 -0.32226,-1.03515 -0.24414,-0.41016 -0.70313,-0.60547 -0.45898,-0.20508 -1.1914,-0.20508 -0.75196,0 -1.57227,0.37109 -0.82031,0.3711 -1.57226,0.94727 l 0,8.14453 -1.83594,0 0,-10.9082 1.83594,0 0,1.21093 q 0.85937,-0.71289 1.77734,-1.11328 0.91797,-0.40039 1.88477,-0.40039 1.76757,0 2.69531,1.06446 0.92773,1.06445 0.92773,3.0664 l 0,7.08008 z"
         style=""
         id="path5998" />
      <path
         d="m 246.36914,213.78647 q 0,2.77343 -1.25977,4.07226 -1.25976,1.29883 -3.87695,1.29883 -0.86914,0 -1.69922,-0.12695 -0.82031,-0.11719 -1.62109,-0.3418 l 0,-1.875 0.0977,0 q 0.44921,0.17578 1.42578,0.42969 0.97656,0.26367 1.95312,0.26367 0.9375,0 1.55274,-0.22461 0.61523,-0.22461 0.95703,-0.625 0.34179,-0.38086 0.48828,-0.91797 0.14648,-0.53711 0.14648,-1.20117 l 0,-0.9961 q -0.83008,0.66407 -1.59179,0.9961 -0.75196,0.32226 -1.92383,0.32226 -1.95313,0 -3.10547,-1.40625 -1.14258,-1.41601 -1.14258,-3.98437 0,-1.40625 0.39063,-2.42188 0.40039,-1.02539 1.08398,-1.76757 0.63477,-0.69336 1.54297,-1.07422 0.9082,-0.39063 1.80664,-0.39063 0.94727,0 1.58203,0.19531 0.64453,0.18555 1.35742,0.57618 l 0.11719,-0.46875 1.71875,0 0,9.66797 z m -1.83594,-1.75782 0,-5.94726 q -0.73242,-0.33203 -1.36718,-0.46875 -0.625,-0.14649 -1.25,-0.14649 -1.51368,0 -2.38282,1.01563 -0.86914,1.01562 -0.86914,2.94922 0,1.83593 0.64453,2.7832 0.64453,0.94727 2.13868,0.94727 0.80078,0 1.60156,-0.30274 0.81054,-0.3125 1.48437,-0.83008 z"
         style=""
         id="path6000" />
      <path
         d="m 251.83789,215.0267 -1.83594,0 0,-15.19531 1.83594,0 0,15.19531 z"
         style=""
         id="path6002" />
      <path
         d="m 257.38477,202.29232 -2.07032,0 0,-1.90429 2.07032,0 0,1.90429 z m -0.11719,12.73438 -1.83594,0 0,-10.9082 1.83594,0 0,10.9082 z"
         style=""
         id="path6004" />
      <path
         d="m 269.96289,215.0267 -1.83594,0 0,-6.21094 q 0,-0.75195 -0.0879,-1.40625 -0.0879,-0.66406 -0.32226,-1.03515 -0.24414,-0.41016 -0.70313,-0.60547 -0.45898,-0.20508 -1.1914,-0.20508 -0.75196,0 -1.57227,0.37109 -0.82031,0.3711 -1.57227,0.94727 l 0,8.14453 -1.83593,0 0,-10.9082 1.83593,0 0,1.21093 q 0.85938,-0.71289 1.77735,-1.11328 0.91797,-0.40039 1.88476,-0.40039 1.76758,0 2.69532,1.06446 0.92773,1.06445 0.92773,3.0664 l 0,7.08008 z"
         style=""
         id="path6006" />
      <path
         d="m 279.16211,214.92904 q -0.51758,0.13672 -1.13281,0.22461 -0.60547,0.0879 -1.08399,0.0879 -1.66992,0 -2.53906,-0.89843 -0.86914,-0.89844 -0.86914,-2.88086 l 0,-5.80078 -1.24024,0 0,-1.54297 1.24024,0 0,-3.13477 1.83594,0 0,3.13477 3.78906,0 0,1.54297 -3.78906,0 0,4.9707 q 0,0.85937 0.0391,1.34765 0.0391,0.47852 0.27344,0.89844 0.21484,0.39063 0.58593,0.57617 0.38086,0.17579 1.15235,0.17579 0.44922,0 0.9375,-0.12696 0.48828,-0.13672 0.70312,-0.22461 l 0.0977,0 0,1.65039 z"
         style=""
         id="path6008" />
      <path
         d="m 296.89648,215.0267 -1.82617,0 0,-1.16211 q -0.24414,0.16602 -0.66406,0.46875 -0.41016,0.29297 -0.80078,0.46875 -0.45899,0.22461 -1.05469,0.37109 -0.5957,0.15625 -1.39648,0.15625 -1.47461,0 -2.5,-0.97656 -1.02539,-0.97656 -1.02539,-2.49023 0,-1.24024 0.52734,-2.00196 0.53711,-0.77148 1.52344,-1.21093 0.99609,-0.43946 2.39258,-0.59571 1.39648,-0.15625 2.99804,-0.23437 l 0,-0.2832 q 0,-0.625 -0.22461,-1.03516 -0.21484,-0.41016 -0.625,-0.64453 -0.39062,-0.22461 -0.9375,-0.30274 -0.54687,-0.0781 -1.14258,-0.0781 -0.72265,0 -1.61132,0.19531 -0.88868,0.18555 -1.83594,0.54688 l -0.0977,0 0,-1.86524 q 0.53711,-0.14648 1.55274,-0.32226 1.01562,-0.17579 2.00195,-0.17579 1.15234,0 2.00195,0.19532 0.85938,0.18554 1.48438,0.64453 0.61523,0.44922 0.9375,1.16211 0.32226,0.71289 0.32226,1.76758 l 0,7.40234 z m -1.82617,-2.68555 0,-3.03711 q -0.83984,0.0488 -1.98242,0.14649 -1.13281,0.0977 -1.79687,0.2832 -0.79102,0.22461 -1.2793,0.70313 -0.48828,0.46875 -0.48828,1.29882 0,0.9375 0.5664,1.41602 0.56641,0.46875 1.72852,0.46875 0.9668,0 1.76758,-0.37109 0.80078,-0.38086 1.48437,-0.90821 z"
         style=""
         id="path6010" />
      <path
         d="m 309.57227,215.0267 -1.83594,0 0,-6.21094 q 0,-0.75195 -0.0879,-1.40625 -0.0879,-0.66406 -0.32227,-1.03515 -0.24414,-0.41016 -0.70312,-0.60547 -0.45899,-0.20508 -1.19141,-0.20508 -0.75195,0 -1.57227,0.37109 -0.82031,0.3711 -1.57226,0.94727 l 0,8.14453 -1.83594,0 0,-10.9082 1.83594,0 0,1.21093 q 0.85937,-0.71289 1.77734,-1.11328 0.91797,-0.40039 1.88477,-0.40039 1.76758,0 2.69531,1.06446 0.92774,1.06445 0.92774,3.0664 l 0,7.08008 z"
         style=""
         id="path6012" />
      <path
         d="m 321.95508,215.0267 -1.83594,0 0,-1.14258 q -0.79102,0.6836 -1.65039,1.06445 -0.85938,0.38086 -1.86523,0.38086 -1.95313,0 -3.10547,-1.5039 -1.14258,-1.50391 -1.14258,-4.16992 0,-1.38672 0.39062,-2.47071 0.40039,-1.08398 1.07422,-1.8457 0.66406,-0.74219 1.54297,-1.13281 0.88867,-0.39063 1.83594,-0.39063 0.85937,0 1.52344,0.18555 0.66406,0.17578 1.39648,0.55664 l 0,-4.72656 1.83594,0 0,15.19531 z m -1.83594,-2.68555 0,-6.25976 q -0.74219,-0.33203 -1.32812,-0.45899 -0.58594,-0.12695 -1.2793,-0.12695 -1.54297,0 -2.40235,1.07422 -0.85937,1.07422 -0.85937,3.04687 0,1.94336 0.66406,2.95899 0.66406,1.00586 2.12891,1.00586 0.78125,0 1.58203,-0.3418 0.80078,-0.35156 1.49414,-0.89844 z"
         style=""
         id="path6014" />
      <path
         d="m 342.19922,209.44076 q 0,1.32813 -0.38086,2.43164 -0.38086,1.09375 -1.07422,1.85547 -0.64453,0.72266 -1.52344,1.12305 -0.86914,0.39062 -1.8457,0.39062 -0.84961,0 -1.54297,-0.18554 -0.68359,-0.18555 -1.39648,-0.57618 l 0,4.57032 -1.83594,0 0,-14.93164 1.83594,0 0,1.14257 q 0.73242,-0.61523 1.64062,-1.02539 0.91797,-0.41992 1.95313,-0.41992 1.97265,0 3.0664,1.49414 1.10352,1.48438 1.10352,4.13086 z m -1.89453,0.0488 q 0,-1.97266 -0.67383,-2.94922 -0.67383,-0.97656 -2.07031,-0.97656 -0.79102,0 -1.5918,0.3418 -0.80078,0.34179 -1.5332,0.89843 l 0,6.18164 q 0.78125,0.35157 1.33789,0.47852 0.5664,0.12695 1.27929,0.12695 1.53321,0 2.39258,-1.03515 0.85938,-1.03516 0.85938,-3.06641 z"
         style=""
         id="path6016" />
      <path
         d="m 354.10352,215.0267 -1.83594,0 0,-1.21094 q -0.92774,0.73242 -1.77735,1.12305 -0.84961,0.39062 -1.875,0.39062 -1.71875,0 -2.67578,-1.04492 -0.95703,-1.05469 -0.95703,-3.08594 l 0,-7.08007 1.83594,0 0,6.21093 q 0,0.83008 0.0781,1.42579 0.0781,0.58593 0.33204,1.00585 0.26367,0.42969 0.68359,0.625 0.41992,0.19532 1.2207,0.19532 0.71289,0 1.55274,-0.3711 0.84961,-0.37109 1.58203,-0.94726 l 0,-8.14453 1.83594,0 0,10.9082 z"
         style=""
         id="path6018" />
      <path
         d="m 367.31641,209.44076 q 0,1.32813 -0.38086,2.43164 -0.38086,1.09375 -1.07422,1.85547 -0.64453,0.72266 -1.52344,1.12305 -0.86914,0.39062 -1.8457,0.39062 -0.84961,0 -1.54297,-0.18554 -0.6836,-0.18555 -1.39649,-0.57618 l 0,4.57032 -1.83593,0 0,-14.93164 1.83593,0 0,1.14257 q 0.73243,-0.61523 1.64063,-1.02539 0.91797,-0.41992 1.95312,-0.41992 1.97266,0 3.06641,1.49414 1.10352,1.48438 1.10352,4.13086 z m -1.89454,0.0488 q 0,-1.97266 -0.67382,-2.94922 -0.67383,-0.97656 -2.07032,-0.97656 -0.79101,0 -1.59179,0.3418 -0.80078,0.34179 -1.53321,0.89843 l 0,6.18164 q 0.78125,0.35157 1.33789,0.47852 0.56641,0.12695 1.2793,0.12695 1.5332,0 2.39258,-1.03515 0.85937,-1.03516 0.85937,-3.06641 z"
         style=""
         id="path6020" />
      <path
         d="m 372.15039,202.29232 -2.07031,0 0,-1.90429 2.07031,0 0,1.90429 z m -0.11719,12.73438 -1.83593,0 0,-10.9082 1.83593,0 0,10.9082 z"
         style=""
         id="path6022" />
      <path
         d="m 377.46289,215.0267 -1.83594,0 0,-15.19531 1.83594,0 0,15.19531 z"
         style=""
         id="path6024" />
      <path
         d="m 395.86133,211.88217 q 0,1.49414 -1.24024,2.45117 -1.23047,0.95703 -3.36914,0.95703 -1.21093,0 -2.22656,-0.2832 -1.00586,-0.29297 -1.68945,-0.63477 l 0,-2.06054 0.0976,0 q 0.86914,0.65429 1.9336,1.04492 1.06445,0.38086 2.04101,0.38086 1.21094,0 1.89453,-0.39063 0.6836,-0.39062 0.6836,-1.23047 0,-0.64453 -0.3711,-0.97656 -0.37109,-0.33203 -1.42578,-0.56641 -0.39062,-0.0879 -1.02539,-0.20507 -0.625,-0.11719 -1.14258,-0.25391 -1.43554,-0.38086 -2.04101,-1.11328 -0.5957,-0.74219 -0.5957,-1.81641 0,-0.67383 0.27343,-1.26953 0.28321,-0.5957 0.84961,-1.06445 0.54688,-0.45899 1.38672,-0.72266 0.84961,-0.27344 1.89453,-0.27344 0.97656,0 1.97266,0.24415 1.00586,0.23437 1.66992,0.57617 l 0,1.96289 -0.0977,0 q -0.70312,-0.51758 -1.70898,-0.86914 -1.00586,-0.36133 -1.97266,-0.36133 -1.00586,0 -1.69922,0.39062 -0.69335,0.38086 -0.69335,1.14258 0,0.67383 0.41992,1.01563 0.41015,0.34179 1.32812,0.55664 0.50781,0.11719 1.13281,0.23437 0.63477,0.11719 1.05469,0.21485 1.2793,0.29297 1.97266,1.00586 0.69336,0.72265 0.69336,1.91406 z"
         style=""
         id="path6026" />
      <path
         d="m 404.16211,214.92904 q -0.51758,0.13672 -1.13281,0.22461 -0.60547,0.0879 -1.08399,0.0879 -1.66992,0 -2.53906,-0.89843 -0.86914,-0.89844 -0.86914,-2.88086 l 0,-5.80078 -1.24024,0 0,-1.54297 1.24024,0 0,-3.13477 1.83594,0 0,3.13477 3.78906,0 0,1.54297 -3.78906,0 0,4.9707 q 0,0.85937 0.0391,1.34765 0.0391,0.47852 0.27344,0.89844 0.21484,0.39063 0.58593,0.57617 0.38086,0.17579 1.15235,0.17579 0.44922,0 0.9375,-0.12696 0.48828,-0.13672 0.70312,-0.22461 l 0.0977,0 0,1.65039 z"
         style=""
         id="path6028" />
      <path
         d="m 414.86523,215.0267 -1.82617,0 0,-1.16211 q -0.24414,0.16602 -0.66406,0.46875 -0.41016,0.29297 -0.80078,0.46875 -0.45899,0.22461 -1.05469,0.37109 -0.5957,0.15625 -1.39648,0.15625 -1.47461,0 -2.5,-0.97656 -1.02539,-0.97656 -1.02539,-2.49023 0,-1.24024 0.52734,-2.00196 0.53711,-0.77148 1.52344,-1.21093 0.99609,-0.43946 2.39258,-0.59571 1.39648,-0.15625 2.99804,-0.23437 l 0,-0.2832 q 0,-0.625 -0.22461,-1.03516 -0.21484,-0.41016 -0.625,-0.64453 -0.39062,-0.22461 -0.9375,-0.30274 -0.54687,-0.0781 -1.14258,-0.0781 -0.72265,0 -1.61132,0.19531 -0.88868,0.18555 -1.83594,0.54688 l -0.0977,0 0,-1.86524 q 0.53711,-0.14648 1.55274,-0.32226 1.01562,-0.17579 2.00195,-0.17579 1.15234,0 2.00195,0.19532 0.85938,0.18554 1.48438,0.64453 0.61523,0.44922 0.9375,1.16211 0.32226,0.71289 0.32226,1.76758 l 0,7.40234 z m -1.82617,-2.68555 0,-3.03711 q -0.83984,0.0488 -1.98242,0.14649 -1.13281,0.0977 -1.79687,0.2832 -0.79102,0.22461 -1.2793,0.70313 -0.48828,0.46875 -0.48828,1.29882 0,0.9375 0.5664,1.41602 0.56641,0.46875 1.72852,0.46875 0.9668,0 1.76758,-0.37109 0.80078,-0.38086 1.48437,-0.90821 z"
         style=""
         id="path6030" />
      <path
         d="m 427.69727,204.1185 -6.36719,14.93164 -1.96289,0 2.03125,-4.55078 -4.34571,-10.38086 1.99219,0 3.34961,8.08593 3.37891,-8.08593 1.92383,0 z"
         style=""
         id="path6032" />
      <path
         d="m 437.89258,211.88217 q 0,1.49414 -1.24024,2.45117 -1.23047,0.95703 -3.36914,0.95703 -1.21093,0 -2.22656,-0.2832 -1.00586,-0.29297 -1.68945,-0.63477 l 0,-2.06054 0.0976,0 q 0.86914,0.65429 1.9336,1.04492 1.06445,0.38086 2.04101,0.38086 1.21094,0 1.89453,-0.39063 0.6836,-0.39062 0.6836,-1.23047 0,-0.64453 -0.3711,-0.97656 -0.37109,-0.33203 -1.42578,-0.56641 -0.39062,-0.0879 -1.02539,-0.20507 -0.625,-0.11719 -1.14258,-0.25391 -1.43554,-0.38086 -2.04101,-1.11328 -0.5957,-0.74219 -0.5957,-1.81641 0,-0.67383 0.27343,-1.26953 0.28321,-0.5957 0.84961,-1.06445 0.54688,-0.45899 1.38672,-0.72266 0.84961,-0.27344 1.89453,-0.27344 0.97656,0 1.97266,0.24415 1.00586,0.23437 1.66992,0.57617 l 0,1.96289 -0.0977,0 q -0.70312,-0.51758 -1.70898,-0.86914 -1.00586,-0.36133 -1.97266,-0.36133 -1.00586,0 -1.69922,0.39062 -0.69335,0.38086 -0.69335,1.14258 0,0.67383 0.41992,1.01563 0.41015,0.34179 1.32812,0.55664 0.50781,0.11719 1.13281,0.23437 0.63477,0.11719 1.05469,0.21485 1.2793,0.29297 1.97266,1.00586 0.69336,0.72265 0.69336,1.91406 z"
         style=""
         id="path6034" />
      <path
         d="m 243.18555,239.92904 q -0.51758,0.13672 -1.13282,0.22461 -0.60546,0.0879 -1.08398,0.0879 -1.66992,0 -2.53906,-0.89843 -0.86914,-0.89844 -0.86914,-2.88086 l 0,-5.80078 -1.24024,0 0,-1.54297 1.24024,0 0,-3.13477 1.83593,0 0,3.13477 3.78907,0 0,1.54297 -3.78907,0 0,4.9707 q 0,0.85937 0.0391,1.34765 0.0391,0.47852 0.27343,0.89844 0.21485,0.39063 0.58594,0.57617 0.38086,0.17579 1.15235,0.17579 0.44921,0 0.9375,-0.12696 0.48828,-0.13672 0.70312,-0.22461 l 0.0977,0 0,1.65039 z"
         style=""
         id="path6036" />
      <path
         d="m 254.5332,240.0267 -1.83593,0 0,-6.21094 q 0,-0.75195 -0.0879,-1.40625 -0.0879,-0.66406 -0.32226,-1.03515 -0.24414,-0.41016 -0.70313,-0.60547 -0.45898,-0.20508 -1.1914,-0.20508 -0.75196,0 -1.57227,0.37109 -0.82031,0.3711 -1.57226,0.94727 l 0,8.14453 -1.83594,0 0,-15.19531 1.83594,0 0,5.49804 q 0.85937,-0.71289 1.77734,-1.11328 0.91797,-0.40039 1.88477,-0.40039 1.76757,0 2.69531,1.06446 0.92773,1.06445 0.92773,3.0664 l 0,7.08008 z"
         style=""
         id="path6038" />
      <path
         d="m 267.19922,234.76303 -8.03711,0 q 0,1.00586 0.30273,1.75781 0.30274,0.74219 0.83008,1.2207 0.50781,0.46875 1.20117,0.70313 0.70313,0.23437 1.54297,0.23437 1.11328,0 2.23633,-0.43945 1.13281,-0.44922 1.61133,-0.87891 l 0.0976,0 0,2.00196 q -0.92773,0.39062 -1.89453,0.65429 -0.96679,0.26368 -2.03125,0.26368 -2.71484,0 -4.23828,-1.46485 -1.52344,-1.47461 -1.52344,-4.17969 0,-2.67578 1.45508,-4.24804 1.46485,-1.57227 3.84766,-1.57227 2.20703,0 3.39844,1.28906 1.20117,1.28907 1.20117,3.66211 l 0,0.9961 z m -1.78711,-1.40625 q -0.01,-1.44531 -0.73242,-2.23633 -0.71289,-0.79102 -2.17774,-0.79102 -1.47461,0 -2.35351,0.86914 -0.86914,0.86915 -0.98633,2.15821 l 6.25,0 z"
         style=""
         id="path6040" />
      <path
         d="m 284.80664,236.88217 q 0,1.49414 -1.24023,2.45117 -1.23047,0.95703 -3.36914,0.95703 -1.21094,0 -2.22657,-0.2832 -1.00586,-0.29297 -1.68945,-0.63477 l 0,-2.06054 0.0977,0 q 0.86914,0.65429 1.93359,1.04492 1.06445,0.38086 2.04102,0.38086 1.21093,0 1.89453,-0.39063 0.68359,-0.39062 0.68359,-1.23047 0,-0.64453 -0.37109,-0.97656 -0.3711,-0.33203 -1.42578,-0.56641 -0.39063,-0.0879 -1.0254,-0.20507 -0.625,-0.11719 -1.14257,-0.25391 -1.43555,-0.38086 -2.04102,-1.11328 -0.5957,-0.74219 -0.5957,-1.81641 0,-0.67383 0.27344,-1.26953 0.2832,-0.5957 0.8496,-1.06445 0.54688,-0.45899 1.38672,-0.72266 0.84961,-0.27344 1.89453,-0.27344 0.97657,0 1.97266,0.24415 1.00586,0.23437 1.66992,0.57617 l 0,1.96289 -0.0977,0 q -0.70313,-0.51758 -1.70899,-0.86914 -1.00586,-0.36133 -1.97265,-0.36133 -1.00586,0 -1.69922,0.39062 -0.69336,0.38086 -0.69336,1.14258 0,0.67383 0.41992,1.01563 0.41016,0.34179 1.32812,0.55664 0.50782,0.11719 1.13282,0.23437 0.63476,0.11719 1.05468,0.21485 1.2793,0.29297 1.97266,1.00586 0.69336,0.72265 0.69336,1.91406 z"
         style=""
         id="path6042" />
      <path
         d="m 295.91992,240.0267 -1.82617,0 0,-1.16211 q -0.24414,0.16602 -0.66406,0.46875 -0.41016,0.29297 -0.80078,0.46875 -0.45899,0.22461 -1.05469,0.37109 -0.5957,0.15625 -1.39649,0.15625 -1.47461,0 -2.5,-0.97656 -1.02539,-0.97656 -1.02539,-2.49023 0,-1.24024 0.52735,-2.00196 0.53711,-0.77148 1.52343,-1.21093 0.9961,-0.43946 2.39258,-0.59571 1.39649,-0.15625 2.99805,-0.23437 l 0,-0.2832 q 0,-0.625 -0.22461,-1.03516 -0.21484,-0.41016 -0.625,-0.64453 -0.39062,-0.22461 -0.9375,-0.30274 -0.54687,-0.0781 -1.14258,-0.0781 -0.72265,0 -1.61133,0.19531 -0.88867,0.18555 -1.83593,0.54688 l -0.0977,0 0,-1.86524 q 0.53711,-0.14648 1.55273,-0.32226 1.01563,-0.17579 2.00196,-0.17579 1.15234,0 2.00195,0.19532 0.85938,0.18554 1.48438,0.64453 0.61523,0.44922 0.9375,1.16211 0.32226,0.71289 0.32226,1.76758 l 0,7.40234 z m -1.82617,-2.68555 0,-3.03711 q -0.83984,0.0488 -1.98242,0.14649 -1.13281,0.0977 -1.79688,0.2832 -0.79101,0.22461 -1.27929,0.70313 -0.48829,0.46875 -0.48829,1.29882 0,0.9375 0.56641,1.41602 0.56641,0.46875 1.72852,0.46875 0.96679,0 1.76757,-0.37109 0.80079,-0.38086 1.48438,-0.90821 z"
         style=""
         id="path6044" />
      <path
         d="m 315.39258,240.0267 -1.83594,0 0,-6.21094 q 0,-0.70312 -0.0684,-1.35742 -0.0586,-0.6543 -0.26367,-1.04492 -0.22461,-0.41992 -0.64453,-0.63477 -0.41992,-0.21484 -1.21094,-0.21484 -0.77148,0 -1.54297,0.39062 -0.77148,0.38086 -1.54297,0.97657 0.0293,0.22461 0.0488,0.52734 0.0195,0.29297 0.0195,0.58594 l 0,6.98242 -1.83594,0 0,-6.21094 q 0,-0.72265 -0.0684,-1.36719 -0.0586,-0.65429 -0.26368,-1.04492 -0.22461,-0.41992 -0.64453,-0.625 -0.41992,-0.21484 -1.21094,-0.21484 -0.75195,0 -1.51367,0.37109 -0.75195,0.3711 -1.5039,0.94727 l 0,8.14453 -1.83594,0 0,-10.9082 1.83594,0 0,1.21093 q 0.85937,-0.71289 1.70898,-1.11328 0.85938,-0.40039 1.82617,-0.40039 1.11328,0 1.88477,0.46875 0.78125,0.46875 1.16211,1.29883 1.11328,-0.9375 2.03125,-1.34766 0.91797,-0.41992 1.96289,-0.41992 1.79687,0 2.64648,1.09375 0.85938,1.08399 0.85938,3.03711 l 0,7.08008 z"
         style=""
         id="path6046" />
      <path
         d="m 328.05859,234.76303 -8.03711,0 q 0,1.00586 0.30274,1.75781 0.30273,0.74219 0.83008,1.2207 0.50781,0.46875 1.20117,0.70313 0.70312,0.23437 1.54297,0.23437 1.11328,0 2.23633,-0.43945 1.13281,-0.44922 1.61132,-0.87891 l 0.0977,0 0,2.00196 q -0.92773,0.39062 -1.89453,0.65429 -0.9668,0.26368 -2.03125,0.26368 -2.71485,0 -4.23828,-1.46485 -1.52344,-1.47461 -1.52344,-4.17969 0,-2.67578 1.45508,-4.24804 1.46484,-1.57227 3.84765,-1.57227 2.20704,0 3.39844,1.28906 1.20117,1.28907 1.20117,3.66211 l 0,0.9961 z m -1.78711,-1.40625 q -0.01,-1.44531 -0.73242,-2.23633 -0.71289,-0.79102 -2.17773,-0.79102 -1.47461,0 -2.35352,0.86914 -0.86914,0.86915 -0.98633,2.15821 l 6.25,0 z"
         style=""
         id="path6048" />
    </g>
    <path
       id="path5877"
       d="m 399.14065,375.29144 -39.04418,1.93453 -20.94198,4.72416 a 42.950937,41.503151 0 0 0 -9.47205,25.98278 42.950937,41.503151 0 0 0 8.90726,25.26244 l 71.44024,-4.89833 a 42.950937,41.503151 0 0 0 5.55287,-20.36411 42.950937,41.503151 0 0 0 -16.44216,-32.64147 z"
       style="fill:#ececec;fill-opacity:1;stroke:#000000;stroke-width:1.35126543;stroke-miterlimit:4;stroke-dasharray:none;stroke-dashoffset:0;stroke-opacity:1"
       inkscape:connector-curvature="0" />
    <path
       inkscape:connector-curvature="0"
       style="fill:#000000;fill-opacity:1;stroke:#000000;stroke-width:3.51328993;stroke-miterlimit:4;stroke-dasharray:none;stroke-dashoffset:0;stroke-opacity:1"
       d="m 409.13866,408.33492 a 21.157256,15.185449 0 0 1 -21.15727,15.18538 21.157256,15.185449 0 0 1 -21.15725,-15.18538 21.157256,15.185449 0 0 1 21.15725,-15.18552 21.157256,15.185449 0 0 1 21.15727,15.18552 z"
       id="path5879" />
    <path
       inkscape:connector-curvature="0"
       id="path5881"
       d="m 323.50072,387.9512 c 33.66169,-15.99751 84.70628,-16.58149 120.1186,-4.7774"
       style="fill:none;fill-rule:evenodd;stroke:#000000;stroke-width:1.35126543px;stroke-linecap:butt;stroke-linejoin:miter;stroke-opacity:1" />
    <path
       inkscape:connector-curvature="0"
       id="path5883"
       d="m 410.45556,427.55112 c 9.81688,0.88048 44.7068,-32.98628 39.87445,-37.95705 -2.15791,-2.21972 -4.47379,-4.28013 -6.71069,-6.42027"
       style="fill:none;fill-rule:evenodd;stroke:#000000;stroke-width:1.35126543px;stroke-linecap:butt;stroke-linejoin:miter;stroke-opacity:1" />
    <path
       inkscape:connector-curvature="0"
       id="path5885"
       d="m 338.17969,432.67174 c -17.65487,1.23059 -23.25523,-14.70407 -32.42964,-23.87848"
       style="fill:none;fill-rule:evenodd;stroke:#000000;stroke-width:1.35126543px;stroke-linecap:butt;stroke-linejoin:miter;stroke-opacity:1" />
    <path
       inkscape:connector-curvature="0"
       id="path5887"
       d="m 323.50072,387.9512 c -6.56672,2.41607 -17.7507,13.57954 -17.75067,20.84206"
       style="fill:none;fill-rule:evenodd;stroke:#000000;stroke-width:1.35126543px;stroke-linecap:butt;stroke-linejoin:miter;stroke-opacity:1" />
    <path
       inkscape:connector-curvature="0"
       id="path5889"
       d="m 305.85851,407.50077 c 3.3174,-69.15948 119.45905,-54.51102 137.76081,-24.32697"
       style="fill:none;fill-rule:evenodd;stroke:#000000;stroke-width:1.35126543px;stroke-linecap:butt;stroke-linejoin:miter;stroke-opacity:1" />
    <path
       inkscape:connector-curvature="0"
       id="path5891"
       d="m 306.86936,404.28084 c 4.67797,3.0748 2.92454,6.09745 2.82371,9.02037"
       style="fill:none;fill-rule:evenodd;stroke:#000000;stroke-width:1.35126543px;stroke-linecap:butt;stroke-linejoin:miter;stroke-opacity:1" />
    <path
       inkscape:connector-curvature="0"
       id="path5893"
       d="m 311.59041,415.7566 c 10.63243,26.11861 83.43653,29.77351 106.16445,19.44268"
       style="fill:none;fill-rule:evenodd;stroke:#000000;stroke-width:1.35126543px;stroke-linecap:butt;stroke-linejoin:miter;stroke-opacity:1" />
    <path
       inkscape:connector-curvature="0"
       style="fill:none;fill-opacity:1;stroke:#000000;stroke-width:1.1570009;stroke-miterlimit:4;stroke-dasharray:none;stroke-dashoffset:0;stroke-opacity:1"
       d="m 275.05096,340.8035 208.67523,0 0,103.90355 -208.67523,0 z"
       id="path5895" />
    <path
       style="fill:#ffffff;fill-opacity:1;stroke:#0000ff;stroke-width:1.02175808;stroke-miterlimit:4;stroke-dasharray:none;stroke-dashoffset:0;stroke-opacity:1"
       d="m 353.18911,392.40601 a 5.4186907,5.1606574 0 0 1 -5.41869,5.16065 5.4186907,5.1606574 0 0 1 -5.41869,-5.16065 5.4186907,5.1606574 0 0 1 5.41869,-5.16066 5.4186907,5.1606574 0 0 1 5.41869,5.16066 z"
       id="ellipse5897" />
    <path
       style="fill:#ff0000;fill-opacity:1;stroke:#ff0000;stroke-width:3.51328993;stroke-miterlimit:4;stroke-dasharray:none;stroke-dashoffset:0;stroke-opacity:1"
       d="m 391.01727,409.38745 a 3.1368661,3.1368661 0 0 1 -3.13687,3.13687 3.1368661,3.1368661 0 0 1 -3.13686,-3.13687 3.1368661,3.1368661 0 0 1 3.13686,-3.13686 3.1368661,3.1368661 0 0 1 3.13687,3.13686 z"
       id="circle5909" />
    <path
       style="fill:none;fill-rule:evenodd;stroke:#00ff00;stroke-width:2.99999976;stroke-linecap:butt;stroke-linejoin:miter;stroke-miterlimit:4;stroke-dasharray:none;stroke-opacity:1"
       d="m 347.3296,392.42843 40.71429,17.14286"
       id="path5911"
       inkscape:connector-curvature="0" />
    <g
       id="g5918"
       transform="matrix(0.39535752,0,0,0.39535752,236.72198,299.12665)">
      <path
         inkscape:connector-curvature="0"
         id="path5920"
         d="m 301.97246,213.85694 62.14285,10.35718"
         style="fill:none;fill-rule:evenodd;stroke:#000000;stroke-width:2.99999952;stroke-linecap:butt;stroke-linejoin:miter;stroke-miterlimit:4;stroke-dasharray:none;stroke-opacity:1" />
      <path
         inkscape:connector-curvature="0"
         id="path5922"
         d="m 363.75817,223.32134 -13.03571,-7.50006"
         style="fill:none;fill-rule:evenodd;stroke:#000000;stroke-width:2.99999952;stroke-linecap:butt;stroke-linejoin:miter;stroke-miterlimit:4;stroke-dasharray:none;stroke-opacity:1" />
      <path
         inkscape:connector-curvature="0"
         id="path5924"
         d="m 363.75817,223.85698 -16.24999,4.28568"
         style="fill:none;fill-rule:evenodd;stroke:#000000;stroke-width:2.99999952;stroke-linecap:butt;stroke-linejoin:miter;stroke-miterlimit:4;stroke-dasharray:none;stroke-opacity:1" />
    </g>
    <g
       transform="matrix(0.93607192,0,0,1,274.51541,65.939302)"
       style="font-style:normal;font-weight:normal;font-size:20px;line-height:125%;font-family:sans-serif;letter-spacing:0px;word-spacing:0px;fill:#000000;fill-opacity:1;stroke:none;stroke-width:1px;stroke-linecap:butt;stroke-linejoin:miter;stroke-opacity:1"
       id="flowRoot5926">
      <path
         d="m 245.75,286.3099 q 0,0.9668 -0.3418,1.79688 -0.33203,0.82031 -0.9375,1.42578 -0.75195,0.75195 -1.77734,1.13281 -1.02539,0.3711 -2.58789,0.3711 l -1.9336,0 0,5.41992 -1.93359,0 0,-14.54102 3.94531,0 q 1.3086,0 2.2168,0.22461 0.9082,0.21484 1.61133,0.68359 0.83008,0.55665 1.2793,1.38672 0.45898,0.83008 0.45898,2.09961 z m -2.01172,0.0488 q 0,-0.75195 -0.26367,-1.30859 -0.26367,-0.55664 -0.80078,-0.90821 -0.46875,-0.30273 -1.07422,-0.42968 -0.5957,-0.13672 -1.51367,-0.13672 l -1.91407,0 0,5.81054 1.63086,0 q 1.17188,0 1.9043,-0.20507 0.73242,-0.21485 1.19141,-0.67383 0.45898,-0.46875 0.64453,-0.98633 0.19531,-0.51758 0.19531,-1.16211 z"
         style=""
         id="path6053" />
      <path
         d="m 257.20508,296.45639 -1.83594,0 0,-1.21094 q -0.92773,0.73242 -1.77734,1.12305 -0.84961,0.39062 -1.875,0.39062 -1.71875,0 -2.67578,-1.04492 -0.95704,-1.05469 -0.95704,-3.08594 l 0,-7.08008 1.83594,0 0,6.21094 q 0,0.83008 0.0781,1.42578 0.0781,0.58594 0.33203,1.00586 0.26367,0.42969 0.68359,0.625 0.41992,0.19531 1.2207,0.19531 0.7129,0 1.55274,-0.37109 0.84961,-0.37109 1.58203,-0.94726 l 0,-8.14454 1.83594,0 0,10.90821 z"
         style=""
         id="path6055" />
      <path
         d="m 270.41797,290.87045 q 0,1.32812 -0.38086,2.43164 -0.38086,1.09375 -1.07422,1.85547 -0.64453,0.72266 -1.52344,1.12305 -0.86914,0.39062 -1.8457,0.39062 -0.84961,0 -1.54297,-0.18555 -0.68359,-0.18554 -1.39648,-0.57617 l 0,4.57031 -1.83594,0 0,-14.93164 1.83594,0 0,1.14258 q 0.73242,-0.61523 1.64062,-1.02539 0.91797,-0.41992 1.95313,-0.41992 1.97265,0 3.0664,1.49414 1.10352,1.48438 1.10352,4.13086 z m -1.89453,0.0488 q 0,-1.97266 -0.67383,-2.94922 -0.67383,-0.97656 -2.07031,-0.97656 -0.79102,0 -1.5918,0.34179 -0.80078,0.3418 -1.5332,0.89844 l 0,6.18164 q 0.78125,0.35156 1.33789,0.47852 0.5664,0.12695 1.27929,0.12695 1.53321,0 2.39258,-1.03516 0.85938,-1.03515 0.85938,-3.0664 z"
         style=""
         id="path6057" />
      <path
         d="m 275.25195,283.72201 -2.07031,0 0,-1.90429 2.07031,0 0,1.90429 z m -0.11718,12.73438 -1.83594,0 0,-10.90821 1.83594,0 0,10.90821 z"
         style=""
         id="path6059" />
      <path
         d="m 280.56445,296.45639 -1.83593,0 0,-15.19532 1.83593,0 0,15.19532 z"
         style=""
         id="path6061" />
      <path
         d="m 307.08789,296.45639 -1.83594,0 0,-6.21094 q 0,-0.70313 -0.0684,-1.35742 -0.0586,-0.6543 -0.26367,-1.04492 -0.22461,-0.41993 -0.64453,-0.63477 -0.41992,-0.21484 -1.21094,-0.21484 -0.77148,0 -1.54297,0.39062 -0.77148,0.38086 -1.54296,0.97656 0.0293,0.22461 0.0488,0.52735 0.0195,0.29297 0.0195,0.58594 l 0,6.98242 -1.83593,0 0,-6.21094 q 0,-0.72266 -0.0684,-1.36719 -0.0586,-0.65429 -0.26367,-1.04492 -0.22461,-0.41992 -0.64454,-0.625 -0.41992,-0.21484 -1.21093,-0.21484 -0.75196,0 -1.51367,0.37109 -0.75196,0.37109 -1.50391,0.94727 l 0,8.14453 -1.83594,0 0,-10.90821 1.83594,0 0,1.21094 q 0.85937,-0.71289 1.70898,-1.11328 0.85938,-0.40039 1.82618,-0.40039 1.11328,0 1.88476,0.46875 0.78125,0.46875 1.16211,1.29883 1.11328,-0.9375 2.03125,-1.34766 0.91797,-0.41992 1.96289,-0.41992 1.79688,0 2.64649,1.09375 0.85937,1.08398 0.85937,3.03711 l 0,7.08008 z"
         style=""
         id="path6063" />
      <path
         d="m 319.91992,291.00717 q 0,2.66601 -1.36719,4.20898 -1.36718,1.54297 -3.66211,1.54297 -2.31445,0 -3.68164,-1.54297 -1.35742,-1.54297 -1.35742,-4.20898 0,-2.66602 1.35742,-4.20899 1.36719,-1.55273 3.68164,-1.55273 2.29493,0 3.66211,1.55273 1.36719,1.54297 1.36719,4.20899 z m -1.89453,0 q 0,-2.11914 -0.83008,-3.14453 -0.83008,-1.03516 -2.30469,-1.03516 -1.49414,0 -2.32421,1.03516 -0.82032,1.02539 -0.82032,3.14453 0,2.05078 0.83008,3.11523 0.83008,1.05469 2.31445,1.05469 1.46485,0 2.29493,-1.04492 0.83984,-1.05469 0.83984,-3.125 z"
         style=""
         id="path6065" />
      <path
         d="m 332.04883,285.54818 -4.41406,10.90821 -1.84571,0 -4.38476,-10.90821 1.99218,0 3.37891,8.68164 3.34961,-8.68164 1.92383,0 z"
         style=""
         id="path6067" />
      <path
         d="m 343.42578,291.19272 -8.03711,0 q 0,1.00585 0.30274,1.75781 0.30273,0.74219 0.83007,1.2207 0.50782,0.46875 1.20118,0.70313 0.70312,0.23437 1.54296,0.23437 1.11329,0 2.23633,-0.43945 1.13282,-0.44922 1.61133,-0.87891 l 0.0977,0 0,2.00195 q -0.92774,0.39063 -1.89453,0.6543 -0.9668,0.26367 -2.03125,0.26367 -2.71485,0 -4.23829,-1.46484 -1.52343,-1.47461 -1.52343,-4.17969 0,-2.67578 1.45508,-4.24804 1.46484,-1.57227 3.84765,-1.57227 2.20703,0 3.39844,1.28906 1.20117,1.28906 1.20117,3.66211 l 0,0.9961 z m -1.78711,-1.40625 q -0.01,-1.44532 -0.73242,-2.23633 -0.71289,-0.79102 -2.17773,-0.79102 -1.47461,0 -2.35352,0.86914 -0.86914,0.86914 -0.98633,2.15821 l 6.25,0 z"
         style=""
         id="path6069" />
      <path
         d="m 354.00195,293.31186 q 0,1.49414 -1.24023,2.45117 -1.23047,0.95703 -3.36914,0.95703 -1.21094,0 -2.22656,-0.2832 -1.00586,-0.29297 -1.68946,-0.63477 l 0,-2.06055 0.0977,0 q 0.86914,0.6543 1.93359,1.04493 1.06446,0.38085 2.04102,0.38085 1.21094,0 1.89453,-0.39062 0.68359,-0.39063 0.68359,-1.23047 0,-0.64453 -0.37109,-0.97656 -0.37109,-0.33203 -1.42578,-0.56641 -0.39063,-0.0879 -1.02539,-0.20508 -0.625,-0.11718 -1.14258,-0.2539 -1.43555,-0.38086 -2.04102,-1.11328 -0.5957,-0.74219 -0.5957,-1.81641 0,-0.67383 0.27344,-1.26953 0.2832,-0.5957 0.84961,-1.06445 0.54687,-0.45899 1.38672,-0.72266 0.84961,-0.27344 1.89453,-0.27344 0.97656,0 1.97265,0.24414 1.00586,0.23438 1.66993,0.57617 l 0,1.9629 -0.0977,0 q -0.70313,-0.51758 -1.70899,-0.86915 -1.00585,-0.36132 -1.97265,-0.36132 -1.00586,0 -1.69922,0.39062 -0.69336,0.38086 -0.69336,1.14258 0,0.67383 0.41992,1.01562 0.41016,0.3418 1.32813,0.55665 0.50781,0.11718 1.13281,0.23437 0.63477,0.11719 1.05469,0.21484 1.27929,0.29297 1.97265,1.00586 0.69336,0.72266 0.69336,1.91407 z"
         style=""
         id="path6071" />
      <path
         d="m 360.54492,288.33139 -2.33398,0 0,-2.78321 2.33398,0 0,2.78321 z m 0,8.125 -2.33398,0 0,-2.78321 2.33398,0 0,2.78321 z"
         style=""
         id="path6073" />
      <path
         d="m 381.61914,296.45639 -1.83594,0 0,-1.14258 q -0.79101,0.68359 -1.65039,1.06445 -0.85937,0.38086 -1.86523,0.38086 -1.95313,0 -3.10547,-1.5039 -1.14258,-1.50391 -1.14258,-4.16993 0,-1.38672 0.39063,-2.4707 0.40039,-1.08398 1.07421,-1.8457 0.66407,-0.74219 1.54297,-1.13282 0.88868,-0.39062 1.83594,-0.39062 0.85938,0 1.52344,0.18555 0.66406,0.17578 1.39648,0.55664 l 0,-4.72657 1.83594,0 0,15.19532 z m -1.83594,-2.68555 0,-6.25977 q -0.74218,-0.33203 -1.32812,-0.45898 -0.58594,-0.12695 -1.2793,-0.12695 -1.54297,0 -2.40234,1.07422 -0.85938,1.07421 -0.85938,3.04687 0,1.94336 0.66406,2.95899 0.66407,1.00585 2.12891,1.00585 0.78125,0 1.58203,-0.34179 0.80078,-0.35156 1.49414,-0.89844 z"
         style=""
         id="path6075" />
      <path
         d="m 387.20508,283.72201 -2.07031,0 0,-1.90429 2.07031,0 0,1.90429 z m -0.11719,12.73438 -1.83594,0 0,-10.90821 1.83594,0 0,10.90821 z"
         style=""
         id="path6077" />
      <path
         d="m 398.45508,293.31186 q 0,1.49414 -1.24024,2.45117 -1.23047,0.95703 -3.36914,0.95703 -1.21093,0 -2.22656,-0.2832 -1.00586,-0.29297 -1.68945,-0.63477 l 0,-2.06055 0.0976,0 q 0.86914,0.6543 1.9336,1.04493 1.06445,0.38085 2.04101,0.38085 1.21094,0 1.89453,-0.39062 0.6836,-0.39063 0.6836,-1.23047 0,-0.64453 -0.3711,-0.97656 -0.37109,-0.33203 -1.42578,-0.56641 -0.39062,-0.0879 -1.02539,-0.20508 -0.625,-0.11718 -1.14258,-0.2539 -1.43554,-0.38086 -2.04101,-1.11328 -0.5957,-0.74219 -0.5957,-1.81641 0,-0.67383 0.27343,-1.26953 0.28321,-0.5957 0.84961,-1.06445 0.54688,-0.45899 1.38672,-0.72266 0.84961,-0.27344 1.89453,-0.27344 0.97656,0 1.97266,0.24414 1.00586,0.23438 1.66992,0.57617 l 0,1.9629 -0.0977,0 q -0.70312,-0.51758 -1.70898,-0.86915 -1.00586,-0.36132 -1.97266,-0.36132 -1.00586,0 -1.69922,0.39062 -0.69335,0.38086 -0.69335,1.14258 0,0.67383 0.41992,1.01562 0.41015,0.3418 1.32812,0.55665 0.50781,0.11718 1.13281,0.23437 0.63477,0.11719 1.05469,0.21484 1.2793,0.29297 1.97266,1.00586 0.69336,0.72266 0.69336,1.91407 z"
         style=""
         id="path6079" />
      <path
         d="m 406.75586,296.35873 q -0.51758,0.13672 -1.13281,0.22461 -0.60547,0.0879 -1.08399,0.0879 -1.66992,0 -2.53906,-0.89844 -0.86914,-0.89843 -0.86914,-2.88086 l 0,-5.80078 -1.24024,0 0,-1.54297 1.24024,0 0,-3.13476 1.83594,0 0,3.13476 3.78906,0 0,1.54297 -3.78906,0 0,4.97071 q 0,0.85937 0.0391,1.34765 0.0391,0.47852 0.27344,0.89844 0.21484,0.39062 0.58593,0.57617 0.38086,0.17578 1.15235,0.17578 0.44922,0 0.9375,-0.12695 0.48828,-0.13672 0.70312,-0.22461 l 0.0977,0 0,1.65039 z"
         style=""
         id="path6081" />
      <path
         d="m 417.45898,296.45639 -1.82617,0 0,-1.16211 q -0.24414,0.16601 -0.66406,0.46875 -0.41016,0.29297 -0.80078,0.46875 -0.45899,0.22461 -1.05469,0.37109 -0.5957,0.15625 -1.39648,0.15625 -1.47461,0 -2.5,-0.97656 -1.02539,-0.97656 -1.02539,-2.49024 0,-1.24023 0.52734,-2.00195 0.53711,-0.77148 1.52344,-1.21094 0.99609,-0.43945 2.39258,-0.5957 1.39648,-0.15625 2.99804,-0.23437 l 0,-0.28321 q 0,-0.625 -0.22461,-1.03515 -0.21484,-0.41016 -0.625,-0.64453 -0.39062,-0.22461 -0.9375,-0.30274 -0.54687,-0.0781 -1.14258,-0.0781 -0.72265,0 -1.61132,0.19531 -0.88868,0.18555 -1.83594,0.54687 l -0.0977,0 0,-1.86523 q 0.53711,-0.14649 1.55274,-0.32227 1.01562,-0.17578 2.00195,-0.17578 1.15234,0 2.00195,0.19531 0.85938,0.18555 1.48438,0.64454 0.61523,0.44921 0.9375,1.16211 0.32226,0.71289 0.32226,1.76757 l 0,7.40235 z m -1.82617,-2.68555 0,-3.03711 q -0.83984,0.0488 -1.98242,0.14649 -1.13281,0.0976 -1.79687,0.2832 -0.79102,0.22461 -1.2793,0.70312 -0.48828,0.46875 -0.48828,1.29883 0,0.9375 0.5664,1.41602 0.56641,0.46875 1.72852,0.46875 0.9668,0 1.76758,-0.3711 0.80078,-0.38086 1.48437,-0.9082 z"
         style=""
         id="path6083" />
      <path
         d="m 430.13477,296.45639 -1.83594,0 0,-6.21094 q 0,-0.75195 -0.0879,-1.40625 -0.0879,-0.66406 -0.32227,-1.03516 -0.24414,-0.41015 -0.70312,-0.60547 -0.45899,-0.20507 -1.19141,-0.20507 -0.75195,0 -1.57227,0.37109 -0.82031,0.37109 -1.57226,0.94727 l 0,8.14453 -1.83594,0 0,-10.90821 1.83594,0 0,1.21094 q 0.85937,-0.71289 1.77734,-1.11328 0.91797,-0.40039 1.88477,-0.40039 1.76758,0 2.69531,1.06445 0.92774,1.06446 0.92774,3.06641 l 0,7.08008 z"
         style=""
         id="path6085" />
      <path
         d="m 441.73633,295.77279 q -0.91797,0.43946 -1.74805,0.6836 -0.82031,0.24414 -1.74805,0.24414 -1.18164,0 -2.16796,-0.3418 -0.98633,-0.35156 -1.68946,-1.05469 -0.71289,-0.70312 -1.10351,-1.77734 -0.39063,-1.07422 -0.39063,-2.50977 0,-2.67578 1.46485,-4.19921 1.4746,-1.52344 3.88671,-1.52344 0.9375,0 1.83594,0.26367 0.9082,0.26367 1.66016,0.64453 l 0,2.04102 -0.0977,0 q -0.83984,-0.6543 -1.73828,-1.00586 -0.88867,-0.35157 -1.73828,-0.35157 -1.5625,0 -2.4707,1.05469 -0.89844,1.04492 -0.89844,3.07617 0,1.97266 0.8789,3.03711 0.88868,1.05469 2.49024,1.05469 0.55664,0 1.13281,-0.14648 0.57617,-0.14649 1.03516,-0.38086 0.40039,-0.20508 0.75195,-0.42969 0.35156,-0.23438 0.55664,-0.40039 l 0.0977,0 0,2.02148 z"
         style=""
         id="path6087" />
      <path
         d="m 453.23047,291.19272 -8.03711,0 q 0,1.00585 0.30273,1.75781 0.30274,0.74219 0.83008,1.2207 0.50781,0.46875 1.20117,0.70313 0.70313,0.23437 1.54297,0.23437 1.11328,0 2.23633,-0.43945 1.13281,-0.44922 1.61133,-0.87891 l 0.0976,0 0,2.00195 q -0.92773,0.39063 -1.89453,0.6543 -0.96679,0.26367 -2.03125,0.26367 -2.71484,0 -4.23828,-1.46484 -1.52344,-1.47461 -1.52344,-4.17969 0,-2.67578 1.45508,-4.24804 1.46485,-1.57227 3.84766,-1.57227 2.20703,0 3.39844,1.28906 1.20117,1.28906 1.20117,3.66211 l 0,0.9961 z m -1.78711,-1.40625 q -0.01,-1.44532 -0.73242,-2.23633 -0.71289,-0.79102 -2.17774,-0.79102 -1.47461,0 -2.35351,0.86914 -0.86914,0.86914 -0.98633,2.15821 l 6.25,0 z"
         style=""
         id="path6089" />
      <path
         d="m 245.69141,315.91928 q 0,1.36719 -0.39063,2.46094 -0.38086,1.09375 -1.03516,1.83593 -0.69335,0.77149 -1.52343,1.16211 -0.83008,0.38086 -1.82617,0.38086 -0.92774,0 -1.6211,-0.22461 -0.69336,-0.21484 -1.36719,-0.58594 l -0.11718,0.50782 -1.71875,0 0,-15.19532 1.83593,0 0,5.42969 q 0.77149,-0.63476 1.64063,-1.03515 0.86914,-0.41016 1.95312,-0.41016 1.9336,0 3.04688,1.48437 1.12305,1.48438 1.12305,4.18946 z m -1.89454,0.0488 q 0,-1.95313 -0.64453,-2.95899 -0.64453,-1.01562 -2.08007,-1.01562 -0.80079,0 -1.6211,0.35156 -0.82031,0.3418 -1.52344,0.88867 l 0,6.25 q 0.78125,0.35156 1.33789,0.48828 0.56641,0.13672 1.2793,0.13672 1.52344,0 2.38281,-0.99609 0.86914,-1.00586 0.86914,-3.14453 z"
         style=""
         id="path6091" />
      <path
         d="m 257.68359,316.19272 -8.03711,0 q 0,1.00585 0.30274,1.75781 0.30273,0.74219 0.83008,1.2207 0.50781,0.46875 1.20117,0.70313 0.70312,0.23437 1.54297,0.23437 1.11328,0 2.23633,-0.43945 1.13281,-0.44922 1.61132,-0.87891 l 0.0977,0 0,2.00195 q -0.92773,0.39063 -1.89453,0.6543 -0.9668,0.26367 -2.03125,0.26367 -2.71485,0 -4.23828,-1.46484 -1.52344,-1.47461 -1.52344,-4.17969 0,-2.67578 1.45508,-4.24804 1.46484,-1.57227 3.84765,-1.57227 2.20704,0 3.39844,1.28906 1.20117,1.28906 1.20117,3.66211 l 0,0.9961 z m -1.78711,-1.40625 q -0.01,-1.44532 -0.73242,-2.23633 -0.71289,-0.79102 -2.17773,-0.79102 -1.47461,0 -2.35352,0.86914 -0.86914,0.86914 -0.98633,2.15821 l 6.25,0 z"
         style=""
         id="path6093" />
      <path
         d="m 266.13086,321.35873 q -0.51758,0.13672 -1.13281,0.22461 -0.60547,0.0879 -1.08399,0.0879 -1.66992,0 -2.53906,-0.89844 -0.86914,-0.89843 -0.86914,-2.88086 l 0,-5.80078 -1.24024,0 0,-1.54297 1.24024,0 0,-3.13476 1.83594,0 0,3.13476 3.78906,0 0,1.54297 -3.78906,0 0,4.97071 q 0,0.85937 0.0391,1.34765 0.0391,0.47852 0.27344,0.89844 0.21484,0.39062 0.58593,0.57617 0.38086,0.17578 1.15235,0.17578 0.44922,0 0.9375,-0.12695 0.48828,-0.13672 0.70312,-0.22461 l 0.0977,0 0,1.65039 z"
         style=""
         id="path6095" />
      <path
         d="m 282.07812,310.54818 -2.84179,10.90821 -1.69922,0 -2.80274,-8.40821 -2.7832,8.40821 -1.68945,0 -2.8711,-10.90821 1.91407,0 2.00195,8.44727 2.72461,-8.44727 1.51367,0 2.79297,8.44727 1.89453,-8.44727 1.8457,0 z"
         style=""
         id="path6097" />
      <path
         d="m 293.85547,316.19272 -8.03711,0 q 0,1.00585 0.30273,1.75781 0.30274,0.74219 0.83008,1.2207 0.50781,0.46875 1.20117,0.70313 0.70313,0.23437 1.54297,0.23437 1.11328,0 2.23633,-0.43945 1.13281,-0.44922 1.61133,-0.87891 l 0.0976,0 0,2.00195 q -0.92773,0.39063 -1.89453,0.6543 -0.96679,0.26367 -2.03125,0.26367 -2.71484,0 -4.23828,-1.46484 -1.52344,-1.47461 -1.52344,-4.17969 0,-2.67578 1.45508,-4.24804 1.46485,-1.57227 3.84766,-1.57227 2.20703,0 3.39844,1.28906 1.20117,1.28906 1.20117,3.66211 l 0,0.9961 z m -1.78711,-1.40625 q -0.01,-1.44532 -0.73242,-2.23633 -0.71289,-0.79102 -2.17774,-0.79102 -1.47461,0 -2.35351,0.86914 -0.86914,0.86914 -0.98633,2.15821 l 6.25,0 z"
         style=""
         id="path6099" />
      <path
         d="m 305.76953,316.19272 -8.03711,0 q 0,1.00585 0.30274,1.75781 0.30273,0.74219 0.83007,1.2207 0.50782,0.46875 1.20118,0.70313 0.70312,0.23437 1.54296,0.23437 1.11329,0 2.23633,-0.43945 1.13282,-0.44922 1.61133,-0.87891 l 0.0977,0 0,2.00195 q -0.92774,0.39063 -1.89453,0.6543 -0.9668,0.26367 -2.03125,0.26367 -2.71485,0 -4.23829,-1.46484 -1.52343,-1.47461 -1.52343,-4.17969 0,-2.67578 1.45508,-4.24804 1.46484,-1.57227 3.84765,-1.57227 2.20703,0 3.39844,1.28906 1.20117,1.28906 1.20117,3.66211 l 0,0.9961 z m -1.78711,-1.40625 q -0.01,-1.44532 -0.73242,-2.23633 -0.71289,-0.79102 -2.17773,-0.79102 -1.47461,0 -2.35352,0.86914 -0.86914,0.86914 -0.98633,2.15821 l 6.25,0 z"
         style=""
         id="path6101" />
      <path
         d="m 317.67383,321.45639 -1.83594,0 0,-6.21094 q 0,-0.75195 -0.0879,-1.40625 -0.0879,-0.66406 -0.32227,-1.03516 -0.24414,-0.41015 -0.70312,-0.60547 -0.45899,-0.20507 -1.19141,-0.20507 -0.75195,0 -1.57226,0.37109 -0.82032,0.37109 -1.57227,0.94727 l 0,8.14453 -1.83594,0 0,-10.90821 1.83594,0 0,1.21094 q 0.85938,-0.71289 1.77735,-1.11328 0.91796,-0.40039 1.88476,-0.40039 1.76758,0 2.69531,1.06445 0.92774,1.06446 0.92774,3.06641 l 0,7.08008 z"
         style=""
         id="path6103" />
      <path
         d="m 337.08789,320.21615 q 0,2.77344 -1.25977,4.07227 -1.25976,1.29883 -3.87695,1.29883 -0.86914,0 -1.69922,-0.12696 -0.82031,-0.11718 -1.62109,-0.34179 l 0,-1.875 0.0977,0 q 0.44921,0.17578 1.42578,0.42968 0.97656,0.26368 1.95312,0.26368 0.9375,0 1.55274,-0.22461 0.61523,-0.22461 0.95703,-0.625 0.34179,-0.38086 0.48828,-0.91797 0.14648,-0.53711 0.14648,-1.20117 l 0,-0.9961 q -0.83008,0.66406 -1.59179,0.9961 -0.75196,0.32226 -1.92383,0.32226 -1.95313,0 -3.10547,-1.40625 -1.14258,-1.41601 -1.14258,-3.98437 0,-1.40625 0.39063,-2.42188 0.40039,-1.02539 1.08398,-1.76758 0.63477,-0.69336 1.54297,-1.07422 0.9082,-0.39062 1.80664,-0.39062 0.94727,0 1.58203,0.19531 0.64453,0.18555 1.35742,0.57617 l 0.11719,-0.46875 1.71875,0 0,9.66797 z m -1.83594,-1.75781 0,-5.94727 q -0.73242,-0.33203 -1.36718,-0.46875 -0.625,-0.14648 -1.25,-0.14648 -1.51368,0 -2.38282,1.01563 -0.86914,1.01562 -0.86914,2.94921 0,1.83594 0.64453,2.78321 0.64453,0.94726 2.13868,0.94726 0.80078,0 1.60156,-0.30273 0.81054,-0.3125 1.48437,-0.83008 z"
         style=""
         id="path6105" />
      <path
         d="m 342.55664,321.45639 -1.83594,0 0,-15.19532 1.83594,0 0,15.19532 z"
         style=""
         id="path6107" />
      <path
         d="m 348.10352,308.72201 -2.07032,0 0,-1.90429 2.07032,0 0,1.90429 z m -0.11719,12.73438 -1.83594,0 0,-10.90821 1.83594,0 0,10.90821 z"
         style=""
         id="path6109" />
      <path
         d="m 360.68164,321.45639 -1.83594,0 0,-6.21094 q 0,-0.75195 -0.0879,-1.40625 -0.0879,-0.66406 -0.32226,-1.03516 -0.24414,-0.41015 -0.70313,-0.60547 -0.45898,-0.20507 -1.1914,-0.20507 -0.75196,0 -1.57227,0.37109 -0.82031,0.37109 -1.57227,0.94727 l 0,8.14453 -1.83593,0 0,-10.90821 1.83593,0 0,1.21094 q 0.85938,-0.71289 1.77735,-1.11328 0.91797,-0.40039 1.88476,-0.40039 1.76758,0 2.69532,1.06445 0.92773,1.06446 0.92773,3.06641 l 0,7.08008 z"
         style=""
         id="path6111" />
      <path
         d="m 369.88086,321.35873 q -0.51758,0.13672 -1.13281,0.22461 -0.60547,0.0879 -1.08399,0.0879 -1.66992,0 -2.53906,-0.89844 -0.86914,-0.89843 -0.86914,-2.88086 l 0,-5.80078 -1.24024,0 0,-1.54297 1.24024,0 0,-3.13476 1.83594,0 0,3.13476 3.78906,0 0,1.54297 -3.78906,0 0,4.97071 q 0,0.85937 0.0391,1.34765 0.0391,0.47852 0.27344,0.89844 0.21484,0.39062 0.58593,0.57617 0.38086,0.17578 1.15235,0.17578 0.44922,0 0.9375,-0.12695 0.48828,-0.13672 0.70312,-0.22461 l 0.0977,0 0,1.65039 z"
         style=""
         id="path6113" />
      <path
         d="m 387.61523,321.45639 -1.82617,0 0,-1.16211 q -0.24414,0.16601 -0.66406,0.46875 -0.41016,0.29297 -0.80078,0.46875 -0.45899,0.22461 -1.05469,0.37109 -0.5957,0.15625 -1.39648,0.15625 -1.47461,0 -2.5,-0.97656 -1.02539,-0.97656 -1.02539,-2.49024 0,-1.24023 0.52734,-2.00195 0.53711,-0.77148 1.52344,-1.21094 0.99609,-0.43945 2.39258,-0.5957 1.39648,-0.15625 2.99804,-0.23437 l 0,-0.28321 q 0,-0.625 -0.22461,-1.03515 -0.21484,-0.41016 -0.625,-0.64453 -0.39062,-0.22461 -0.9375,-0.30274 -0.54687,-0.0781 -1.14258,-0.0781 -0.72265,0 -1.61132,0.19531 -0.88868,0.18555 -1.83594,0.54687 l -0.0977,0 0,-1.86523 q 0.53711,-0.14649 1.55274,-0.32227 1.01562,-0.17578 2.00195,-0.17578 1.15234,0 2.00195,0.19531 0.85938,0.18555 1.48438,0.64454 0.61523,0.44921 0.9375,1.16211 0.32226,0.71289 0.32226,1.76757 l 0,7.40235 z m -1.82617,-2.68555 0,-3.03711 q -0.83984,0.0488 -1.98242,0.14649 -1.13281,0.0976 -1.79687,0.2832 -0.79102,0.22461 -1.2793,0.70312 -0.48828,0.46875 -0.48828,1.29883 0,0.9375 0.5664,1.41602 0.56641,0.46875 1.72852,0.46875 0.9668,0 1.76758,-0.3711 0.80078,-0.38086 1.48437,-0.9082 z"
         style=""
         id="path6115" />
      <path
         d="m 400.29102,321.45639 -1.83594,0 0,-6.21094 q 0,-0.75195 -0.0879,-1.40625 -0.0879,-0.66406 -0.32227,-1.03516 -0.24414,-0.41015 -0.70312,-0.60547 -0.45899,-0.20507 -1.19141,-0.20507 -0.75195,0 -1.57227,0.37109 -0.82031,0.37109 -1.57226,0.94727 l 0,8.14453 -1.83594,0 0,-10.90821 1.83594,0 0,1.21094 q 0.85937,-0.71289 1.77734,-1.11328 0.91797,-0.40039 1.88477,-0.40039 1.76758,0 2.69531,1.06445 0.92774,1.06446 0.92774,3.06641 l 0,7.08008 z"
         style=""
         id="path6117" />
      <path
         d="m 412.67383,321.45639 -1.83594,0 0,-1.14258 q -0.79102,0.68359 -1.65039,1.06445 -0.85938,0.38086 -1.86523,0.38086 -1.95313,0 -3.10547,-1.5039 -1.14258,-1.50391 -1.14258,-4.16993 0,-1.38672 0.39062,-2.4707 0.40039,-1.08398 1.07422,-1.8457 0.66406,-0.74219 1.54297,-1.13282 0.88867,-0.39062 1.83594,-0.39062 0.85937,0 1.52344,0.18555 0.66406,0.17578 1.39648,0.55664 l 0,-4.72657 1.83594,0 0,15.19532 z m -1.83594,-2.68555 0,-6.25977 q -0.74219,-0.33203 -1.32812,-0.45898 -0.58594,-0.12695 -1.2793,-0.12695 -1.54297,0 -2.40235,1.07422 -0.85937,1.07421 -0.85937,3.04687 0,1.94336 0.66406,2.95899 0.66406,1.00585 2.12891,1.00585 0.78125,0 1.58203,-0.34179 0.80078,-0.35156 1.49414,-0.89844 z"
         style=""
         id="path6119" />
      <path
         d="m 432.91797,315.87045 q 0,1.32812 -0.38086,2.43164 -0.38086,1.09375 -1.07422,1.85547 -0.64453,0.72266 -1.52344,1.12305 -0.86914,0.39062 -1.8457,0.39062 -0.84961,0 -1.54297,-0.18555 -0.68359,-0.18554 -1.39648,-0.57617 l 0,4.57031 -1.83594,0 0,-14.93164 1.83594,0 0,1.14258 q 0.73242,-0.61523 1.64062,-1.02539 0.91797,-0.41992 1.95313,-0.41992 1.97265,0 3.0664,1.49414 1.10352,1.48438 1.10352,4.13086 z m -1.89453,0.0488 q 0,-1.97266 -0.67383,-2.94922 -0.67383,-0.97656 -2.07031,-0.97656 -0.79102,0 -1.5918,0.34179 -0.80078,0.3418 -1.5332,0.89844 l 0,6.18164 q 0.78125,0.35156 1.33789,0.47852 0.5664,0.12695 1.27929,0.12695 1.53321,0 2.39258,-1.03516 0.85938,-1.03515 0.85938,-3.0664 z"
         style=""
         id="path6121" />
      <path
         d="m 444.82227,321.45639 -1.83594,0 0,-1.21094 q -0.92774,0.73242 -1.77735,1.12305 -0.84961,0.39062 -1.875,0.39062 -1.71875,0 -2.67578,-1.04492 -0.95703,-1.05469 -0.95703,-3.08594 l 0,-7.08008 1.83594,0 0,6.21094 q 0,0.83008 0.0781,1.42578 0.0781,0.58594 0.33204,1.00586 0.26367,0.42969 0.68359,0.625 0.41992,0.19531 1.2207,0.19531 0.71289,0 1.55274,-0.37109 0.84961,-0.37109 1.58203,-0.94726 l 0,-8.14454 1.83594,0 0,10.90821 z"
         style=""
         id="path6123" />
      <path
         d="m 458.03516,315.87045 q 0,1.32812 -0.38086,2.43164 -0.38086,1.09375 -1.07422,1.85547 -0.64453,0.72266 -1.52344,1.12305 -0.86914,0.39062 -1.8457,0.39062 -0.84961,0 -1.54297,-0.18555 -0.6836,-0.18554 -1.39649,-0.57617 l 0,4.57031 -1.83593,0 0,-14.93164 1.83593,0 0,1.14258 q 0.73243,-0.61523 1.64063,-1.02539 0.91797,-0.41992 1.95312,-0.41992 1.97266,0 3.06641,1.49414 1.10352,1.48438 1.10352,4.13086 z m -1.89454,0.0488 q 0,-1.97266 -0.67382,-2.94922 -0.67383,-0.97656 -2.07032,-0.97656 -0.79101,0 -1.59179,0.34179 -0.80078,0.3418 -1.53321,0.89844 l 0,6.18164 q 0.78125,0.35156 1.33789,0.47852 0.56641,0.12695 1.2793,0.12695 1.5332,0 2.39258,-1.03516 0.85937,-1.03515 0.85937,-3.0664 z"
         style=""
         id="path6125" />
      <path
         d="m 462.86914,308.72201 -2.07031,0 0,-1.90429 2.07031,0 0,1.90429 z m -0.11719,12.73438 -1.83593,0 0,-10.90821 1.83593,0 0,10.90821 z"
         style=""
         id="path6127" />
      <path
         d="m 468.18164,321.45639 -1.83594,0 0,-15.19532 1.83594,0 0,15.19532 z"
         style=""
         id="path6129" />
      <path
         d="m 244.1582,345.77279 q -0.91797,0.43946 -1.74804,0.6836 -0.82032,0.24414 -1.74805,0.24414 -1.18164,0 -2.16797,-0.3418 -0.98633,-0.35156 -1.68945,-1.05469 -0.71289,-0.70312 -1.10352,-1.77734 -0.39062,-1.07422 -0.39062,-2.50977 0,-2.67578 1.46484,-4.19921 1.47461,-1.52344 3.88672,-1.52344 0.9375,0 1.83594,0.26367 0.9082,0.26367 1.66015,0.64453 l 0,2.04102 -0.0976,0 q -0.83985,-0.6543 -1.73828,-1.00586 -0.88868,-0.35157 -1.73829,-0.35157 -1.5625,0 -2.4707,1.05469 -0.89844,1.04492 -0.89844,3.07617 0,1.97266 0.87891,3.03711 0.88867,1.05469 2.49023,1.05469 0.55664,0 1.13282,-0.14648 0.57617,-0.14649 1.03515,-0.38086 0.40039,-0.20508 0.75196,-0.42969 0.35156,-0.23438 0.55664,-0.40039 l 0.0976,0 0,2.02148 z"
         style=""
         id="path6131" />
      <path
         d="m 255.64258,346.45639 -1.83594,0 0,-6.21094 q 0,-0.75195 -0.0879,-1.40625 -0.0879,-0.66406 -0.32227,-1.03516 -0.24414,-0.41015 -0.70312,-0.60547 -0.45899,-0.20507 -1.19141,-0.20507 -0.75195,0 -1.57226,0.37109 -0.82032,0.37109 -1.57227,0.94727 l 0,8.14453 -1.83594,0 0,-15.19532 1.83594,0 0,5.49805 q 0.85938,-0.71289 1.77735,-1.11328 0.91796,-0.40039 1.88476,-0.40039 1.76758,0 2.69531,1.06445 0.92774,1.06446 0.92774,3.06641 l 0,7.08008 z"
         style=""
         id="path6133" />
      <path
         d="m 267.6543,346.45639 -1.82618,0 0,-1.16211 q -0.24414,0.16601 -0.66406,0.46875 -0.41015,0.29297 -0.80078,0.46875 -0.45898,0.22461 -1.05469,0.37109 -0.5957,0.15625 -1.39648,0.15625 -1.47461,0 -2.5,-0.97656 -1.02539,-0.97656 -1.02539,-2.49024 0,-1.24023 0.52734,-2.00195 0.53711,-0.77148 1.52344,-1.21094 0.99609,-0.43945 2.39258,-0.5957 1.39648,-0.15625 2.99804,-0.23437 l 0,-0.28321 q 0,-0.625 -0.2246,-1.03515 -0.21485,-0.41016 -0.625,-0.64453 -0.39063,-0.22461 -0.9375,-0.30274 -0.54688,-0.0781 -1.14258,-0.0781 -0.72266,0 -1.61133,0.19531 -0.88867,0.18555 -1.83594,0.54687 l -0.0976,0 0,-1.86523 q 0.5371,-0.14649 1.55273,-0.32227 1.01562,-0.17578 2.00195,-0.17578 1.15235,0 2.00196,0.19531 0.85937,0.18555 1.48437,0.64454 0.61524,0.44921 0.9375,1.16211 0.32227,0.71289 0.32227,1.76757 l 0,7.40235 z m -1.82618,-2.68555 0,-3.03711 q -0.83984,0.0488 -1.98242,0.14649 -1.13281,0.0976 -1.79687,0.2832 -0.79102,0.22461 -1.2793,0.70312 -0.48828,0.46875 -0.48828,1.29883 0,0.9375 0.56641,1.41602 0.5664,0.46875 1.72851,0.46875 0.9668,0 1.76758,-0.3711 0.80078,-0.38086 1.48437,-0.9082 z"
         style=""
         id="path6135" />
      <path
         d="m 280.33008,346.45639 -1.83594,0 0,-6.21094 q 0,-0.75195 -0.0879,-1.40625 -0.0879,-0.66406 -0.32227,-1.03516 -0.24414,-0.41015 -0.70312,-0.60547 -0.45899,-0.20507 -1.19141,-0.20507 -0.75195,0 -1.57226,0.37109 -0.82032,0.37109 -1.57227,0.94727 l 0,8.14453 -1.83594,0 0,-10.90821 1.83594,0 0,1.21094 q 0.85938,-0.71289 1.77735,-1.11328 0.91796,-0.40039 1.88476,-0.40039 1.76758,0 2.69531,1.06445 0.92774,1.06446 0.92774,3.06641 l 0,7.08008 z"
         style=""
         id="path6137" />
      <path
         d="m 292.71289,345.21615 q 0,2.77344 -1.25977,4.07227 -1.25976,1.29883 -3.87695,1.29883 -0.86914,0 -1.69922,-0.12696 -0.82031,-0.11718 -1.62109,-0.34179 l 0,-1.875 0.0977,0 q 0.44921,0.17578 1.42578,0.42968 0.97656,0.26368 1.95312,0.26368 0.9375,0 1.55274,-0.22461 0.61523,-0.22461 0.95703,-0.625 0.34179,-0.38086 0.48828,-0.91797 0.14648,-0.53711 0.14648,-1.20117 l 0,-0.9961 q -0.83008,0.66406 -1.59179,0.9961 -0.75196,0.32226 -1.92383,0.32226 -1.95313,0 -3.10547,-1.40625 -1.14258,-1.41601 -1.14258,-3.98437 0,-1.40625 0.39063,-2.42188 0.40039,-1.02539 1.08398,-1.76758 0.63477,-0.69336 1.54297,-1.07422 0.9082,-0.39062 1.80664,-0.39062 0.94727,0 1.58203,0.19531 0.64453,0.18555 1.35742,0.57617 l 0.11719,-0.46875 1.71875,0 0,9.66797 z m -1.83594,-1.75781 0,-5.94727 q -0.73242,-0.33203 -1.36718,-0.46875 -0.625,-0.14648 -1.25,-0.14648 -1.51368,0 -2.38282,1.01563 -0.86914,1.01562 -0.86914,2.94921 0,1.83594 0.64453,2.78321 0.64453,0.94726 2.13868,0.94726 0.80078,0 1.60156,-0.30273 0.81054,-0.3125 1.48437,-0.83008 z"
         style=""
         id="path6139" />
      <path
         d="m 305.45703,341.19272 -8.03711,0 q 0,1.00585 0.30274,1.75781 0.30273,0.74219 0.83007,1.2207 0.50782,0.46875 1.20118,0.70313 0.70312,0.23437 1.54296,0.23437 1.11329,0 2.23633,-0.43945 1.13282,-0.44922 1.61133,-0.87891 l 0.0977,0 0,2.00195 q -0.92774,0.39063 -1.89453,0.6543 -0.9668,0.26367 -2.03125,0.26367 -2.71485,0 -4.23829,-1.46484 -1.52343,-1.47461 -1.52343,-4.17969 0,-2.67578 1.45508,-4.24804 1.46484,-1.57227 3.84765,-1.57227 2.20703,0 3.39844,1.28906 1.20117,1.28906 1.20117,3.66211 l 0,0.9961 z m -1.78711,-1.40625 q -0.01,-1.44532 -0.73242,-2.23633 -0.71289,-0.79102 -2.17773,-0.79102 -1.47461,0 -2.35352,0.86914 -0.86914,0.86914 -0.98633,2.15821 l 6.25,0 z"
         style=""
         id="path6141" />
      <path
         d="m 316.0332,343.31186 q 0,1.49414 -1.24023,2.45117 -1.23047,0.95703 -3.36914,0.95703 -1.21094,0 -2.22656,-0.2832 -1.00586,-0.29297 -1.68946,-0.63477 l 0,-2.06055 0.0977,0 q 0.86914,0.6543 1.93359,1.04493 1.06446,0.38085 2.04102,0.38085 1.21094,0 1.89453,-0.39062 0.68359,-0.39063 0.68359,-1.23047 0,-0.64453 -0.37109,-0.97656 -0.37109,-0.33203 -1.42578,-0.56641 -0.39063,-0.0879 -1.02539,-0.20508 -0.625,-0.11718 -1.14258,-0.2539 -1.43555,-0.38086 -2.04102,-1.11328 -0.5957,-0.74219 -0.5957,-1.81641 0,-0.67383 0.27344,-1.26953 0.2832,-0.5957 0.84961,-1.06445 0.54687,-0.45899 1.38672,-0.72266 0.84961,-0.27344 1.89453,-0.27344 0.97656,0 1.97265,0.24414 1.00586,0.23438 1.66993,0.57617 l 0,1.9629 -0.0977,0 q -0.70313,-0.51758 -1.70899,-0.86915 -1.00585,-0.36132 -1.97265,-0.36132 -1.00586,0 -1.69922,0.39062 -0.69336,0.38086 -0.69336,1.14258 0,0.67383 0.41992,1.01562 0.41016,0.3418 1.32813,0.55665 0.50781,0.11718 1.13281,0.23437 0.63477,0.11719 1.05469,0.21484 1.27929,0.29297 1.97265,1.00586 0.69336,0.72266 0.69336,1.91407 z"
         style=""
         id="path6143" />
    </g>
  </g>
</svg>
